# Made in Blockbench 4.12.6
mtllib коробка3.mtl

o pyramid
v 0 0.5 0
v 0.5 0 0.5
v 0.5 0 -0.5
v -0.5 0 0.5
v -0.5 0 -0.5
vt 0.25 0.75
vt 0.25 1
vt 0 1
vt 0 0.75
vt 0 0.479471875
vt 0.25 0.479471875
vt 0.125 0.65625
vt 0.1875 0.620096875
vt 0.4375 0.620096875
vt 0.3125 0.796875
vt 0.265625 0.823221875
vt 0.515625 0.823221875
vt 0.390625 1
vt 0.375 0.479471875
vt 0.625 0.479471875
vt 0.5 0.65625
vn 0 -1 0
vn 0.7071067811865476 0.7071067811865476 0
vn 0 0.7071067811865476 0.7071067811865476
vn 0 0.7071067811865476 -0.7071067811865476
vn -0.7071067811865476 0.7071067811865476 0
usemtl m_ddeddb8b-2a84-d1cc-89dc-c5e2144bbd68
f 3/1/1 2/2/1 4/3/1 5/4/1
f 2/5/2 3/6/2 1/7/2
f 4/8/3 2/9/3 1/10/3
f 3/11/4 5/12/4 1/13/4
f 5/14/5 4/15/5 1/16/5