# Blender 3.5.1
# www.blender.org
mtllib c4cs16DEFUSED.mtl
o c4_template.001
v 1.155398 -2.064206 2.901196
v 1.483051 -2.054834 2.558478
v 1.462100 -1.741060 2.904466
v 1.412089 -0.116256 2.534315
v 1.584421 -2.127028 -2.720103
v 1.493481 -0.189291 -2.744714
v 1.570765 -1.851781 -3.073730
v 1.514432 -0.503064 -3.090701
v 1.074448 -0.126048 2.876808
v 1.406186 -0.402333 2.887621
v 1.181861 -0.206799 -3.101765
v 1.262811 -2.144956 -3.077378
v -0.325616 -2.211620 -3.102991
v -0.692995 -2.222790 -2.771166
v -0.794135 -2.150712 2.497417
v -0.433028 -2.130872 2.875583
v -0.875772 -0.212206 2.503021
v -0.851252 -0.497255 2.837005
v -0.513978 -0.192714 2.851194
v -0.815962 -1.826715 2.863272
v -0.763956 -0.284212 -2.795330
v -0.406566 -0.273463 -3.127379
v -0.732411 -0.617430 -3.130845
v -0.697350 -1.946775 -3.094581
v 0.541905 -0.403359 1.697446
v -0.197256 -0.434440 1.680872
v 1.077245 -0.411556 -0.730999
v -0.611257 -0.472547 -0.768976
v -0.655002 -0.450350 1.140395
v 1.044887 0.357829 -0.730681
v -0.643387 0.296722 -0.778654
v 0.509776 0.365909 1.687767
v -0.229385 0.334828 1.671193
v -0.687361 0.319036 1.140712
v 1.003432 0.378865 1.078722
v 1.035790 -0.390521 1.078403
v -0.064444 -0.292884 -1.828889
v 0.686620 -0.242797 -1.932303
v 0.684476 -0.261266 -1.802094
v 0.671581 0.058197 -1.826110
v -0.062530 -0.274297 -1.949101
v -0.077568 0.026697 -1.842909
v -0.079482 0.008110 -1.722696
v 0.669439 0.039726 -1.695902
v 0.658009 0.270438 -1.618821
v -0.091140 0.238937 -1.635617
v -0.091116 0.190031 -1.545019
v 0.657805 0.221648 -1.518224
v 0.646402 0.403453 -1.350543
v 0.643644 0.512418 -1.431900
v 0.632020 0.586768 -1.052905
v -0.105277 0.480801 -1.458694
v -0.117130 0.555267 -1.069703
v -0.102749 0.371952 -1.367341
v -0.109178 0.462890 -1.061567
v 0.639972 0.494391 -1.044770
v 0.628340 0.529963 -0.782240
v -0.120582 0.498346 -0.809035
v -0.115263 0.397860 -0.857760
v 0.633657 0.429476 -0.830966
v 0.621738 0.351806 -0.600260
v -0.117193 0.320609 -0.626831
v -0.131583 0.228924 -0.706121
v 0.617567 0.260425 -0.689323
v -0.303185 0.283765 1.039887
v -0.532924 0.274105 1.034736
v -0.298147 0.281208 0.819960
v -0.527886 0.271548 0.814810
v -0.533728 0.411415 0.813048
v -0.538766 0.413972 1.032976
v -0.303989 0.421075 0.818201
v -0.309026 0.423633 1.038127
v -0.296314 0.280279 0.739986
v -0.526053 0.270618 0.734835
v -0.291276 0.277721 0.520060
v -0.521015 0.268061 0.514907
v -0.526857 0.407928 0.513147
v -0.531896 0.410485 0.733076
v -0.297117 0.417589 0.518299
v -0.302156 0.420145 0.738226
v -0.289215 0.276675 0.430090
v -0.518953 0.267015 0.424937
v -0.284176 0.274119 0.210161
v -0.513916 0.264458 0.205011
v -0.519756 0.404326 0.203250
v -0.524795 0.406882 0.423177
v -0.290018 0.413985 0.208402
v -0.295056 0.416543 0.428330
v 0.046418 0.298466 1.047727
v -0.183321 0.288805 1.042575
v 0.051456 0.295908 0.827799
v -0.178283 0.286249 0.822648
v -0.184124 0.426115 0.820888
v -0.189164 0.428672 1.040815
v 0.045615 0.435775 0.826039
v 0.040576 0.438332 1.045967
v 0.053288 0.294978 0.747825
v -0.176450 0.285319 0.742674
v 0.058327 0.292422 0.527898
v -0.171412 0.282762 0.522746
v -0.177254 0.422629 0.520987
v -0.182293 0.425186 0.740914
v 0.052486 0.432289 0.526138
v 0.047447 0.434846 0.746065
v 0.060389 0.291376 0.437927
v -0.169350 0.281715 0.432776
v 0.065427 0.288819 0.218000
v -0.164312 0.279159 0.212849
v -0.170153 0.419026 0.211089
v -0.175192 0.421583 0.431016
v 0.059587 0.428686 0.216240
v 0.054547 0.431243 0.436168
v 0.067488 0.287773 0.128029
v -0.162250 0.278113 0.122878
v 0.072298 0.285333 -0.081901
v -0.157441 0.275673 -0.087053
v -0.163282 0.415539 -0.088813
v -0.168092 0.417980 0.121119
v 0.066457 0.425199 -0.083661
v 0.061648 0.427640 0.126270
v -0.282115 0.273073 0.120191
v -0.511854 0.263412 0.115040
v -0.277075 0.270516 -0.099737
v -0.506815 0.260856 -0.104888
v -0.512657 0.400722 -0.106648
v -0.517695 0.403280 0.113281
v -0.282918 0.410383 -0.101497
v -0.287956 0.412939 0.118431
v 0.638906 0.542720 -1.293423
v -0.108811 0.495193 -1.311459
v -0.112151 0.507202 -1.121480
v 0.637887 0.527386 -1.119991
v 0.641466 0.512333 -1.284642
v 0.233221 0.529451 -1.272394
v 0.420307 0.556340 -1.169427
v 0.536994 0.524671 -1.120191
vn 0.1623 -0.6858 0.7094
vn 0.7262 -0.6713 0.1483
vn 0.6875 -0.1226 0.7158
vn 0.6712 0.7299 0.1298
vn 0.7339 -0.6719 -0.0996
vn 0.6720 0.7306 -0.1212
vn 0.7111 -0.1532 -0.6863
vn 0.7067 0.1780 -0.6848
vn 0.0958 0.7163 0.6912
vn 0.6642 0.2065 0.7185
vn 0.1320 0.6959 -0.7059
vn 0.1774 -0.7036 -0.6881
vn -0.0763 -0.6943 -0.7156
vn -0.6676 -0.7310 -0.1408
vn -0.6720 -0.7300 0.1245
vn -0.1131 -0.6967 0.7084
vn -0.7311 0.6708 0.1242
vn -0.6956 0.1537 0.7018
vn -0.1679 0.6982 0.6959
vn -0.7027 -0.1884 0.6861
vn -0.7246 0.6671 -0.1730
vn -0.1523 0.6868 -0.7107
vn -0.6766 0.1106 -0.7280
vn -0.6866 -0.2096 -0.6962
vn 0.3561 -0.5969 0.7190
vn -0.3117 -0.6312 0.7103
vn 0.6130 -0.5576 -0.5597
vn -0.5412 -0.6051 -0.5839
vn -0.7079 -0.6551 0.2639
vn 0.5693 0.5967 -0.5655
vn -0.5855 0.5485 -0.5969
vn 0.3037 0.6414 0.7046
vn -0.3591 0.6177 0.6996
vn -0.7469 0.6132 0.2570
vn 0.6936 0.6729 0.2571
vn 0.7465 -0.6093 0.2673
vn -0.5701 -0.7184 0.3985
vn 0.6011 -0.4019 -0.6907
vn 0.6048 -0.6658 0.4369
vn 0.6586 0.4237 -0.6219
vn -0.5340 -0.4457 -0.7185
vn -0.6633 0.3681 -0.6515
vn -0.7596 -0.3731 0.5327
vn 0.7566 -0.3149 0.5731
vn 0.7122 0.4851 -0.5075
vn -0.7282 0.4182 -0.5429
vn -0.7003 -0.5212 0.4878
vn 0.7102 -0.4620 0.5312
vn 0.6893 -0.4109 0.5967
vn 0.6178 0.6779 -0.3984
vn 0.5422 0.7364 0.4046
vn 0.6369 -0.0809 0.7667
vn -0.6483 0.6411 -0.4107
vn -0.0822 0.4652 0.8814
vn -0.5818 -0.1077 -0.8062
vn -0.6785 0.7084 -0.1945
vn 0.0195 0.2141 -0.9766
vn -0.6704 -0.4461 0.5930
vn -0.6132 0.4432 0.6539
vn -0.6166 -0.7038 -0.3529
vn 0.7413 -0.6266 -0.2406
vn 0.6103 0.7834 -0.1180
vn 0.6126 0.6897 0.3861
vn -0.6898 0.6399 0.3387
vn -0.7397 -0.5589 -0.3747
vn 0.8090 -0.5074 -0.2968
vn 0.5542 0.0141 0.8322
vn -0.5694 0.0367 0.8213
vn -0.6109 -0.7917 0.0031
vn 0.5540 -0.8324 -0.0148
vn 0.5876 -0.5458 0.5973
vn -0.5658 -0.5943 0.5715
vn 0.6140 -0.5593 -0.5570
vn -0.5394 -0.6078 -0.5828
vn -0.5876 0.5458 -0.5974
vn -0.6140 0.5593 0.5570
vn 0.5658 0.5943 -0.5715
vn 0.5394 0.6078 0.5828
vn -0.5876 0.5458 -0.5973
vn 0.6503 -0.1680 -0.7409
vn 0.0244 -0.8696 -0.4931
vt 0.000000 0.000000
vt 0.721569 0.857143
vt 0.992157 0.857143
vt 0.031496 0.000000
vt 0.662745 0.984127
vt 0.000000 0.158730
vt 0.956863 0.984127
vt 0.031496 0.984127
vt 0.662745 0.984127
vt 0.661417 0.000000
vt 0.031373 0.984127
vt 0.661417 0.984127
vt 0.031373 0.984127
vt 0.716535 0.158730
vt 0.960784 0.984127
vt 0.716535 0.857143
vt 0.764706 0.984127
vt 0.000000 0.984127
vt 0.729412 0.857143
vt 0.721569 0.857143
vt 0.000000 0.857143
vt 0.764706 0.984127
vt 0.716535 0.984127
vt 0.003922 0.857143
vt 0.725490 0.857143
vt 0.716535 0.000000
vt 0.003922 0.857143
vt 0.992157 0.857143
vt 0.003922 0.158730
vt 0.988235 0.158730
vt 0.721569 0.000000
vt 0.027451 0.000000
vt 0.662745 0.000000
vt 0.662745 0.000000
vt 0.031373 0.000000
vt 0.717647 0.158730
vt 0.992157 0.158730
vt 0.003922 0.000000
vt 0.027451 0.984127
vt 0.666667 0.000000
vt 0.003922 0.857143
vt 0.768627 0.015873
vt 0.003922 0.984127
vt 0.725490 0.158730
vt 0.721569 0.158730
vt 0.964706 0.000000
vt 0.003922 0.174603
vt 0.662745 0.984127
vt 0.027451 0.000000
vt 0.721569 0.984127
vt 0.003922 0.158730
vt 0.725490 0.142857
vt 0.772549 0.015873
vt 0.721569 0.857143
vt 0.964706 0.000000
vt 0.721569 0.158730
vt 0.000000 0.603175
vt 0.142857 0.603175
vt 0.142857 0.380952
vt 0.000000 0.380952
vt 0.793651 0.984127
vt 0.984127 0.746032
vt 0.793651 0.746032
vt 0.793651 0.238095
vt 0.793651 0.000000
vt 0.984127 0.238095
vt 0.285714 0.238095
vt 0.285714 0.000000
vt 0.142857 0.238095
vt 0.793651 0.746032
vt 0.793651 0.238095
vt 0.142857 0.603175
vt 0.142857 0.380952
vt 0.285714 0.238095
vt 0.317460 0.746032
vt 0.174603 0.746032
vt 0.317460 0.984127
vt 0.317460 0.746032
vt 0.064516 0.000000
vt 0.000000 0.933333
vt 0.064516 0.933333
vt 0.064516 0.933333
vt 0.000000 0.000000
vt 0.064516 0.000000
vt 0.161290 0.000000
vt 0.161290 0.933333
vt 0.225806 0.933333
vt 0.225806 0.000000
vt 0.290323 0.000000
vt 0.290323 0.933333
vt 0.387097 0.933333
vt 0.322581 0.933333
vt 0.645161 0.933333
vt 0.322581 0.000000
vt 0.645161 0.000000
vt 0.387097 0.000000
vt 0.645161 0.000000
vt 0.645161 0.933333
vt 0.838710 0.933333
vt 0.838710 0.000000
vt 0.806452 0.000000
vt 0.806452 0.933333
vt 0.967742 0.933333
vt 0.967742 0.000000
vt 0.935484 0.000000
vt 0.935484 0.933333
vt 0.000000 0.967742
vt 0.967742 0.967742
vt 0.000000 0.000000
vt 0.967742 0.000000
vt 0.870968 0.096774
vt 0.870968 0.870968
vt 0.096774 0.096774
vt 0.096774 0.870968
vt 0.000000 0.967742
vt 0.967742 0.967742
vt 0.000000 0.000000
vt 0.967742 0.000000
vt 0.870968 0.096774
vt 0.870968 0.870968
vt 0.096774 0.096774
vt 0.096774 0.870968
vt 0.000000 0.967742
vt 0.967742 0.967742
vt 0.000000 0.000000
vt 0.967742 0.000000
vt 0.870968 0.096774
vt 0.870968 0.870968
vt 0.096774 0.096774
vt 0.096774 0.870968
vt 0.000000 0.967742
vt 0.967742 0.967742
vt 0.000000 0.000000
vt 0.967742 0.000000
vt 0.870968 0.096774
vt 0.870968 0.870968
vt 0.096774 0.096774
vt 0.096774 0.870968
vt 0.000000 0.967742
vt 0.967742 0.967742
vt 0.000000 0.000000
vt 0.967742 0.000000
vt 0.870968 0.096774
vt 0.870968 0.870968
vt 0.096774 0.096774
vt 0.096774 0.870968
vt 0.000000 0.967742
vt 0.967742 0.967742
vt 0.000000 0.000000
vt 0.967742 0.000000
vt 0.870968 0.096774
vt 0.870968 0.870968
vt 0.096774 0.096774
vt 0.096774 0.870968
vt 0.000000 0.967742
vt 0.967742 0.967742
vt 0.000000 0.000000
vt 0.967742 0.000000
vt 0.870968 0.096774
vt 0.870968 0.870968
vt 0.096774 0.096774
vt 0.096774 0.870968
vt 0.000000 0.967742
vt 0.967742 0.967742
vt 0.000000 0.000000
vt 0.967742 0.000000
vt 0.870968 0.096774
vt 0.870968 0.870968
vt 0.096774 0.096774
vt 0.096774 0.870968
vt 0.454050 0.933333
vt 0.495874 0.000000
vt 0.562735 0.000000
vt 0.546804 0.933333
vt 0.475658 0.933333
vt 0.470680 0.428500
vt 0.552533 0.665329
vt 0.548947 0.807784
s 1
usemtl cbase_front.bmp
f 1/1/1 2/4/2 3/6/3
f 3/6/3 2/4/2 4/8/4
f 2/4/2 5/10/5 4/8/4
f 4/8/4 5/10/5 6/12/6
f 5/10/5 7/14/7 6/12/6
f 6/12/6 7/14/7 8/16/8
f 9/18/9 10/21/10 4/8/4
f 4/8/4 10/21/10 3/6/3
f 6/12/6 8/16/8 11/23/11
f 7/14/7 5/10/5 12/26/12
usemtl c4base.bmp
f 12/27/12 5/11/5 13/29/13
f 13/29/13 5/11/5 14/32/14
f 5/11/5 2/5/2 14/32/14
f 14/32/14 2/5/2 15/34/15
f 2/5/2 1/2/1 15/34/15
f 15/34/15 1/2/1 16/36/16
f 17/39/17 18/41/18 19/43/19
f 17/39/17 20/47/20 18/41/18
f 17/39/17 15/35/15 20/47/20
f 17/39/17 14/33/14 15/35/15
f 17/39/17 21/48/21 14/33/14
f 8/17/8 7/15/7 22/52/22
f 22/52/22 7/15/7 23/53/23
f 7/15/7 12/28/12 23/53/23
f 23/53/23 12/28/12 24/55/24
f 12/28/12 13/30/13 24/55/24
f 22/50/22 23/54/23 21/48/21
f 21/48/21 23/54/23 14/33/14
f 23/54/23 24/56/24 14/33/14
f 14/33/14 24/56/24 13/31/13
f 11/24/11 21/49/21 6/13/6
f 6/13/6 21/49/21 4/9/4
f 21/49/21 17/40/17 4/9/4
f 4/9/4 17/40/17 19/45/19
f 18/42/18 3/7/3 19/44/19
f 18/42/18 1/3/1 3/7/3
f 18/42/18 16/37/16 1/3/1
f 18/42/18 20/46/20 16/37/16
f 19/44/19 3/7/3 9/19/9
f 9/19/9 3/7/3 10/22/10
f 20/47/20 15/35/15 16/38/16
f 11/24/11 22/51/22 21/49/21
f 22/52/22 11/25/11 8/17/8
f 19/45/19 9/20/9 4/9/4
usemtl c4timer.bmp
f 25/58/25 26/59/26 27/63/27
f 27/63/27 26/59/26 28/64/28
f 26/59/26 29/67/29 28/64/28
f 30/70/30 31/71/31 32/72/32
f 32/72/32 31/71/31 33/73/33
f 31/71/31 34/74/34 33/73/33
f 34/74/34 31/71/31 29/68/29
f 29/68/29 31/71/31 28/65/28
f 34/74/34 29/69/29 33/73/33
f 33/73/33 29/69/29 26/60/26
f 33/73/33 26/60/26 32/72/32
f 32/72/32 26/60/26 25/57/25
f 32/72/32 25/57/25 35/75/35
f 35/75/35 25/57/25 36/76/36
f 35/75/35 36/77/36 30/70/30
f 30/70/30 36/77/36 27/61/27
f 28/66/28 31/71/31 27/62/27
f 27/62/27 31/71/31 30/70/30
f 25/58/25 27/63/27 36/78/36
f 35/75/35 30/70/30 32/72/32
usemtl c4wires.bmp
f 37/79/37 38/80/38 39/81/39
f 39/81/39 38/80/38 40/82/40
f 38/80/38 41/83/41 40/82/40
f 40/82/40 41/83/41 42/84/42
f 41/83/41 37/79/37 42/84/42
f 42/84/42 37/79/37 43/85/43
f 37/79/37 39/81/39 43/85/43
f 43/85/43 39/81/39 44/86/44
f 39/81/39 40/82/40 44/86/44
f 44/86/44 40/82/40 45/87/45
f 40/82/40 42/84/42 45/87/45
f 45/87/45 42/84/42 46/88/46
f 42/84/42 43/85/43 46/88/46
f 46/88/46 43/85/43 47/89/47
f 43/85/43 44/86/44 47/89/47
f 47/89/47 44/86/44 48/90/48
f 44/86/44 45/87/45 48/90/48
f 48/90/48 45/87/45 49/91/49
f 45/87/45 50/92/50 49/91/49
f 50/92/50 129/171/51 133/175/52
f 50/92/50 52/94/53 134/176/54
f 131/173/55 53/95/56 135/177/57
f 52/94/53 54/96/58 130/172/59
f 53/95/56 131/173/55 55/97/60
f 54/96/58 49/91/49 133/175/52
f 131/173/55 56/98/61 55/97/60
f 56/98/61 51/93/62 57/99/63
f 51/93/62 53/95/56 57/99/63
f 57/99/63 53/95/56 58/100/64
f 53/95/56 55/97/60 58/100/64
f 58/100/64 55/97/60 59/101/65
f 55/97/60 56/98/61 59/101/65
f 59/101/65 56/98/61 60/102/66
f 56/98/61 57/99/63 60/102/66
f 60/102/66 57/99/63 61/103/67
f 57/99/63 58/100/64 61/103/67
f 61/103/67 58/100/64 62/104/68
f 58/100/64 59/101/65 62/104/68
f 62/104/68 59/101/65 63/105/69
f 59/101/65 60/102/66 63/105/69
f 63/105/69 60/102/66 64/106/70
f 60/102/66 61/103/67 64/106/70
f 64/106/70 61/103/67 62/104/68
f 48/90/48 54/96/58 47/89/47
f 47/89/47 54/96/58 46/88/46
f 54/96/58 52/94/53 46/88/46
f 46/88/46 52/94/53 50/92/50
f 49/91/49 54/96/58 48/90/48
f 38/80/38 37/79/37 41/83/41
f 45/87/45 46/88/46 50/92/50
f 64/106/70 62/104/68 63/105/69
f 135/177/57 51/93/62 132/174/80
f 132/174/80 51/93/62 56/98/61
f 136/178/81 132/174/80 56/98/61
f 133/175/52 129/171/51 134/176/54
f 130/172/59 133/175/52 134/176/54
f 129/171/51 50/92/50 134/176/54
f 51/93/62 135/177/57 53/95/56
f 136/178/81 131/173/55 135/177/57
f 132/174/80 136/178/81 135/177/57
f 131/173/55 136/178/81 56/98/61
f 134/176/54 52/94/53 130/172/59
f 49/91/49 50/92/50 133/175/52
f 130/172/59 54/96/58 133/175/52
usemtl c4buttons.bmp
f 65/107/71 66/108/72 67/109/73
f 67/109/73 66/108/72 68/110/74
f 69/111/75 70/112/76 71/113/77
f 71/113/77 70/112/76 72/114/78
f 68/110/74 69/111/75 67/109/73
f 67/109/73 69/111/75 71/113/77
f 66/108/72 70/112/76 68/110/74
f 68/110/74 70/112/76 69/111/75
f 65/107/71 72/114/78 66/108/72
f 66/108/72 72/114/78 70/112/76
f 67/109/73 71/113/77 65/107/71
f 65/107/71 71/113/77 72/114/78
f 73/115/71 74/116/72 75/117/73
f 75/117/73 74/116/72 76/118/74
f 77/119/75 78/120/76 79/121/77
f 79/121/77 78/120/76 80/122/78
f 76/118/74 77/119/75 75/117/73
f 75/117/73 77/119/75 79/121/77
f 74/116/72 78/120/76 76/118/74
f 76/118/74 78/120/76 77/119/75
f 73/115/71 80/122/78 74/116/72
f 74/116/72 80/122/78 78/120/76
f 75/117/73 79/121/77 73/115/71
f 73/115/71 79/121/77 80/122/78
f 81/123/71 82/124/72 83/125/73
f 83/125/73 82/124/72 84/126/74
f 85/127/79 86/128/76 87/129/77
f 87/129/77 86/128/76 88/130/78
f 84/126/74 85/127/79 83/125/73
f 83/125/73 85/127/79 87/129/77
f 82/124/72 86/128/76 84/126/74
f 84/126/74 86/128/76 85/127/79
f 81/123/71 88/130/78 82/124/72
f 82/124/72 88/130/78 86/128/76
f 83/125/73 87/129/77 81/123/71
f 81/123/71 87/129/77 88/130/78
f 89/131/71 90/132/72 91/133/73
f 91/133/73 90/132/72 92/134/74
f 93/135/79 94/136/76 95/137/77
f 95/137/77 94/136/76 96/138/78
f 92/134/74 93/135/79 91/133/73
f 91/133/73 93/135/79 95/137/77
f 90/132/72 94/136/76 92/134/74
f 92/134/74 94/136/76 93/135/79
f 89/131/71 96/138/78 90/132/72
f 90/132/72 96/138/78 94/136/76
f 91/133/73 95/137/77 89/131/71
f 89/131/71 95/137/77 96/138/78
f 97/139/71 98/140/72 99/141/73
f 99/141/73 98/140/72 100/142/74
f 101/143/79 102/144/76 103/145/77
f 103/145/77 102/144/76 104/146/78
f 100/142/74 101/143/79 99/141/73
f 99/141/73 101/143/79 103/145/77
f 98/140/72 102/144/76 100/142/74
f 100/142/74 102/144/76 101/143/79
f 97/139/71 104/146/78 98/140/72
f 98/140/72 104/146/78 102/144/76
f 99/141/73 103/145/77 97/139/71
f 97/139/71 103/145/77 104/146/78
f 105/147/71 106/148/72 107/149/73
f 107/149/73 106/148/72 108/150/74
f 109/151/79 110/152/76 111/153/77
f 111/153/77 110/152/76 112/154/78
f 108/150/74 109/151/79 107/149/73
f 107/149/73 109/151/79 111/153/77
f 106/148/72 110/152/76 108/150/74
f 108/150/74 110/152/76 109/151/79
f 105/147/71 112/154/78 106/148/72
f 106/148/72 112/154/78 110/152/76
f 107/149/73 111/153/77 105/147/71
f 105/147/71 111/153/77 112/154/78
f 113/155/71 114/156/72 115/157/73
f 115/157/73 114/156/72 116/158/74
f 117/159/79 118/160/76 119/161/77
f 119/161/77 118/160/76 120/162/78
f 116/158/74 117/159/79 115/157/73
f 115/157/73 117/159/79 119/161/77
f 114/156/72 118/160/76 116/158/74
f 116/158/74 118/160/76 117/159/79
f 113/155/71 120/162/78 114/156/72
f 114/156/72 120/162/78 118/160/76
f 115/157/73 119/161/77 113/155/71
f 113/155/71 119/161/77 120/162/78
f 121/163/71 122/164/72 123/165/73
f 123/165/73 122/164/72 124/166/74
f 125/167/79 126/168/76 127/169/77
f 127/169/77 126/168/76 128/170/78
f 124/166/74 125/167/79 123/165/73
f 123/165/73 125/167/79 127/169/77
f 122/164/72 126/168/76 124/166/74
f 124/166/74 126/168/76 125/167/79
f 121/163/71 128/170/78 122/164/72
f 122/164/72 128/170/78 126/168/76
f 123/165/73 127/169/77 121/163/71
f 121/163/71 127/169/77 128/170/78
