# Blender 3.5.1
# www.blender.org
mtllib fuckingchair.mtl
o Cube
v 1.335574 0.481110 -0.340698
v 1.335574 0.442984 -0.340698
v 1.335574 0.481110 0.340698
v 1.335574 0.442984 0.340698
v 0.654178 0.481110 -0.340698
v 0.654178 0.442984 -0.340698
v 0.654178 0.481110 0.340698
v 0.654178 0.442984 0.340698
v 0.654178 0.442984 -0.275051
v 0.654178 0.442984 0.275051
v 1.335574 0.481110 -0.275051
v 1.335574 0.481110 0.275051
v 0.654178 0.481110 0.275051
v 0.654178 0.481110 -0.275051
v 1.335574 0.442984 0.275051
v 1.335574 0.442984 -0.275051
v 1.266044 0.442984 -0.340698
v 0.723709 0.442984 -0.340698
v 1.266044 0.481110 0.340698
v 0.723709 0.481110 0.340698
v 0.723709 0.442984 0.340698
v 1.266044 0.442984 0.340698
v 0.723709 0.481110 -0.340698
v 1.266044 0.481110 -0.340698
v 1.266044 0.442984 -0.275051
v 0.723709 0.442984 -0.275051
v 1.266044 0.442984 0.275051
v 0.723709 0.442984 0.275051
v 0.723709 0.481110 -0.275051
v 1.266044 0.481110 -0.275051
v 0.723709 0.481110 0.275051
v 1.266044 0.481110 0.275051
v 1.335574 1.189077 0.275051
v 1.335574 1.189077 0.340698
v 1.266044 1.189077 -0.340698
v 1.335574 1.189077 -0.340698
v 1.335574 1.189077 -0.275051
v 1.266044 1.189077 -0.275051
v 1.266044 1.189077 0.275051
v 1.266044 1.189077 0.340698
v 1.335574 0.749232 -0.340698
v 1.335574 0.825677 -0.340698
v 1.335574 1.036089 -0.340698
v 1.335574 1.105194 -0.340698
v 1.335574 1.105194 -0.275051
v 1.335574 1.036089 -0.275051
v 1.335574 0.825677 -0.275051
v 1.335574 0.749232 -0.275051
v 1.266044 0.749232 -0.340698
v 1.266044 0.825677 -0.340698
v 1.266044 1.036089 -0.340698
v 1.266044 1.105194 -0.340698
v 1.266044 1.105194 -0.275051
v 1.266044 1.036089 -0.275051
v 1.266044 0.825677 -0.275051
v 1.266044 0.749232 -0.275051
v 1.266044 0.749232 0.340698
v 1.266044 0.825677 0.340698
v 1.266044 1.036089 0.340698
v 1.266044 1.105194 0.340698
v 1.266044 1.105194 0.275051
v 1.266044 1.036089 0.275051
v 1.266044 0.825677 0.275051
v 1.266044 0.749232 0.275051
v 1.335574 0.749232 0.340698
v 1.335574 0.825677 0.340698
v 1.335574 1.036089 0.340698
v 1.335574 1.105194 0.340698
v 1.335574 0.749232 0.275051
v 1.335574 0.825677 0.275051
v 1.335574 1.036089 0.275051
v 1.335574 1.105194 0.275051
v 1.335574 1.105194 0.000000
v 1.266044 1.105194 0.000000
v 1.266044 1.036089 0.000000
v 1.335574 1.036089 0.000000
v 1.335574 0.825677 0.000000
v 0.654178 -0.042992 -0.340698
v 0.723709 -0.042992 -0.340698
v 0.654178 -0.042992 0.340698
v 1.266044 0.825677 0.000000
v 1.266044 0.749232 0.000000
v 1.335574 0.749232 0.000000
v 0.654178 -0.042992 0.275051
v 1.266044 -0.042992 0.340698
v 1.335574 -0.042992 0.340698
v 1.335574 -0.042992 -0.275051
v 1.335574 -0.042992 -0.340698
v 0.654178 -0.042992 -0.275051
v 1.335574 -0.042992 0.275051
v 0.723709 -0.042992 -0.275051
v 0.723709 -0.042992 0.275051
v 1.266044 -0.042992 -0.340698
v 0.723709 -0.042992 0.340698
v 1.266044 -0.042992 -0.275051
v 1.266044 -0.042992 0.275051
vn -0.0000 1.0000 -0.0000
vn -0.0000 -0.0000 1.0000
vn -1.0000 -0.0000 -0.0000
vn 1.0000 -0.0000 -0.0000
vn -0.0000 -0.0000 -1.0000
vn -0.0000 -1.0000 -0.0000
vt 0.625000 0.500000
vt 0.375000 0.500000
vt 0.625000 0.750000
vt 0.375000 0.750000
vt 0.875000 0.500000
vt 0.625000 0.250000
vt 0.375000 0.250000
vt 0.875000 0.750000
vt 0.625000 1.000000
vt 0.625000 0.000000
vt 0.375000 0.000000
vt 0.375000 1.000000
vt 0.375000 0.166667
vt 0.125000 0.583333
vt 0.375000 0.083333
vt 0.125000 0.666667
vt 0.625000 0.583333
vt 0.625000 0.666667
vt 0.625000 0.083333
vt 0.875000 0.666667
vt 0.625000 0.166667
vt 0.875000 0.583333
vt 0.375000 0.666667
vt 0.375000 0.583333
vt 0.375000 0.416667
vt 0.291667 0.500000
vt 0.208333 0.500000
vt 0.375000 0.333333
vt 0.625000 0.833333
vt 0.708333 0.750000
vt 0.625000 0.916667
vt 0.791667 0.750000
vt 0.208333 0.750000
vt 0.375000 0.916667
vt 0.375000 0.833333
vt 0.291667 0.750000
vt 0.791667 0.500000
vt 0.625000 0.333333
vt 0.708333 0.500000
vt 0.625000 0.416667
vt 0.291667 0.583333
vt 0.208333 0.583333
vt 0.291667 0.666667
vt 0.208333 0.666667
vt 0.791667 0.583333
vt 0.708333 0.583333
vt 0.791667 0.666667
vt 0.708333 0.666667
vt 0.625000 0.666667
vt 0.625000 0.750000
vt 0.625000 0.416667
vt 0.708333 0.500000
vt 0.625000 0.500000
vt 0.625000 0.583333
vt 0.708333 0.583333
vt 0.708333 0.666667
vt 0.708333 0.750000
vt 0.625000 0.833333
vt 0.625000 0.500000
vt 0.625000 0.500000
vt 0.625000 0.500000
vt 0.625000 0.500000
vt 0.625000 0.583333
vt 0.625000 0.583333
vt 0.625000 0.583333
vt 0.625000 0.583333
vt 0.708333 0.500000
vt 0.625000 0.416667
vt 0.708333 0.500000
vt 0.625000 0.416667
vt 0.708333 0.500000
vt 0.625000 0.416667
vt 0.708333 0.500000
vt 0.625000 0.416667
vt 0.708333 0.583333
vt 0.708333 0.583333
vt 0.708333 0.583333
vt 0.708333 0.583333
vt 0.625000 0.833333
vt 0.708333 0.750000
vt 0.625000 0.833333
vt 0.708333 0.750000
vt 0.625000 0.833333
vt 0.708333 0.750000
vt 0.625000 0.833333
vt 0.708333 0.750000
vt 0.708333 0.666667
vt 0.708333 0.666667
vt 0.708333 0.666667
vt 0.708333 0.666667
vt 0.625000 0.750000
vt 0.625000 0.750000
vt 0.625000 0.750000
vt 0.625000 0.750000
vt 0.625000 0.666667
vt 0.625000 0.666667
vt 0.625000 0.666667
vt 0.625000 0.666667
vt 0.625000 0.666667
vt 0.625000 0.583333
vt 0.708333 0.666667
vt 0.708333 0.583333
vt 0.708333 0.666667
vt 0.708333 0.583333
vt 0.625000 0.583333
vt 0.625000 0.666667
vt 0.625000 0.666667
vt 0.625000 0.583333
vt 0.125000 0.500000
vt 0.375000 0.250000
vt 0.208333 0.500000
vt 0.375000 0.333333
vt 0.125000 0.750000
vt 0.375000 0.000000
vt 0.375000 1.000000
vt 0.708333 0.666667
vt 0.708333 0.583333
vt 0.708333 0.666667
vt 0.708333 0.583333
vt 0.625000 0.666667
vt 0.625000 0.583333
vt 0.375000 0.083333
vt 0.125000 0.666667
vt 0.375000 0.833333
vt 0.291667 0.750000
vt 0.375000 0.750000
vt 0.375000 0.583333
vt 0.375000 0.500000
vt 0.375000 0.166667
vt 0.125000 0.583333
vt 0.375000 0.666667
vt 0.208333 0.583333
vt 0.208333 0.666667
vt 0.375000 0.416667
vt 0.291667 0.500000
vt 0.208333 0.750000
vt 0.375000 0.916667
vt 0.291667 0.583333
vt 0.291667 0.666667
s 0
usemtl Material
f 31/47/1 13/20/1 7/8/1 20/32/1
f 21/34/2 20/31/2 7/9/2 8/12/2
f 9/13/3 14/21/3 5/6/3 6/7/3
f 16/24/2 25/41/2 95/138/2 87/127/2
f 15/23/4 12/18/4 3/3/4 4/4/4
f 17/25/5 24/40/5 1/1/5 2/2/5
f 2/2/4 1/1/4 11/17/4 16/24/4
f 16/24/4 11/17/4 12/18/4 15/23/4
f 17/25/5 2/2/5 88/128/5 93/134/5
f 25/41/6 16/24/6 15/23/6 27/43/6
f 8/11/3 7/10/3 13/19/3 10/15/3
f 10/15/3 13/19/3 14/21/3 9/13/3
f 23/37/1 5/5/1 14/22/1 29/45/1
f 29/45/1 14/22/1 13/20/1 31/47/1
f 11/17/1 30/46/1 32/48/1 12/18/1
f 30/46/1 29/45/1 31/47/1 32/48/1
f 45/63/4 44/62/4 36/53/4 37/54/4
f 24/39/1 23/37/1 29/45/1 30/46/1
f 9/14/6 26/42/6 28/44/6 10/16/6
f 26/42/6 25/41/6 27/43/6 28/44/6
f 18/27/4 26/42/4 91/132/4 79/111/4
f 18/27/6 17/26/6 25/41/6 26/42/6
f 6/7/5 5/6/5 23/38/5 18/28/5
f 18/28/5 23/38/5 24/40/5 17/25/5
f 9/13/3 6/7/3 78/110/3 89/129/3
f 28/44/6 27/43/6 22/36/6 21/33/6
f 4/4/2 3/3/2 19/29/2 22/35/2
f 22/35/2 19/29/2 20/31/2 21/34/2
f 61/87/3 60/86/3 40/57/3 39/56/3
f 32/48/1 31/47/1 20/32/1 19/30/1
f 36/53/1 35/52/1 38/55/1 37/54/1
f 33/49/1 39/56/1 40/57/1 34/50/1
f 44/62/5 52/74/5 35/51/5 36/53/5
f 60/85/2 68/94/2 34/50/2 40/58/2
f 53/75/2 45/63/2 37/54/2 38/55/2
f 52/73/3 53/75/3 38/55/3 35/52/3
f 68/94/4 72/98/4 33/49/4 34/50/4
f 72/98/5 61/87/5 39/56/5 33/49/5
f 24/39/3 30/46/3 56/78/3 49/67/3
f 49/67/3 56/78/3 55/77/3 50/69/3
f 50/69/3 55/77/3 54/76/3 51/71/3
f 51/71/3 54/76/3 53/75/3 52/73/3
f 30/46/2 11/17/2 48/66/2 56/78/2
f 70/96/4 69/95/4 83/120/4 77/107/4
f 55/77/2 47/65/2 46/64/2 54/76/2
f 62/88/3 61/87/3 74/101/3 75/103/3
f 1/1/5 24/40/5 49/68/5 41/59/5
f 41/59/5 49/68/5 50/70/5 42/60/5
f 42/60/5 50/70/5 51/72/5 43/61/5
f 43/61/5 51/72/5 52/74/5 44/62/5
f 11/17/4 1/1/4 41/59/4 48/66/4
f 48/66/4 41/59/4 42/60/4 47/65/4
f 47/65/4 42/60/4 43/61/4 46/64/4
f 46/64/4 43/61/4 44/62/4 45/63/4
f 12/18/5 32/48/5 64/90/5 69/95/5
f 63/89/1 70/96/1 77/107/1 81/116/1
f 70/96/5 63/89/5 62/88/5 71/97/5
f 71/97/6 62/88/6 75/103/6 76/106/6
f 3/3/4 12/18/4 69/95/4 65/91/4
f 65/91/4 69/95/4 70/96/4 66/92/4
f 66/92/4 70/96/4 71/97/4 67/93/4
f 67/93/4 71/97/4 72/98/4 68/94/4
f 19/29/2 3/3/2 65/91/2 57/79/2
f 57/79/2 65/91/2 66/92/2 58/81/2
f 58/81/2 66/92/2 67/93/2 59/83/2
f 59/83/2 67/93/2 68/94/2 60/85/2
f 32/48/3 19/30/3 57/80/3 64/90/3
f 64/90/3 57/80/3 58/82/3 63/89/3
f 63/89/3 58/82/3 59/84/3 62/88/3
f 62/88/3 59/84/3 60/86/3 61/87/3
f 75/104/2 76/105/2 73/100/2 74/102/2
f 53/75/3 54/76/3 75/104/3 74/102/3
f 54/76/6 46/64/6 76/105/6 75/104/6
f 61/87/1 72/98/1 73/99/1 74/101/1
f 46/64/4 45/63/4 73/100/4 76/105/4
f 72/98/4 71/97/4 76/106/4 73/99/4
f 45/63/1 53/75/1 74/102/1 73/100/1
f 82/119/2 83/121/2 77/108/2 81/117/2
f 96/139/6 90/131/6 86/126/6 85/125/6
f 47/65/1 55/77/1 81/117/1 77/108/1
f 64/90/3 63/89/3 81/116/3 82/118/3
f 69/95/6 64/90/6 82/118/6 83/120/6
f 55/77/3 56/78/3 82/119/3 81/117/3
f 56/78/6 48/66/6 83/121/6 82/119/6
f 48/66/4 47/65/4 77/108/4 83/121/4
f 93/135/6 88/128/6 87/127/6 95/138/6
f 78/109/6 79/111/6 91/132/6 89/130/6
f 84/123/6 92/133/6 94/136/6 80/113/6
f 25/41/3 17/26/3 93/135/3 95/138/3
f 26/42/2 9/14/2 89/130/2 91/132/2
f 8/11/3 10/15/3 84/122/3 80/114/3
f 4/4/2 22/35/2 85/124/2 86/126/2
f 10/16/5 28/44/5 92/133/5 84/123/5
f 6/7/5 18/28/5 79/112/5 78/110/5
f 27/43/5 15/23/5 90/131/5 96/139/5
f 28/44/4 21/33/4 94/136/4 92/133/4
f 21/34/2 8/12/2 80/115/2 94/137/2
f 22/36/3 27/43/3 96/139/3 85/125/3
f 15/23/4 4/4/4 86/126/4 90/131/4
f 2/2/4 16/24/4 87/127/4 88/128/4
