# Blender 4.3.2
# www.blender.org
mtllib боковые комнаты комнаты.mtl
o Куб.002
v -76.671928 0.021589 -10.650160
v -76.671928 0.095284 -10.650160
v -76.671928 0.021589 -41.310425
v -76.671928 0.095284 -41.310425
v -25.995956 0.021589 -10.650160
v -25.995956 0.095284 -10.650160
v -25.995956 0.021589 -41.310425
v -25.995956 0.095284 -41.310425
v -76.671928 0.021589 -11.224630
v -76.671928 0.095284 -11.224630
v -25.995956 0.021589 -11.224630
v -25.995956 0.095284 -11.224630
v -76.671928 0.095284 -40.588455
v -25.995956 0.021589 -40.588455
v -76.671928 0.021589 -40.588455
v -25.995956 0.095284 -40.588455
v -26.629793 0.021589 -41.310425
v -26.629793 0.095284 -41.310425
v -26.629793 0.021589 -10.650160
v -26.629793 0.095284 -10.650160
v -26.629793 0.095284 -11.224630
v -26.629793 0.021589 -11.224630
v -26.629793 0.021589 -40.588455
v -26.629793 0.095284 -40.588455
v -75.656570 0.021589 -41.310425
v -75.656570 0.095284 -10.650160
v -75.656570 0.021589 -11.224630
v -75.656570 0.021589 -40.588455
v -75.656570 0.095284 -41.310425
v -75.656570 0.021589 -10.650160
v -75.656570 0.095284 -11.224630
v -75.656570 0.095284 -40.588455
v -75.656570 19.939096 -41.310425
v -76.671928 19.939096 -41.310425
v -26.629793 20.012791 -41.310425
v -25.995956 20.012791 -41.310425
v -25.995956 20.012791 -11.224630
v -25.995956 20.012791 -10.650160
v -75.656570 20.012791 -10.650160
v -76.671928 20.012791 -10.650160
v -76.671928 19.939096 -40.588455
v -76.671928 19.939096 -11.224630
v -76.671928 20.012791 -11.224630
v -25.995956 20.012791 -40.588455
v -26.629793 20.012791 -11.224630
v -75.656570 19.939096 -11.224630
v -75.656570 19.939096 -40.588455
v -26.629793 20.012791 -40.588455
v -75.656570 20.012791 -41.310425
v -26.629793 20.012791 -10.650160
v -75.656570 20.012791 -11.224630
v -75.656570 20.012791 -40.588455
v -76.671928 0.021589 -30.459318
v -25.995956 0.095284 -30.459318
v -76.671928 0.095284 -30.459318
v -25.995956 0.021589 -30.459318
v -26.629793 0.021589 -30.459318
v -26.629793 0.095284 -30.459318
v -75.656570 0.021589 -30.459318
v -75.656570 0.095284 -30.459318
v -76.671928 19.939096 -30.459318
v -25.995956 20.012791 -30.459318
v -26.629793 20.012791 -30.459318
v -75.656570 19.939096 -30.459318
v -76.671928 0.021589 -24.434502
v -25.995956 0.095284 -24.434502
v -26.629793 0.021589 -24.434502
v -26.629793 0.095284 -24.434502
v -75.656570 0.021589 -24.434502
v -75.656570 0.095284 -24.434502
v -76.671928 19.939096 -24.434502
v -25.995956 20.012791 -24.434502
v -26.629793 20.012791 -24.434502
v -75.656570 19.939096 -24.434502
v -76.671928 0.095284 -24.434502
v -25.995956 0.021589 -24.434502
v -75.656570 19.984541 -30.459318
v -76.671928 19.984541 -30.459318
v -75.656570 19.984541 -24.434502
v -76.671928 19.984541 -40.588455
v -75.656570 19.984541 -40.588455
v -75.656570 19.984541 -11.224630
v -76.671928 19.984541 -11.224630
v -76.671928 19.984541 -24.434502
v -26.629793 20.178455 -41.310425
v -25.995956 20.178455 -41.310425
v -25.995956 20.178455 -11.224630
v -25.995956 20.178455 -10.650160
v -25.995956 20.178455 -24.434502
v -26.629793 20.178455 -11.224630
v -25.995956 20.178455 -40.588455
v -26.629793 20.178455 -40.588455
v -26.629793 20.178455 -10.650160
v -26.629793 20.178455 -24.434502
v -25.995956 20.178455 -30.459318
v -26.629793 20.178455 -30.459318
v -76.774277 20.012791 -41.310425
v -76.774277 20.012791 -40.588455
v -76.774277 20.012791 -24.434502
v -76.774277 20.012791 -11.224630
v -76.774277 20.012791 -10.650160
v -76.774277 20.012791 -30.459318
v -76.774277 20.178455 -11.224630
v -76.774277 20.178455 -10.650160
v -76.774277 20.178455 -41.310425
v -76.774277 20.178455 -40.588455
v -76.774277 20.178455 -24.434502
v -76.774277 20.178455 -30.459318
v -75.656570 20.008759 -24.434502
v -76.671928 20.008759 -24.434502
v -75.656570 20.008759 -30.459318
v -76.671928 20.008759 -30.459318
v -75.656570 20.008759 -40.588455
v -76.671928 20.008759 -40.588455
v -75.656570 20.008759 -11.224630
v -76.671928 20.008759 -11.224630
v -75.656570 5.977377 -41.310425
v -75.656570 5.977377 -40.588455
v -26.629793 5.977377 -41.310425
v -25.995956 5.977377 -41.310425
v -26.629793 5.977377 -40.588455
v -76.671928 5.977377 -11.224630
v -75.656570 5.977377 -11.224630
v -76.671928 5.977377 -10.650160
v -25.995956 5.977377 -40.588455
v -25.995956 5.977377 -11.224630
v -26.629793 5.977377 -10.650160
v -75.656570 5.977377 -10.650160
v -25.995956 5.977377 -10.650160
v -26.629793 5.977377 -11.224630
v -26.629793 5.977377 -30.459318
v -25.995956 5.977377 -30.459318
v -25.995956 5.977377 -24.434502
v -26.629793 5.977377 -24.434502
v -25.967077 0.095284 -30.459318
v -25.967077 0.095284 -24.434502
v -25.967077 5.977377 -30.459318
v -25.967077 5.977377 -24.434502
v 75.582207 0.021589 -10.650160
v 75.582207 0.095284 -10.650160
v 75.582207 0.021589 -41.310425
v 75.582207 0.095284 -41.310425
v 24.906231 0.021589 -10.650160
v 24.906231 0.095284 -10.650160
v 24.906231 0.021589 -41.310425
v 24.906231 0.095284 -41.310425
v 75.582207 0.021589 -11.224630
v 75.582207 0.095284 -11.224630
v 24.906231 0.021589 -11.224630
v 24.906231 0.095284 -11.224630
v 75.582207 0.095284 -40.588455
v 24.906231 0.021589 -40.588455
v 75.582207 0.021589 -40.588455
v 24.906231 0.095284 -40.588455
v 25.540068 0.021589 -41.310425
v 25.540068 0.095284 -41.310425
v 25.540068 0.021589 -10.650160
v 25.540068 0.095284 -10.650160
v 25.540068 0.095284 -11.224630
v 25.540068 0.021589 -11.224630
v 25.540068 0.021589 -40.588455
v 25.540068 0.095284 -40.588455
v 74.566849 0.021589 -41.310425
v 74.566849 0.095284 -10.650160
v 74.566849 0.021589 -11.224630
v 74.566849 0.021589 -40.588455
v 74.566849 0.095284 -41.310425
v 74.566849 0.021589 -10.650160
v 74.566849 0.095284 -11.224630
v 74.566849 0.095284 -40.588455
v 74.566849 19.939096 -41.310425
v 75.582207 19.939096 -41.310425
v 25.540068 20.012791 -41.310425
v 24.906231 20.012791 -41.310425
v 24.906231 20.012791 -11.224630
v 24.906231 20.012791 -10.650160
v 74.566849 20.012791 -10.650160
v 75.582207 20.012791 -10.650160
v 75.582207 19.939096 -40.588455
v 75.582207 19.939096 -11.224630
v 75.582207 20.012791 -11.224630
v 24.906231 20.012791 -40.588455
v 25.540068 20.012791 -11.224630
v 74.566849 19.939096 -11.224630
v 74.566849 19.939096 -40.588455
v 25.540068 20.012791 -40.588455
v 74.566849 20.012791 -41.310425
v 25.540068 20.012791 -10.650160
v 74.566849 20.012791 -11.224630
v 74.566849 20.012791 -40.588455
v 75.582207 0.021589 -30.459318
v 24.906231 0.095284 -30.459318
v 75.582207 0.095284 -30.459318
v 24.906231 0.021589 -30.459318
v 25.540068 0.021589 -30.459318
v 25.540068 0.095284 -30.459318
v 74.566849 0.021589 -30.459318
v 74.566849 0.095284 -30.459318
v 75.582207 19.939096 -30.459318
v 24.906231 20.012791 -30.459318
v 25.540068 20.012791 -30.459318
v 74.566849 19.939096 -30.459318
v 75.582207 0.021589 -24.434502
v 24.906231 0.095284 -24.434502
v 25.540068 0.021589 -24.434502
v 25.540068 0.095284 -24.434502
v 74.566849 0.021589 -24.434502
v 74.566849 0.095284 -24.434502
v 75.582207 19.939096 -24.434502
v 24.906231 20.012791 -24.434502
v 25.540068 20.012791 -24.434502
v 74.566849 19.939096 -24.434502
v 75.582207 0.095284 -24.434502
v 24.906231 0.021589 -24.434502
v 74.566849 19.984541 -30.459318
v 75.582207 19.984541 -30.459318
v 74.566849 19.984541 -24.434502
v 75.582207 19.984541 -40.588455
v 74.566849 19.984541 -40.588455
v 74.566849 19.984541 -11.224630
v 75.582207 19.984541 -11.224630
v 75.582207 19.984541 -24.434502
v 25.540068 20.178455 -41.310425
v 24.906231 20.178455 -41.310425
v 24.906231 20.178455 -11.224630
v 24.906231 20.178455 -10.650160
v 24.906231 20.178455 -24.434502
v 25.540068 20.178455 -11.224630
v 24.906231 20.178455 -40.588455
v 25.540068 20.178455 -40.588455
v 25.540068 20.178455 -10.650160
v 25.540068 20.178455 -24.434502
v 24.906231 20.178455 -30.459318
v 25.540068 20.178455 -30.459318
v 75.684555 20.012791 -41.310425
v 75.684555 20.012791 -40.588455
v 75.684555 20.012791 -24.434502
v 75.684555 20.012791 -11.224630
v 75.684555 20.012791 -10.650160
v 75.684555 20.012791 -30.459318
v 75.684555 20.178455 -11.224630
v 75.684555 20.178455 -10.650160
v 75.684555 20.178455 -41.310425
v 75.684555 20.178455 -40.588455
v 75.684555 20.178455 -24.434502
v 75.684555 20.178455 -30.459318
v 74.566849 20.008759 -24.434502
v 75.582207 20.008759 -24.434502
v 74.566849 20.008759 -30.459318
v 75.582207 20.008759 -30.459318
v 74.566849 20.008759 -40.588455
v 75.582207 20.008759 -40.588455
v 74.566849 20.008759 -11.224630
v 75.582207 20.008759 -11.224630
v 74.566849 5.977377 -41.310425
v 74.566849 5.977377 -40.588455
v 25.540068 5.977377 -41.310425
v 24.906231 5.977377 -41.310425
v 25.540068 5.977377 -40.588455
v 75.582207 5.977377 -11.224630
v 74.566849 5.977377 -11.224630
v 75.582207 5.977377 -10.650160
v 24.906231 5.977377 -40.588455
v 24.906231 5.977377 -11.224630
v 25.540068 5.977377 -10.650160
v 74.566849 5.977377 -10.650160
v 24.906231 5.977377 -10.650160
v 25.540068 5.977377 -11.224630
v 25.540068 5.977377 -30.459318
v 24.906231 5.977377 -30.459318
v 24.906231 5.977377 -24.434502
v 25.540068 5.977377 -24.434502
v 24.877352 0.095284 -30.459318
v 24.877352 0.095284 -24.434502
v 24.877352 5.977377 -30.459318
v 24.877352 5.977377 -24.434502
vn -1.0000 -0.0000 -0.0000
vn -0.0000 -0.0000 -1.0000
vn 1.0000 -0.0000 -0.0000
vn -0.0000 -0.0000 1.0000
vn -0.0000 -1.0000 -0.0000
vn -0.0000 1.0000 -0.0000
vt 0.375000 0.244113
vt 0.625000 0.244113
vt 0.625000 0.250000
vt 0.375000 0.250000
vt 0.375000 0.496873
vt 0.625000 0.496873
vt 0.625000 0.500000
vt 0.375000 0.500000
vt 0.375000 0.745316
vt 0.625000 0.745316
vt 0.625000 0.750000
vt 0.375000 0.750000
vt 0.375000 0.994991
vt 0.625000 0.994991
vt 0.625000 1.000000
vt 0.375000 1.000000
vt 0.371873 0.745316
vt 0.371873 0.750000
vt 0.130009 0.637604
vt 0.130009 0.745316
vt 0.869991 0.637604
vt 0.875000 0.637604
vt 0.875000 0.745316
vt 0.869991 0.745316
vt 0.371873 0.637604
vt 0.375000 0.637604
vt 0.625000 0.637604
vt 0.375000 0.000000
vt 0.625000 0.000000
vt 0.625000 0.004684
vt 0.375000 0.004684
vt 0.625000 0.505887
vt 0.375000 0.505887
vt 0.371873 0.500000
vt 0.371873 0.505887
vt 0.869991 0.500000
vt 0.875000 0.500000
vt 0.875000 0.505887
vt 0.869991 0.505887
vt 0.375000 0.161521
vt 0.625000 0.161521
vt 0.625000 0.255009
vt 0.130009 0.500000
vt 0.130009 0.505887
vt 0.875000 0.745316
vt 0.130009 0.750000
vt 0.625000 0.753127
vt 0.375000 0.753127
vt 0.375000 0.255009
vt 0.125000 0.745316
vt 0.125000 0.750000
vt 0.628127 0.505887
vt 0.628127 0.637604
vt 0.628127 0.745316
vt 0.875000 0.750000
vt 0.869991 0.750000
vt 0.625000 0.588479
vt 0.628127 0.750000
vt 0.125000 0.500000
vt 0.125000 0.505887
vt 0.628127 0.500000
vt 0.628127 0.637604
vt 0.130009 0.588479
vt 0.130009 0.588479
vt 0.628127 0.588479
vt 0.628127 0.588479
vt 0.375000 0.112396
vt 0.869991 0.588479
vt 0.375000 0.112396
vt 0.371873 0.588479
vt 0.625000 0.112396
vt 0.375000 0.588479
vt 0.875000 0.588479
vt 0.125000 0.637604
vt 0.125000 0.588479
s 0
f 15/1/1 13/2/1 4/3/1 3/4/1
f 17/5/2 18/6/2 8/7/2 7/8/2
f 11/9/3 12/10/3 6/11/3 5/12/3
f 30/13/4 26/14/4 2/15/4 1/16/4
f 22/17/5 11/9/5 5/12/5 19/18/5
f 79/19/1 82/20/1 115/20/1 109/19/1
f 70/21/6 75/22/6 10/23/6 31/24/6
f 67/25/5 76/26/5 11/9/5 22/17/5
f 76/26/3 66/27/3 12/10/3 11/9/3
f 1/28/1 2/29/1 10/30/1 9/31/1
f 7/8/3 8/7/3 16/32/3 14/33/3
f 17/34/5 7/8/5 14/33/5 23/35/5
f 29/36/6 4/37/6 13/38/6 32/39/6
f 53/40/1 55/41/1 13/2/1 15/1/1
f 119/6/2 117/42/2 49/42/2 35/6/2
f 25/43/5 17/34/5 23/35/5 28/44/5
f 69/19/5 67/25/5 22/17/5 27/20/5
f 122/30/1 124/29/1 40/29/1 43/30/1
f 123/24/2 122/45/2 43/23/2 51/24/2
f 27/20/5 22/17/5 19/18/5 30/46/5
f 5/12/4 6/11/4 20/47/4 19/48/4
f 25/49/2 29/42/2 18/6/2 17/5/2
f 3/4/2 4/3/2 29/42/2 25/49/2
f 9/50/5 27/20/5 30/46/5 1/51/5
f 118/39/4 121/52/4 48/52/4 52/39/4
f 53/40/3 15/1/3 41/1/3 61/40/3
f 120/7/2 119/6/2 35/6/2 36/7/2
f 68/53/6 70/21/6 31/24/6 21/54/6
f 3/4/4 25/49/4 33/49/4 34/4/4
f 19/48/4 20/47/4 26/14/4 30/13/4
f 51/24/6 43/23/6 40/55/6 39/56/6
f 72/27/3 62/57/3 95/57/3 89/27/3
f 37/10/3 72/27/3 89/27/3 87/10/3
f 93/58/6 90/54/6 103/54/6 104/58/6
f 61/40/3 41/1/3 80/1/3 78/40/3
f 34/59/5 33/43/5 47/44/5 41/60/5
f 35/61/6 49/36/6 52/39/6 48/52/6
f 45/54/6 51/24/6 39/56/6 50/58/6
f 15/1/3 3/4/3 34/4/3 41/1/3
f 117/36/1 118/39/1 52/39/1 49/36/1
f 132/57/3 125/32/3 44/32/3 62/57/3
f 128/14/4 127/47/4 50/47/4 39/14/4
f 129/11/3 126/10/3 37/10/3 38/11/3
f 125/32/3 120/7/3 36/7/3 44/32/3
f 127/47/4 129/11/4 38/11/4 50/47/4
f 69/19/1 27/20/1 46/20/1 74/19/1
f 27/20/2 9/50/2 42/50/2 46/20/2
f 134/53/1 130/54/1 45/54/1 73/62/1
f 25/43/1 28/44/1 47/44/1 33/43/1
f 130/54/2 123/24/2 51/24/2 45/54/2
f 28/44/1 59/63/1 64/64/1 47/44/1
f 124/15/4 128/14/4 39/14/4 40/15/4
f 121/52/1 131/65/1 63/66/1 48/52/1
f 71/67/3 61/40/3 78/40/3 84/67/3
f 38/11/3 37/10/3 87/10/3 88/11/3
f 24/52/6 32/39/6 60/68/6 58/65/6
f 65/69/3 53/40/3 61/40/3 71/67/3
f 28/44/5 23/35/5 57/70/5 59/63/5
f 65/69/1 75/71/1 55/41/1 53/40/1
f 14/33/3 16/32/3 54/57/3 56/72/3
f 23/35/5 14/33/5 56/72/5 57/70/5
f 32/39/6 13/38/6 55/73/6 60/68/6
f 9/31/1 10/30/1 75/71/1 65/69/1
f 9/31/3 65/69/3 71/67/3 42/31/3
f 133/27/3 132/57/3 62/57/3 72/27/3
f 59/63/1 69/19/1 74/19/1 64/64/1
f 126/10/3 133/27/3 72/27/3 37/10/3
f 46/20/2 42/50/2 83/50/2 82/20/2
f 48/52/5 63/66/5 102/66/5 98/52/5
f 58/65/6 60/68/6 70/21/6 68/53/6
f 59/63/5 57/70/5 67/25/5 69/19/5
f 56/72/3 54/57/3 66/27/3 76/26/3
f 57/70/5 56/72/5 76/26/5 67/25/5
f 60/68/6 55/73/6 75/22/6 70/21/6
f 47/44/1 64/64/1 77/64/1 81/44/1
f 64/64/1 74/19/1 79/19/1 77/64/1
f 74/19/1 46/20/1 82/20/1 79/19/1
f 41/60/4 47/44/4 81/44/4 80/60/4
f 42/31/3 71/67/3 84/67/3 83/31/3
f 77/64/1 79/19/1 109/19/1 111/64/1
f 78/40/3 80/1/3 114/1/3 112/40/3
f 131/65/1 134/53/1 73/62/1 63/66/1
f 86/7/6 85/61/6 92/52/6 91/32/6
f 89/27/6 94/62/6 90/54/6 87/10/6
f 87/10/6 90/54/6 93/58/6 88/11/6
f 91/32/6 92/52/6 96/66/6 95/57/6
f 95/57/6 96/66/6 94/62/6 89/27/6
f 44/32/3 36/7/3 86/7/3 91/32/3
f 85/6/2 35/6/2 97/6/2 105/6/2
f 50/47/4 38/11/4 88/11/4 93/47/4
f 45/54/5 50/58/5 101/58/5 100/54/5
f 36/7/2 35/6/2 85/6/2 86/7/2
f 90/54/6 94/62/6 107/62/6 103/54/6
f 62/57/3 44/32/3 91/32/3 95/57/3
f 98/52/1 102/66/1 108/66/1 106/52/1
f 100/54/1 101/58/1 104/58/1 103/54/1
f 97/61/1 98/52/1 106/52/1 105/61/1
f 102/66/1 99/62/1 107/62/1 108/66/1
f 99/62/1 100/54/1 103/54/1 107/62/1
f 35/61/5 48/52/5 98/52/5 97/61/5
f 50/47/4 93/47/4 104/47/4 101/47/4
f 63/66/5 73/62/5 99/62/5 102/66/5
f 92/52/6 85/61/6 105/61/6 106/52/6
f 94/62/6 96/66/6 108/66/6 107/62/6
f 73/62/5 45/54/5 100/54/5 99/62/5
f 96/66/6 92/52/6 106/52/6 108/66/6
f 110/74/5 109/19/5 115/20/5 116/50/5
f 112/75/5 111/64/5 109/19/5 110/74/5
f 114/60/5 113/44/5 111/64/5 112/75/5
f 83/31/3 84/67/3 110/67/3 116/31/3
f 81/44/1 77/64/1 111/64/1 113/44/1
f 82/20/2 83/50/2 116/50/2 115/20/2
f 84/67/3 78/40/3 112/40/3 110/67/3
f 80/60/4 81/44/4 113/44/4 114/60/4
f 68/53/2 134/53/2 138/53/2 136/53/2
f 12/10/3 66/27/3 133/27/3 126/10/3
f 24/52/1 58/65/1 131/65/1 121/52/1
f 2/15/4 26/14/4 128/14/4 124/15/4
f 21/54/2 31/24/2 123/24/2 130/54/2
f 68/53/1 21/54/1 130/54/1 134/53/1
f 20/47/4 6/11/4 129/11/4 127/47/4
f 16/32/3 8/7/3 120/7/3 125/32/3
f 6/11/3 12/10/3 126/10/3 129/11/3
f 26/14/4 20/47/4 127/47/4 128/14/4
f 54/57/3 16/32/3 125/32/3 132/57/3
f 29/36/1 32/39/1 118/39/1 117/36/1
f 8/7/2 18/6/2 119/6/2 120/7/2
f 32/39/4 24/52/4 121/52/4 118/39/4
f 31/24/2 10/23/2 122/45/2 123/24/2
f 10/30/1 2/29/1 124/29/1 122/30/1
f 18/6/2 29/42/2 117/42/2 119/6/2
f 58/65/6 68/53/6 136/53/6 135/65/6
f 134/53/5 131/65/5 137/65/5 138/53/5
f 131/65/4 58/65/4 135/65/4 137/65/4
f 153/1/3 141/4/3 142/3/3 151/2/3
f 155/5/2 145/8/2 146/7/2 156/6/2
f 149/9/1 143/12/1 144/11/1 150/10/1
f 168/13/4 139/16/4 140/15/4 164/14/4
f 160/17/5 157/18/5 143/12/5 149/9/5
f 217/19/3 247/19/3 253/20/3 220/20/3
f 208/21/6 169/24/6 148/23/6 213/22/6
f 205/25/5 160/17/5 149/9/5 214/26/5
f 214/26/1 149/9/1 150/10/1 204/27/1
f 139/28/3 147/31/3 148/30/3 140/29/3
f 145/8/1 152/33/1 154/32/1 146/7/1
f 155/34/5 161/35/5 152/33/5 145/8/5
f 167/36/6 170/39/6 151/38/6 142/37/6
f 191/40/3 153/1/3 151/2/3 193/41/3
f 257/6/2 173/6/2 187/42/2 255/42/2
f 163/43/5 166/44/5 161/35/5 155/34/5
f 207/19/5 165/20/5 160/17/5 205/25/5
f 260/30/3 181/30/3 178/29/3 262/29/3
f 261/24/2 189/24/2 181/23/2 260/45/2
f 165/20/5 168/46/5 157/18/5 160/17/5
f 143/12/4 157/48/4 158/47/4 144/11/4
f 163/49/2 155/5/2 156/6/2 167/42/2
f 141/4/2 163/49/2 167/42/2 142/3/2
f 147/50/5 139/51/5 168/46/5 165/20/5
f 256/39/4 190/39/4 186/52/4 259/52/4
f 191/40/1 199/40/1 179/1/1 153/1/1
f 258/7/2 174/7/2 173/6/2 257/6/2
f 206/53/6 159/54/6 169/24/6 208/21/6
f 141/4/4 172/4/4 171/49/4 163/49/4
f 157/48/4 168/13/4 164/14/4 158/47/4
f 189/24/6 177/56/6 178/55/6 181/23/6
f 210/27/1 227/27/1 233/57/1 200/57/1
f 175/10/1 225/10/1 227/27/1 210/27/1
f 231/58/6 242/58/6 241/54/6 228/54/6
f 199/40/1 216/40/1 218/1/1 179/1/1
f 172/59/5 179/60/5 185/44/5 171/43/5
f 173/61/6 186/52/6 190/39/6 187/36/6
f 183/54/6 188/58/6 177/56/6 189/24/6
f 153/1/1 179/1/1 172/4/1 141/4/1
f 255/36/3 187/36/3 190/39/3 256/39/3
f 270/57/1 200/57/1 182/32/1 263/32/1
f 266/14/4 177/14/4 188/47/4 265/47/4
f 267/11/1 176/11/1 175/10/1 264/10/1
f 263/32/1 182/32/1 174/7/1 258/7/1
f 265/47/4 188/47/4 176/11/4 267/11/4
f 207/19/3 212/19/3 184/20/3 165/20/3
f 165/20/2 184/20/2 180/50/2 147/50/2
f 272/53/3 211/62/3 183/54/3 268/54/3
f 163/43/3 171/43/3 185/44/3 166/44/3
f 268/54/2 183/54/2 189/24/2 261/24/2
f 166/44/3 185/44/3 202/64/3 197/63/3
f 262/15/4 178/15/4 177/14/4 266/14/4
f 259/52/3 186/52/3 201/66/3 269/65/3
f 209/67/1 222/67/1 216/40/1 199/40/1
f 176/11/1 226/11/1 225/10/1 175/10/1
f 162/52/6 196/65/6 198/68/6 170/39/6
f 203/69/1 209/67/1 199/40/1 191/40/1
f 166/44/5 197/63/5 195/70/5 161/35/5
f 203/69/3 191/40/3 193/41/3 213/71/3
f 152/33/1 194/72/1 192/57/1 154/32/1
f 161/35/5 195/70/5 194/72/5 152/33/5
f 170/39/6 198/68/6 193/73/6 151/38/6
f 147/31/3 203/69/3 213/71/3 148/30/3
f 147/31/1 180/31/1 209/67/1 203/69/1
f 271/27/1 210/27/1 200/57/1 270/57/1
f 197/63/3 202/64/3 212/19/3 207/19/3
f 264/10/1 175/10/1 210/27/1 271/27/1
f 184/20/2 220/20/2 221/50/2 180/50/2
f 186/52/5 236/52/5 240/66/5 201/66/5
f 196/65/6 206/53/6 208/21/6 198/68/6
f 197/63/5 207/19/5 205/25/5 195/70/5
f 194/72/1 214/26/1 204/27/1 192/57/1
f 195/70/5 205/25/5 214/26/5 194/72/5
f 198/68/6 208/21/6 213/22/6 193/73/6
f 185/44/3 219/44/3 215/64/3 202/64/3
f 202/64/3 215/64/3 217/19/3 212/19/3
f 212/19/3 217/19/3 220/20/3 184/20/3
f 179/60/4 218/60/4 219/44/4 185/44/4
f 180/31/1 221/31/1 222/67/1 209/67/1
f 215/64/3 249/64/3 247/19/3 217/19/3
f 216/40/1 250/40/1 252/1/1 218/1/1
f 269/65/3 201/66/3 211/62/3 272/53/3
f 224/7/6 229/32/6 230/52/6 223/61/6
f 227/27/6 225/10/6 228/54/6 232/62/6
f 225/10/6 226/11/6 231/58/6 228/54/6
f 229/32/6 233/57/6 234/66/6 230/52/6
f 233/57/6 227/27/6 232/62/6 234/66/6
f 182/32/1 229/32/1 224/7/1 174/7/1
f 223/6/2 243/6/2 235/6/2 173/6/2
f 188/47/4 231/47/4 226/11/4 176/11/4
f 183/54/5 238/54/5 239/58/5 188/58/5
f 174/7/2 224/7/2 223/6/2 173/6/2
f 228/54/6 241/54/6 245/62/6 232/62/6
f 200/57/1 233/57/1 229/32/1 182/32/1
f 236/52/3 244/52/3 246/66/3 240/66/3
f 238/54/3 241/54/3 242/58/3 239/58/3
f 235/61/3 243/61/3 244/52/3 236/52/3
f 240/66/3 246/66/3 245/62/3 237/62/3
f 237/62/3 245/62/3 241/54/3 238/54/3
f 173/61/5 235/61/5 236/52/5 186/52/5
f 188/47/4 239/47/4 242/47/4 231/47/4
f 201/66/5 240/66/5 237/62/5 211/62/5
f 230/52/6 244/52/6 243/61/6 223/61/6
f 232/62/6 245/62/6 246/66/6 234/66/6
f 211/62/5 237/62/5 238/54/5 183/54/5
f 234/66/6 246/66/6 244/52/6 230/52/6
f 248/74/5 254/50/5 253/20/5 247/19/5
f 250/75/5 248/74/5 247/19/5 249/64/5
f 252/60/5 250/75/5 249/64/5 251/44/5
f 221/31/1 254/31/1 248/67/1 222/67/1
f 219/44/3 251/44/3 249/64/3 215/64/3
f 220/20/2 253/20/2 254/50/2 221/50/2
f 222/67/1 248/67/1 250/40/1 216/40/1
f 218/60/4 252/60/4 251/44/4 219/44/4
f 206/53/2 274/53/2 276/53/2 272/53/2
f 150/10/1 264/10/1 271/27/1 204/27/1
f 162/52/3 259/52/3 269/65/3 196/65/3
f 140/15/4 262/15/4 266/14/4 164/14/4
f 159/54/2 268/54/2 261/24/2 169/24/2
f 206/53/3 272/53/3 268/54/3 159/54/3
f 158/47/4 265/47/4 267/11/4 144/11/4
f 154/32/1 263/32/1 258/7/1 146/7/1
f 144/11/1 267/11/1 264/10/1 150/10/1
f 164/14/4 266/14/4 265/47/4 158/47/4
f 192/57/1 270/57/1 263/32/1 154/32/1
f 167/36/3 255/36/3 256/39/3 170/39/3
f 146/7/2 258/7/2 257/6/2 156/6/2
f 170/39/4 256/39/4 259/52/4 162/52/4
f 169/24/2 261/24/2 260/45/2 148/23/2
f 148/30/3 260/30/3 262/29/3 140/29/3
f 156/6/2 257/6/2 255/42/2 167/42/2
f 196/65/6 273/65/6 274/53/6 206/53/6
f 272/53/5 276/53/5 275/65/5 269/65/5
f 269/65/4 275/65/4 273/65/4 196/65/4
