# Blender 4.3.2
# www.blender.org
mtllib грибочек.mtl
o Куб
v -0.280220 -0.772924 0.280220
v -0.500000 0.169884 0.500000
v -0.280220 -0.772924 -0.280220
v -0.500000 0.169884 -0.500000
v 0.280220 -0.772924 0.280220
v 0.500000 0.169884 0.500000
v 0.280220 -0.772924 -0.280220
v 0.500000 0.169884 -0.500000
v -0.666667 -0.273580 -0.666667
v -0.666667 -0.273580 0.666667
v 0.666667 -0.273580 -0.666667
v 0.666667 -0.273580 0.666667
v -0.316675 -2.288975 -0.316675
v -0.316675 -2.288975 0.316675
v 0.316675 -2.288975 -0.316675
v 0.316675 -2.288975 0.316675
v -0.439539 -0.386836 -0.439539
v -0.439539 -0.386836 0.439539
v 0.439539 -0.386836 -0.439539
v 0.439539 -0.386836 0.439539
v -0.638206 -0.575111 -0.638206
v -0.638206 -0.575111 0.638206
v 0.638206 -0.575111 -0.638206
v 0.638206 -0.575111 0.638206
v -0.524361 -0.575111 0.524361
v -0.524361 -0.575111 -0.524361
v 0.524361 -0.575111 -0.524361
v 0.524361 -0.575111 0.524361
v -0.916667 -0.273580 0.000000
v -0.638117 -0.013224 0.638117
v -0.609568 0.207111 0.000000
v -0.638117 -0.013224 -0.638117
v 0.000000 -0.273580 -0.916667
v -0.000000 0.207111 -0.609568
v 0.638117 -0.013224 -0.638117
v 0.916667 -0.273580 0.000000
v 0.609568 0.207111 0.000000
v 0.638117 -0.013224 0.638117
v 0.000000 -0.273580 0.916667
v -0.000000 0.207111 0.609568
v -0.385302 -0.772924 0.000000
v -0.000000 -0.772924 -0.385302
v 0.385302 -0.772924 -0.000000
v 0.000000 -0.772924 0.385302
v -0.335083 -0.399795 -0.335083
v -0.492413 -0.480973 -0.492413
v 0.335083 -0.399795 -0.335083
v 0.335083 -0.399795 0.335083
v -0.406428 -2.431355 0.000000
v -0.000000 -2.431355 -0.406428
v 0.406428 -2.431355 0.000000
v 0.000000 -2.431355 0.406428
v -0.334587 -1.611164 0.334587
v 0.334587 -1.611164 0.334587
v 0.334587 -1.611164 -0.334587
v -0.334587 -1.611164 -0.334587
v -0.492413 -0.480973 0.492413
v -0.335083 -0.399795 0.335083
v -0.663109 -0.466816 -0.663109
v 0.663109 -0.466816 -0.663109
v 0.000000 -0.386836 0.604367
v 0.604367 -0.386836 -0.000000
v -0.000000 -0.386836 -0.604367
v -0.604367 -0.386836 0.000000
v -0.877533 -0.575111 -0.000000
v 0.000000 -0.575111 -0.877533
v 0.877533 -0.575111 0.000000
v 0.000000 -0.575111 0.877533
v -0.581284 -0.610412 0.581284
v -0.581284 -0.610412 -0.581284
v 0.581284 -0.610412 -0.581284
v 0.581284 -0.610412 0.581284
v -0.000000 -0.575111 0.720997
v 0.720997 -0.575111 0.000000
v 0.000000 -0.575111 -0.720997
v -0.720997 -0.575111 -0.000000
v 0.492413 -0.480973 -0.492413
v 0.492413 -0.480973 0.492413
v -0.663109 -0.466816 0.663109
v 0.663109 -0.466816 0.663109
v -0.878087 -0.009554 -0.000000
v -0.000000 -0.009554 -0.878087
v 0.878087 -0.009554 -0.000000
v 0.000000 -0.009554 0.878087
v 0.000000 -1.625201 0.464838
v -0.000000 0.285237 0.000000
v -0.911775 -0.466816 0.000000
v 0.677068 -0.480973 -0.000000
v -0.677068 -0.480973 0.000000
v 0.000000 -0.466816 -0.911775
v 0.000000 -2.730153 -0.000000
v -0.000000 -1.625201 -0.464838
v 0.464838 -1.625201 -0.000000
v -0.464838 -1.625201 0.000000
v 0.000000 -0.399795 0.460739
v 0.460739 -0.399795 -0.000000
v -0.000000 -0.399795 -0.460739
v -0.460739 -0.399795 0.000000
v -0.799265 -0.610412 0.000000
v 0.000000 -0.610412 -0.799265
v 0.799265 -0.610412 0.000000
v 0.000000 -0.610412 0.799265
v 0.911775 -0.466816 0.000000
v -0.000000 -0.480973 -0.677068
v 0.000000 -0.480973 0.677068
v 0.000000 -0.466816 0.911775
vn -0.9271 0.1377 0.3485
vn -0.6435 0.7319 0.2239
vn -0.6435 0.7319 -0.2239
vn -0.9271 0.1377 -0.3485
vn -0.3485 0.1377 -0.9271
vn -0.2239 0.7319 -0.6435
vn 0.2239 0.7319 -0.6435
vn 0.3485 0.1377 -0.9271
vn 0.9271 0.1377 -0.3485
vn 0.6435 0.7319 -0.2239
vn 0.6435 0.7319 0.2239
vn 0.9271 0.1377 0.3485
vn 0.3485 0.1377 0.9271
vn 0.2239 0.7319 0.6435
vn -0.2239 0.7319 0.6435
vn -0.3485 0.1377 0.9271
vn 0.3545 0.0852 0.9312
vn -0.3545 0.0852 0.9312
vn -0.3309 -0.0525 0.9422
vn 0.3309 -0.0525 0.9422
vn 0.1138 0.9870 -0.1138
vn -0.1138 0.9870 -0.1138
vn -0.1138 0.9870 0.1138
vn 0.1138 0.9870 0.1138
vn -0.9361 -0.0237 0.3510
vn -0.9361 -0.0237 -0.3510
vn -0.8978 -0.2839 -0.3367
vn -0.8978 -0.2839 0.3367
vn -0.7587 -0.5860 -0.2845
vn -0.7587 -0.5860 0.2845
vn -0.8580 -0.4004 0.3218
vn -0.8580 -0.4004 -0.3218
vn 0.7587 -0.5860 0.2845
vn 0.7587 -0.5860 -0.2845
vn 0.8580 -0.4004 -0.3218
vn 0.8580 -0.4004 0.3218
vn -0.3510 -0.0237 -0.9361
vn 0.3510 -0.0237 -0.9361
vn 0.3367 -0.2839 -0.8978
vn -0.3367 -0.2839 -0.8978
vn -0.4962 -0.7124 -0.4962
vn 0.4962 -0.7124 -0.4962
vn 0.4962 -0.7124 0.4962
vn -0.4962 -0.7124 0.4962
vn -0.3545 0.0852 -0.9312
vn 0.3545 0.0852 -0.9312
vn 0.3309 -0.0525 -0.9422
vn -0.3309 -0.0525 -0.9422
vn 0.9312 0.0852 -0.3545
vn 0.9312 0.0852 0.3545
vn 0.9422 -0.0525 0.3309
vn 0.9422 -0.0525 -0.3309
vn -0.9312 0.0852 0.3545
vn -0.9312 0.0852 -0.3545
vn -0.9422 -0.0525 -0.3309
vn -0.9422 -0.0525 0.3309
vn -0.3450 -0.1860 0.9200
vn 0.3450 -0.1860 0.9200
vn 0.0337 -0.9954 0.0898
vn -0.0337 -0.9954 0.0898
vn 0.9200 -0.1860 0.3450
vn 0.9200 -0.1860 -0.3450
vn 0.0898 -0.9954 -0.0337
vn 0.0898 -0.9954 0.0337
vn 0.3450 -0.1860 -0.9200
vn -0.3450 -0.1860 -0.9200
vn -0.0337 -0.9954 -0.0898
vn 0.0337 -0.9954 -0.0898
vn -0.9200 -0.1860 -0.3450
vn -0.9200 -0.1860 0.3450
vn -0.0898 -0.9954 0.0337
vn -0.0898 -0.9954 -0.0337
vn 0.4063 -0.9009 0.1524
vn 0.4063 -0.9009 -0.1524
vn -0.4063 -0.9009 0.1524
vn -0.4063 -0.9009 -0.1524
vn -0.1524 -0.9009 0.4063
vn 0.1524 -0.9009 0.4063
vn -0.1524 -0.9009 -0.4063
vn 0.1524 -0.9009 -0.4063
vn 0.9361 -0.0237 -0.3510
vn 0.9361 -0.0237 0.3510
vn 0.8978 -0.2839 0.3367
vn 0.8978 -0.2839 -0.3367
vn -0.2845 -0.5860 0.7587
vn 0.2845 -0.5860 0.7587
vn 0.3218 -0.4004 0.8580
vn -0.3218 -0.4004 0.8580
vn 0.2845 -0.5860 -0.7587
vn -0.2845 -0.5860 -0.7587
vn -0.3218 -0.4004 -0.8580
vn 0.3218 -0.4004 -0.8580
vn 0.3510 -0.0237 0.9361
vn -0.3510 -0.0237 0.9361
vn -0.3367 -0.2839 0.8978
vn 0.3367 -0.2839 0.8978
vt 0.375000 0.000000
vt 0.500000 0.000000
vt 0.504340 0.125000
vt 0.413194 0.125000
vt 0.625000 0.000000
vt 0.625000 0.125000
vt 0.625000 0.250000
vt 0.505208 0.250000
vt 0.416667 0.250000
vt 0.505208 0.375000
vt 0.416667 0.375000
vt 0.625000 0.375000
vt 0.625000 0.500000
vt 0.505208 0.500000
vt 0.416667 0.500000
vt 0.505208 0.625000
vt 0.416667 0.625000
vt 0.625000 0.625000
vt 0.625000 0.750000
vt 0.505208 0.750000
vt 0.416667 0.750000
vt 0.504340 0.875000
vt 0.413194 0.875000
vt 0.625000 0.875000
vt 0.625000 1.000000
vt 0.500000 1.000000
vt 0.375000 1.000000
vt 0.294199 0.669199
vt 0.250000 0.685774
vt 0.250000 0.679142
vt 0.289346 0.664346
vt 0.205801 0.669199
vt 0.210654 0.664346
vt 0.219519 0.655481
vt 0.250000 0.662161
vt 0.280481 0.655481
vt 0.750000 0.500000
vt 0.750000 0.625000
vt 0.875000 0.500000
vt 0.875000 0.625000
vt 0.875000 0.750000
vt 0.750000 0.750000
vt 0.413194 0.125000
vt 0.379340 0.125000
vt 0.375000 0.000000
vt 0.416667 0.250000
vt 0.380208 0.250000
vt 0.375000 0.250000
vt 0.375000 0.125000
vt 0.375000 0.000000
vt 0.308430 0.683430
vt 0.330341 0.625000
vt 0.335233 0.625000
vt 0.311988 0.686988
vt 0.308430 0.566570
vt 0.311988 0.563012
vt 0.315545 0.559455
vt 0.340125 0.625000
vt 0.315545 0.690545
vt 0.191570 0.566570
vt 0.169659 0.625000
vt 0.164767 0.625000
vt 0.188012 0.563012
vt 0.191570 0.683430
vt 0.188012 0.686988
vt 0.184455 0.690545
vt 0.159875 0.625000
vt 0.184455 0.559455
vt 0.416667 0.375000
vt 0.380208 0.375000
vt 0.416667 0.500000
vt 0.380097 0.500000
vt 0.375000 0.500000
vt 0.375000 0.375000
vt 0.219519 0.594519
vt 0.250000 0.587839
vt 0.250000 0.625000
vt 0.212839 0.625000
vt 0.280481 0.594519
vt 0.287161 0.625000
vt 0.250000 0.662161
vt 0.205801 0.580801
vt 0.250000 0.564226
vt 0.250000 0.570858
vt 0.210654 0.585654
vt 0.294199 0.580801
vt 0.289346 0.585654
vt 0.310774 0.625000
vt 0.304142 0.625000
vt 0.287161 0.625000
vt 0.189226 0.625000
vt 0.195858 0.625000
vt 0.212839 0.625000
vt 0.205801 0.669199
vt 0.250000 0.685774
vt 0.250000 0.695558
vt 0.198685 0.676315
vt 0.301315 0.676315
vt 0.250000 0.705341
vt 0.310774 0.625000
vt 0.320558 0.625000
vt 0.294199 0.580801
vt 0.301315 0.573685
vt 0.250000 0.564226
vt 0.250000 0.554442
vt 0.205801 0.580801
vt 0.198685 0.573685
vt 0.250000 0.544659
vt 0.189226 0.625000
vt 0.179442 0.625000
vt 0.159875 0.625000
vt 0.147744 0.625000
vt 0.173423 0.548423
vt 0.184455 0.690545
vt 0.173423 0.701577
vt 0.125000 0.750000
vt 0.125000 0.625000
vt 0.125000 0.500000
vt 0.315545 0.559455
vt 0.250000 0.534875
vt 0.250000 0.522744
vt 0.326466 0.548423
vt 0.250000 0.500000
vt 0.315545 0.690545
vt 0.340125 0.625000
vt 0.351811 0.625000
vt 0.326466 0.701577
vt 0.369039 0.625000
vt 0.375000 0.750000
vt 0.250000 0.715125
vt 0.250000 0.727256
vt 0.250000 0.750000
vt 0.416667 0.625000
vt 0.379764 0.625000
vt 0.416667 0.750000
vt 0.380097 0.750000
vt 0.369039 0.625000
vt 0.250000 0.539767
vt 0.250000 0.534875
vt 0.250000 0.710233
vt 0.250000 0.715125
vt 0.413194 0.875000
vt 0.379340 0.875000
vt 0.375000 1.000000
vt 0.375000 1.000000
vt 0.375000 0.875000
s 0
f 10/1/1 30/2/1 81/3/1 29/4/1
f 30/2/2 2/5/2 31/6/2 81/3/2
f 81/3/3 31/6/3 4/7/3 32/8/3
f 29/4/4 81/3/4 32/8/4 9/9/4
f 9/9/5 32/8/5 82/10/5 33/11/5
f 32/8/6 4/7/6 34/12/6 82/10/6
f 82/10/7 34/12/7 8/13/7 35/14/7
f 33/11/8 82/10/8 35/14/8 11/15/8
f 11/15/9 35/14/9 83/16/9 36/17/9
f 35/14/10 8/13/10 37/18/10 83/16/10
f 83/16/11 37/18/11 6/19/11 38/20/11
f 36/17/12 83/16/12 38/20/12 12/21/12
f 12/21/13 38/20/13 84/22/13 39/23/13
f 38/20/14 6/19/14 40/24/14 84/22/14
f 84/22/15 40/24/15 2/25/15 30/26/15
f 39/23/16 84/22/16 30/26/16 10/27/16
f 5/28/17 44/29/17 85/30/17 54/31/17
f 44/29/18 1/32/18 53/33/18 85/30/18
f 85/30/19 53/33/19 14/34/19 52/35/19
f 54/31/20 85/30/20 52/35/20 16/36/20
f 8/13/21 34/37/21 86/38/21 37/18/21
f 34/37/22 4/39/22 31/40/22 86/38/22
f 86/38/23 31/40/23 2/41/23 40/42/23
f 37/18/24 86/38/24 40/42/24 6/19/24
f 10/1/25 29/43/25 87/44/25 79/45/25
f 29/43/26 9/46/26 59/47/26 87/44/26
f 87/44/27 59/47/27 21/48/27 65/49/27
f 79/45/28 87/44/28 65/49/28 22/50/28
f 20/51/29 62/52/29 88/53/29 78/54/29
f 62/52/30 19/55/30 77/56/30 88/53/30
f 88/53/31 77/56/31 27/57/31 74/58/31
f 78/54/32 88/53/32 74/58/32 28/59/32
f 17/60/33 64/61/33 89/62/33 46/63/33
f 64/61/34 18/64/34 57/65/34 89/62/34
f 89/62/35 57/65/35 25/66/35 76/67/35
f 46/63/36 89/62/36 76/67/36 26/68/36
f 9/46/37 33/69/37 90/70/37 59/47/37
f 33/69/38 11/71/38 60/72/38 90/70/38
f 90/70/39 60/72/39 23/73/39 66/74/39
f 59/47/40 90/70/40 66/74/40 21/48/40
f 13/75/41 50/76/41 91/77/41 49/78/41
f 50/76/42 15/79/42 51/80/42 91/77/42
f 91/77/43 51/80/43 16/36/43 52/81/43
f 49/78/44 91/77/44 52/81/44 14/34/44
f 3/82/45 42/83/45 92/84/45 56/85/45
f 42/83/46 7/86/46 55/87/46 92/84/46
f 92/84/47 55/87/47 15/79/47 50/76/47
f 56/85/48 92/84/48 50/76/48 13/75/48
f 7/86/49 43/88/49 93/89/49 55/87/49
f 43/88/50 5/28/50 54/31/50 93/89/50
f 93/89/51 54/31/51 16/36/51 51/90/51
f 55/87/52 93/89/52 51/90/52 15/79/52
f 1/32/53 41/91/53 94/92/53 53/33/53
f 41/91/54 3/82/54 56/85/54 94/92/54
f 94/92/55 56/85/55 13/75/55 49/93/55
f 53/33/56 94/92/56 49/93/56 14/34/56
f 1/94/57 44/95/57 95/96/57 58/97/57
f 44/95/58 5/28/58 48/98/58 95/96/58
f 95/96/59 48/98/59 20/51/59 61/99/59
f 58/97/60 95/96/60 61/99/60 18/64/60
f 5/28/61 43/100/61 96/101/61 48/98/61
f 43/100/62 7/102/62 47/103/62 96/101/62
f 96/101/63 47/103/63 19/55/63 62/52/63
f 48/98/64 96/101/64 62/52/64 20/51/64
f 7/102/65 42/104/65 97/105/65 47/103/65
f 42/104/66 3/106/66 45/107/66 97/105/66
f 97/105/67 45/107/67 17/60/67 63/108/67
f 47/103/68 97/105/68 63/108/68 19/55/68
f 3/106/69 41/109/69 98/110/69 45/107/69
f 41/109/70 1/94/70 58/97/70 98/110/70
f 98/110/71 58/97/71 18/64/71 64/61/71
f 45/107/72 98/110/72 64/61/72 17/60/72
f 26/68/73 76/111/73 99/112/73 70/113/73
f 76/111/74 25/114/74 69/115/74 99/112/74
f 99/112/75 69/115/75 22/116/75 65/117/75
f 70/113/76 99/112/76 65/117/76 21/118/76
f 27/119/77 75/120/77 100/121/77 71/122/77
f 75/120/78 26/68/78 70/113/78 100/121/78
f 100/121/79 70/113/79 21/118/79 66/123/79
f 71/122/80 100/121/80 66/123/80 23/73/80
f 28/124/76 74/125/76 101/126/76 72/127/76
f 74/125/75 27/119/75 71/122/75 101/126/75
f 101/126/74 71/122/74 23/73/74 67/128/74
f 72/127/73 101/126/73 67/128/73 24/129/73
f 25/114/80 73/130/80 102/131/80 69/115/80
f 73/130/79 28/124/79 72/127/79 102/131/79
f 102/131/78 72/127/78 24/129/78 68/132/78
f 69/115/77 102/131/77 68/132/77 22/116/77
f 11/71/81 36/133/81 103/134/81 60/72/81
f 36/133/82 12/135/82 80/136/82 103/134/82
f 103/134/83 80/136/83 24/129/83 67/137/83
f 60/72/84 103/134/84 67/137/84 23/73/84
f 19/55/85 63/108/85 104/138/85 77/56/85
f 63/108/86 17/60/86 46/63/86 104/138/86
f 104/138/87 46/63/87 26/68/87 75/139/87
f 77/56/88 104/138/88 75/139/88 27/57/88
f 18/64/89 61/99/89 105/140/89 57/65/89
f 61/99/90 20/51/90 78/54/90 105/140/90
f 105/140/91 78/54/91 28/59/91 73/141/91
f 57/65/92 105/140/92 73/141/92 25/66/92
f 12/135/93 39/142/93 106/143/93 80/136/93
f 39/142/94 10/27/94 79/144/94 106/143/94
f 106/143/95 79/144/95 22/145/95 68/146/95
f 80/136/96 106/143/96 68/146/96 24/129/96
