# Made in Blockbench 4.12.3
mtllib другая лампочка.mtl

o sphere
v 0.07216878305756186 0.24999998646063543 0.3437500001241072
v 0.07216878423984474 0.25000001353936463 -0.3437499998758922
v 0.07506011890715242 0.3593750117254336 -0.2976962281138413
v 0.07717672262691101 0.4394430638475281 -0.1718749924056407
v 0.07795145314171453 0.4687499999999999 8.750011148971265e-9
v 0.07717672203576957 0.43944305030816355 0.17187500759435898
v 0.07506011788326541 0.3593749882745662 0.29769623698795994
v 0.08006805758978947 0.3300680688032796 -0.29769622925954886
v 0.08585072686642797 0.3886819496918362 -0.17187499439006446
v 0.08796733050698866 0.41013611415569184 6.458595961041851e-9
v 0.08585072627528653 0.38868193615247165 0.1718750056099352
v 0.08006805656590246 0.3300680453524122 0.29769623584225235
v 0.08295939233629514 0.2793069546475877 -0.29769623125391703
v 0.09085866554906506 0.30076112092537416 -0.17187499784441138
v 0.09374999999999999 0.30861388584430804 2.4698597039014547e-9
v 0.09085866495792362 0.3007611073860096 0.1718750021555883
v 0.08295939131240813 0.27930693119672034 0.2976962338478842
v 0.08295939233629517 0.22069306880327969 -0.2976962335625563
v 0.09085866554906509 0.19923889261399044 -0.17187500184309198
v 0.09375000000000001 0.19138611415569196 -2.1474189635284153e-9
v 0.09085866495792365 0.19923887907462584 0.17187499815690768
v 0.08295939131240816 0.2206930453524123 0.2976962315392449
v 0.08006805758978952 0.1699319546475878 -0.29769623556686886
v 0.08585072686642806 0.1113180638475284 -0.17187500531466307
v 0.08796733050698875 0.08986388584430827 -6.156043951080474e-9
v 0.08585072627528662 0.11131805030816377 0.1718749946853366
v 0.08006805656590252 0.16993193119672045 0.29769622953493236
v 0.07506011890715247 0.14062501172543382 -0.29769623672980056
v 0.07717672262691114 0.06055694969183653 -0.17187500732891992
v 0.07795145314171464 0.03125000000000022 -8.48190743058093e-9
v 0.0771767220357697 0.0605569361524719 0.17187499267107975
v 0.07506011788326547 0.14062498827456643 0.29769622837200066
v 0.06927744941414118 0.1406250117254338 -0.29769623673974493
v 0.06716084526163701 0.060556949691836476 -0.17187500734614405
v 0.06638611415569207 0.03125000000000017 -8.501796160992596e-9
v 0.06716084467049557 0.060556936152471874 0.1718749926538556
v 0.06927744839025418 0.14062498827456643 0.2976962283620563
v -0.08006805656590239 0.16993195464758779 -0.29769623584225235
v -0.1386819426265833 0.11131806384752829 -0.17187500570078834
v -0.1601361141556918 0.08986388584430816 -6.582703518177037e-9
v -0.13868194321772473 0.11131805030816372 0.17187499429921133
v -0.0800680575897894 0.1699319311967204 0.29769622925954886
v -0.10937499948805646 0.22069306880327966 -0.2976962338933107
v -0.18944305678227524 0.19923889261399041 -0.17187500232512243
v -0.21874999999999997 0.19138611415569196 -2.684820267645537e-9
v -0.18944305737341666 0.1992388790746258 0.17187499767487724
v -0.10937500051194346 0.2206930453524123 0.29769623120849054
v -0.10937499948805648 0.27930695464758765 -0.2976962315846714
v -0.18944305678227524 0.30076112092537405 -0.17187499832644182
v -0.21875000000000003 0.3086138858443079 1.9324583997843276e-9
v -0.18944305737341666 0.3007611073860094 0.17187500167355785
v -0.10937500051194349 0.27930693119672023 0.2976962335171298
v -0.08006805656590248 0.33006806880327955 -0.29769622953493236
v -0.1386819426265834 0.3886819496918361 -0.17187499477618973
v -0.16013611415569198 0.41013611415569173 6.031936393945289e-9
v -0.1386819432177248 0.3886819361524716 0.17187500522380994
v -0.08006805758978948 0.3300680453524122 0.29769623556686886
v -0.029306942410210556 0.3593750117254336 -0.29769622829331965
v -0.050761113860121214 0.43944306384752807 -0.17187499262565337
v -0.05861388584430813 0.46874999999999983 8.515161896912751e-9
v -0.05076111445126266 0.43944305030816355 0.1718750073743463
v -0.02930694343409755 0.3593749882745662 0.29769623680848156
vt 0.06156046076729849 0.9748472023893922
vt 0.0764259690715368 0.9747882999510133
vt 0.11532304636593228 1
vt 0.06156046076729849 0.9748472023893922
vt 0.02202521988962486 0.9116127324716679
vt 0.04777501775107612 0.911510702601531
vt 0.0764259690715368 0.9747882999510133
vt 0.02202521988962486 0.9116127324716679
vt 0.0073065097151887165 0.8256860032574287
vt 0.03703752632366533 0.8255681983806711
vt 0.04777501775107612 0.911510702601531
vt 0.0073065097151887165 0.8256860032574287
vt 0.0213438238030189 0.7396453324333594
vt 0.04709362166447015 0.7395433025632224
vt 0.03703752632366533 0.8255681983806711
vt 0.0213438238030189 0.7396453324333594
vt 0.06037671615745783 0.6760995475890597
vt 0.07524222446169614 0.6760406451506809
vt 0.04709362166447015 0.7395433025632224
vt 0.07524222446169614 0.6760406451506809
vt 0.06037671615745783 0.6760995475890597
vt 0.11393828805320297 0.6505214934420462
vt 0.07693290405592607 0.9745558037063435
vt 0.1023547658940934 0.9745299348687892
vt 0.11670403098360925 0.9983684706597398
vt 0.07693290405592607 0.9745558037063435
vt 0.047774985146210674 0.9115104416333333
vt 0.09180621234962526 0.9114656362342994
vt 0.1023547658940934 0.9745299348687892
vt 0.047774985146210674 0.9115104416333333
vt 0.03703752632366533 0.8255681983806711
vt 0.08788125000000001 0.8255164607055624
vt 0.09180621234962529 0.9114656362342994
vt 0.03703755685944156 0.8255679371622877
vt 0.04709362166447015 0.7395433025632224
vt 0.09112382134992704 0.7392391772250954
vt 0.08788009404059016 0.8252167576554511
vt 0.04709362166447015 0.7395433025632224
vt 0.07575101650101006 0.676268855625733
vt 0.10117228509158437 0.6760932658723148
vt 0.09112382134992704 0.7392391772250954
vt 0.10117228509158437 0.6760932658723148
vt 0.07575101650101006 0.676268855625733
vt 0.11533218904135091 0.6521417665998474
vt 0.10271404179735359 0.9746137387099268
vt 0.1320201730169271 0.9745303000879287
vt 0.11743445086309083 0.9982250485310403
vt 0.10271404179735359 0.9746137387099268
vt 0.09180649339458975 0.9116101635296435
vt 0.14256878765037473 0.9114656362342994
vt 0.1320201730169271 0.9745303000879287
vt 0.09180624999999999 0.9114664607055624
vt 0.08788125000000001 0.8255164607055624
vt 0.14649374999999998 0.8255164607055624
vt 0.14256875000000002 0.9114664607055624
vt 0.08788427750983219 0.8247531024909655
vt 0.0924902725945864 0.7388369053318778
vt 0.14325117865007292 0.7392391772250955
vt 0.14649493707500733 0.8252175823991894
vt 0.0924902725945864 0.7388369053318778
vt 0.10371758217637518 0.675889525583306
vt 0.13302291195896276 0.6761217655374179
vt 0.14325117865007292 0.7392391772250955
vt 0.13302291195896276 0.6761217655374179
vt 0.10371758217637518 0.675889525583306
vt 0.11855768833581497 0.6523532632694251
vt 0.1320202341059066 0.9745299348687892
vt 0.15744209594407393 0.9745558037063435
vt 0.11767096901639076 0.9983684706597398
vt 0.1320202341059066 0.9745299348687892
vt 0.14256878765037473 0.9114656362342994
vt 0.1866000148537893 0.9115104416333333
vt 0.15744209594407393 0.9745558037063435
vt 0.14256878765037473 0.9114656362342994
vt 0.14649374999999998 0.8255164607055624
vt 0.19733747367633464 0.8255681983806711
vt 0.1866000148537893 0.9115104416333333
vt 0.14649490595940984 0.8252167576554511
vt 0.14325117865007292 0.7392391772250955
vt 0.18728137833552982 0.7395433025632224
vt 0.19733744314055846 0.8255679371622877
vt 0.14325117865007292 0.7392391772250955
vt 0.13320271490841556 0.6760932658723149
vt 0.15862398349898987 0.6762688556257331
vt 0.18728137833552982 0.7395433025632224
vt 0.15862398349898987 0.6762688556257331
vt 0.13320271490841556 0.6760932658723149
vt 0.11904281095864902 0.6521417665998474
vt 0.15794903092846319 0.9747882999510133
vt 0.17281453923270151 0.9748472023893922
vt 0.11905195363406772 1
vt 0.15794903092846319 0.9747882999510133
vt 0.18659998224892388 0.911510702601531
vt 0.21234978011037514 0.9116127324716679
vt 0.17281453923270151 0.9748472023893922
vt 0.18659998224892388 0.911510702601531
vt 0.19733747367633464 0.8255681983806711
vt 0.2270684902848113 0.8256860032574287
vt 0.21234978011037514 0.9116127324716679
vt 0.19733747367633464 0.8255681983806711
vt 0.18728137833552982 0.7395433025632224
vt 0.2130311761969811 0.7396453324333594
vt 0.2270684902848113 0.8256860032574287
vt 0.18728137833552982 0.7395433025632224
vt 0.1591327755383038 0.6760406451506809
vt 0.17399828384254212 0.6760995475890597
vt 0.2130311761969811 0.7396453324333594
vt 0.17399828384254212 0.6760995475890597
vt 0.1591327755383038 0.6760406451506809
vt 0.12043671194679696 0.6505214934420462
vt 0.5032039768407135 0.9972112311574158
vt 0.5034102132993674 0.9943248397103626
vt 0.5624937050016239 0.9999969964240848
vt 0.34636008001319213 0.621298451285151
vt 0.34530383001319215 0.5467328262851511
vt 0.35031008001319214 0.5467328262851511
vt 0.3492538300131921 0.621298451285151
vt 0.34530383001319215 0.5467328262851511
vt 0.3449163300131921 0.4595547012851511
vt 0.3506975800131921 0.4595547012851511
vt 0.35031008001319214 0.5467328262851511
vt 0.3449163300131921 0.4595547012851511
vt 0.34530383001319215 0.372376576285151
vt 0.35031008001319214 0.372376576285151
vt 0.3506975800131921 0.4595547012851511
vt 0.345323847599469 0.37192871924140924
vt 0.352990379427045 0.29775074147549896
vt 0.3558727217429888 0.29800743552727993
vt 0.3503103620596655 0.3723728054951383
vt 0.0034102132993673595 0.5056751602896374
vt 0.003203976840713413 0.5027887688425843
vt 0.06249370500162376 0.5000030035759152
vt 0.5034102132993674 0.9943248397103626
vt 0.5222256375705409 0.9205907621460412
vt 0.5624922610551856 0.9999968578017684
vt 0.36949196038252724 0.620086796856193
vt 0.3576733255725674 0.5464524033676068
vt 0.4635730945224526 0.541772505278272
vt 0.44534209991399554 0.6148048382267607
vt 0.3576733255725674 0.5464524033676068
vt 0.3506975766933838 0.4595539544086017
vt 0.4675836699868079 0.4546095097995895
vt 0.46356703911704683 0.5417727728773467
vt 0.3506975766933838 0.4595539544086017
vt 0.35031008001319214 0.372376576285151
vt 0.456226682845425 0.3680945494000578
vt 0.4675776299094648 0.454609765303277
vt 0.35031008001319214 0.372376576285151
vt 0.3558727217429888 0.29800743552727993
vt 0.431961170107653 0.296875
vt 0.45613937863585474 0.36809807895975455
vt 0.02222563757054081 0.5794092378539588
vt 0.0034102132993673595 0.5056751602896374
vt 0.06249226105518542 0.5000031421982317
vt 0.5222256375705409 0.9205907621460412
vt 0.5478395994200513 0.9063506340765917
vt 0.5624927838203285 0.9999978886987086
vt 0.3164470680945084 0.9969318752502869
vt 0.29906162984742624 0.9236320005258841
vt 0.34961875 0.9190703113510039
vt 0.3456347480249957 0.9942983169467886
vt 0.29906162984742624 0.9236320005258841
vt 0.28731839013902527 0.8371593029580006
vt 0.34569375 0.8318921863510039
vt 0.34961875 0.9190703113510039
vt 0.28731839013902527 0.8371593029580006
vt 0.28339339013902526 0.7499811779580006
vt 0.33395051029159906 0.7454194887831204
vt 0.34569375 0.8318921863510039
vt 0.5117375 0.78125
vt 0.522465625 0.71875
vt 0.551771875 0.71875
vt 0.5625 0.78125
vt 0.04783959942005124 0.5936493659234083
vt 0.0222256375705408 0.5794092378539588
vt 0.062492783820328385 0.5000021113012914
vt 0.5478395994200513 0.9063506340765917
vt 0.5771458494200513 0.9063506340765917
vt 0.5624927244200513 0.9999975090765917
vt 0.3756189983160799 1
vt 0.35058874152958336 0.9289464192115676
vt 0.40038125 0.9190703113510039
vt 0.4043652519750043 0.9942983169467886
vt 0.34961875 0.9190703113510039
vt 0.34569375 0.8318921863510039
vt 0.40430625 0.8318921863510039
vt 0.40038125 0.9190703113510039
vt 0.34664039166693794 0.8214005735597685
vt 0.36610684720668096 0.7363330226826283
vt 0.41604948970840094 0.7454194887831204
vt 0.40430625 0.8318921863510039
vt 0.36610684720668096 0.7363330226826283
vt 0.3900089193152899 0.6648920257231016
vt 0.418841848481821 0.6701378321187192
vt 0.41604948970840094 0.7454194887831204
vt 0.07714584942005125 0.5936493659234083
vt 0.04783959942005124 0.5936493659234083
vt 0.06249272442005124 0.5000024909234083
vt 0.5771458494200513 0.9063506340765917
vt 0.6027598112695617 0.9205907621460412
vt 0.5624926650197741 0.9999978886987086
vt 0.4043652519750043 0.9942983169467886
vt 0.40038125 0.9190703113510039
vt 0.45093837015257376 0.9236320005258841
vt 0.43355293190549166 0.9969318752502869
vt 0.40038125 0.9190703113510039
vt 0.40430625 0.8318921863510039
vt 0.46268160986097473 0.8371593029580006
vt 0.45093837015257376 0.9236320005258841
vt 0.40430625 0.8318921863510039
vt 0.41604948970840094 0.7454194887831204
vt 0.46660660986097474 0.7499811779580006
vt 0.46268160986097473 0.8371593029580006
vt 0.5 0.875
vt 0.510728125 0.8125
vt 0.540034375 0.8125
vt 0.5507625 0.875
vt 0.10275981126956168 0.5794092378539588
vt 0.07714584942005125 0.5936493659234083
vt 0.0624926650197741 0.5000021113012914
vt 0.6027598112695617 0.9205907621460412
vt 0.6183226025600844 0.9454233177195244
vt 0.5624915943844097 1
vt 0.510728125 0.6875
vt 0.5 0.625
vt 0.5507625 0.625
vt 0.540034375 0.6875
vt 0.16127169506951264 0.5669698800109226
vt 0.16519669506951262 0.4797917550109225
vt 0.22357205493048737 0.48505887161791916
vt 0.2118288152220864 0.5715315691858027
vt 0.16519669506951262 0.4797917550109225
vt 0.1769399347779136 0.39331905744303897
vt 0.22749705493048736 0.39788074661791917
vt 0.22357205493048735 0.48505887161791916
vt 0.1769399347779136 0.39331905744303897
vt 0.1943253730249957 0.3200191827186363
vt 0.22351305295548307 0.3226527410221345
vt 0.22749705493048733 0.39788074661791917
vt 0.11832260256008444 0.5545766822804756
vt 0.10275981126956168 0.5794092378539588
vt 0.062491594384409696 0.5
vt 0.6183226025600844 0.9454233177195244
vt 0.6217960231592865 0.9974919680139354
vt 0.5624938059290507 0.9999978381409691
vt 0.23822517993048736 0.6468026216179192
vt 0.22749705493048736 0.5722369966179192
vt 0.29146580493048735 0.5722369966179192
vt 0.29040955493048737 0.6468026216179192
vt 0.22749705493048736 0.5722369966179192
vt 0.22357205493048735 0.48505887161791916
vt 0.29185330493048733 0.48505887161791916
vt 0.29146580493048735 0.5722369966179192
vt 0.22357205493048735 0.48505887161791916
vt 0.22749705493048736 0.39788074661791917
vt 0.29146580493048735 0.39788074661791917
vt 0.29185330493048733 0.48505887161791916
vt 0.22749705493048733 0.39788074661791917
vt 0.22351305295548307 0.3226527410221345
vt 0.27470026663114716 0.3125
vt 0.2902434627357957 0.38543529427208445
vt 0.12179602315928659 0.5025080319860648
vt 0.11832260256008444 0.5545766822804756
vt 0.06249380592905088 0.5000021618590309
vn 0.8948589291377987 0.15291254154607428 -0.41933906517312725
vn 0.9782479925187479 0.16716196283895396 -0.12283217539744178
vn 0.9851707238882874 0.16834490817557982 -0.03314568878125313
vn 0.9851707237742869 0.16834490556454487 0.033145705430901506
vn 0.978247992096283 0.16716195316291138 0.12283219193009365
vn 0.8948589276955373 0.15291250851285484 0.41933908029648226
vn 0.963839158784069 0.05489994095392703 -0.26076823517766456
vn 0.9957770055547521 0.056719101772873606 -0.07218794014577383
vn 0.9981940437060796 0.05685677331944172 -0.019389647686507663
vn 0.9981940436393916 0.056856771792031836 0.019389655598527636
vn 0.9957770053064711 0.05671909608630571 0.0721879480386356
vn 0.9638391578871909 0.05489992041204332 0.2607682428173763
vn 0.9736315436950161 8.985266869031191e-9 -0.22812631834591074
vn 0.9980350347506247 2.4679400696265624e-9 -0.06265835467293626
vn 0.999858534975194 6.624909138773399e-10 -0.01681992976379036
vn 0.999858534917344 -6.624905253578052e-10 0.016819933202672166
vn 0.9980350345351197 -2.4679396818155906e-9 0.06265835810554632
vn 0.9736315429104058 -8.985266490702797e-9 0.22812632169458824
vn 0.963839158784069 -0.05489992041204295 -0.2607682395023784
vn 0.9957770055547521 -0.05671909608630515 -0.07218794461379156
vn 0.9981940437060798 -0.056856771792031434 -0.019389652165370686
vn 0.9981940436393916 -0.05685677331944128 0.019389651119664706
vn 0.9957770053064711 -0.056719101772873426 0.07218794357061763
vn 0.9638391578871909 -0.05489994095392666 0.2607682384926625
vn 0.8948589291377989 -0.15291250851285454 -0.41933907721873287
vn 0.978247992518748 -0.16716195316291135 -0.1228321885655389
vn 0.9851707238882874 -0.1683449055645444 -0.03314570204253646
vn 0.9851707237742872 -0.1683449081755795 0.0331456921696181
vn 0.978247992096283 -0.16716196283895304 0.12283217876199676
vn 0.8948589276955372 -0.152912541546074 0.419339068250877
vn 1.5849169143027307e-9 -0.38806509366518877 -0.9216319672616767
vn 9.232611532658639e-10 -0.8436614665860619 -0.5368755254226585
vn 2.8905954280675033e-10 -0.985772143063257 -0.16808712609975185
vn -2.8905396201440954e-10 -0.9857721563042308 0.16808704844605843
vn -9.232540543509736e-10 -0.8436615088781523 0.536875458963659
vn -1.5849148483108576e-9 -0.38806516626627113 0.9216319366920459
vn -0.0756011031202433 -0.3852562924322106 -0.9197075961132373
vn -0.2033195441841547 -0.8244866495593618 -0.5280936731784676
vn -0.2471152652379267 -0.9550143180319834 -0.16395639066622186
vn -0.2361723243862402 -0.9577088831233812 0.16436644542170548
vn -0.16309556231963804 -0.8311201144236303 0.531638216226122
vn -0.07560110628345644 -0.38525636488170156 0.9197075655048483
vn -0.22414386638092582 -0.12940948450610543 -0.9659258317716086
vn -0.7306322796473224 -0.4218307227200084 -0.5368755100643655
vn -0.853703723680262 -0.49288606822138537 -0.16808710815442904
vn -0.8537037242583757 -0.4928860814623587 0.16808706639138069
vn -0.7306322814938349 -0.4218307650120988 0.5368754743219523
vn -0.22414386970310052 -0.1294095605964149 0.9659258208065269
vn -0.24589005901248648 3.8177964436904896e-8 -0.96929772458148
vn -0.8436614868088511 2.1146045021983407e-8 -0.5368754936439903
vn -0.9857721493946878 6.6204866705588416e-9 -0.16808708896812197
vn -0.9857721499728013 -6.620487053604768e-9 0.16808708557768848
vn -0.843661488655364 -2.1146045349808736e-8 0.5368754907423273
vn -0.24589006234625835 -3.81779645324515e-8 0.9692977237357734
vn -0.22414386638092584 0.12940956059641467 -0.96592582157744
vn -0.7306322796473228 0.42183076501209815 -0.5368754768348658
vn -0.8537037236802625 0.49288608146235835 -0.1680870693275826
vn -0.853703724258376 0.49288606822138425 0.16808710521822776
vn -0.7306322814938354 0.4218307227200079 0.5368755075514516
vn -0.22414386970310066 0.12940948450610523 0.9659258310006953
vn -0.15092091154188264 0.26140272710494544 -0.9533580086837604
vn -0.4218307429427977 0.7306323017166232 -0.5368754641409836
vn -0.49288607455281613 0.8537037305898051 -0.1680870544954779
vn -0.49288607513092936 0.8537037173488313 0.16808712005033216
vn -0.4218307447893105 0.7306322594245329 0.5368755202453338
vn -0.15092091482083203 0.2614026520046585 0.9533580287565501
vn 1.5849157796256315e-9 0.3880651662662712 -0.921631936692046
vn 9.232560658330828e-10 0.8436615088781522 -0.5368754589636593
vn 2.8905644540538826e-10 0.9857721563042308 -0.1680870484460585
vn -2.8905696199114014e-10 0.9857721430632569 0.1680871260997517
vn -9.23256507946916e-10 0.8436614665860618 0.5368755254226583
vn -1.584915982987957e-9 0.3880650936651887 0.9216319672616766
usemtl m_0d3c67a4-63a6-3c94-4770-66051b6e38c9
f 3/1/1 8/2/1 2/3/1
f 3/4/2 4/5/2 9/6/2 8/7/2
f 4/8/3 5/9/3 10/10/3 9/11/3
f 5/12/4 6/13/4 11/14/4 10/15/4
f 6/16/5 7/17/5 12/18/5 11/19/5
f 12/20/6 7/21/6 1/22/6
f 8/23/7 13/24/7 2/25/7
f 8/26/8 9/27/8 14/28/8 13/29/8
f 9/30/9 10/31/9 15/32/9 14/33/9
f 10/34/10 11/35/10 16/36/10 15/37/10
f 11/38/11 12/39/11 17/40/11 16/41/11
f 17/42/12 12/43/12 1/44/12
f 13/45/13 18/46/13 2/47/13
f 13/48/14 14/49/14 19/50/14 18/51/14
f 14/52/15 15/53/15 20/54/15 19/55/15
f 15/56/16 16/57/16 21/58/16 20/59/16
f 16/60/17 17/61/17 22/62/17 21/63/17
f 22/64/18 17/65/18 1/66/18
f 18/67/19 23/68/19 2/69/19
f 18/70/20 19/71/20 24/72/20 23/73/20
f 19/74/21 20/75/21 25/76/21 24/77/21
f 20/78/22 21/79/22 26/80/22 25/81/22
f 21/82/23 22/83/23 27/84/23 26/85/23
f 27/86/24 22/87/24 1/88/24
f 23/89/25 28/90/25 2/91/25
f 23/92/26 24/93/26 29/94/26 28/95/26
f 24/96/27 25/97/27 30/98/27 29/99/27
f 25/100/28 26/101/28 31/102/28 30/103/28
f 26/104/29 27/105/29 32/106/29 31/107/29
f 32/108/30 27/109/30 1/110/30
f 28/111/31 33/112/31 2/113/31
f 28/114/32 29/115/32 34/116/32 33/117/32
f 29/118/33 30/119/33 35/120/33 34/121/33
f 30/122/34 31/123/34 36/124/34 35/125/34
f 31/126/35 32/127/35 37/128/35 36/129/35
f 37/130/36 32/131/36 1/132/36
f 33/133/37 38/134/37 2/135/37
f 33/136/38 34/137/38 39/138/38 38/139/38
f 34/140/39 35/141/39 40/142/39 39/143/39
f 35/144/40 36/145/40 41/146/40 40/147/40
f 36/148/41 37/149/41 42/150/41 41/151/41
f 42/152/42 37/153/42 1/154/42
f 38/155/43 43/156/43 2/157/43
f 38/158/44 39/159/44 44/160/44 43/161/44
f 39/162/45 40/163/45 45/164/45 44/165/45
f 40/166/46 41/167/46 46/168/46 45/169/46
f 41/170/47 42/171/47 47/172/47 46/173/47
f 47/174/48 42/175/48 1/176/48
f 43/177/49 48/178/49 2/179/49
f 43/180/50 44/181/50 49/182/50 48/183/50
f 44/184/51 45/185/51 50/186/51 49/187/51
f 45/188/52 46/189/52 51/190/52 50/191/52
f 46/192/53 47/193/53 52/194/53 51/195/53
f 52/196/54 47/197/54 1/198/54
f 48/199/55 53/200/55 2/201/55
f 48/202/56 49/203/56 54/204/56 53/205/56
f 49/206/57 50/207/57 55/208/57 54/209/57
f 50/210/58 51/211/58 56/212/58 55/213/58
f 51/214/59 52/215/59 57/216/59 56/217/59
f 57/218/60 52/219/60 1/220/60
f 53/221/61 58/222/61 2/223/61
f 53/224/62 54/225/62 59/226/62 58/227/62
f 54/228/63 55/229/63 60/230/63 59/231/63
f 55/232/64 56/233/64 61/234/64 60/235/64
f 56/236/65 57/237/65 62/238/65 61/239/65
f 62/240/66 57/241/66 1/242/66
f 58/243/67 3/244/67 2/245/67
f 58/246/68 59/247/68 4/248/68 3/249/68
f 59/250/69 60/251/69 5/252/69 4/253/69
f 60/254/70 61/255/70 6/256/70 5/257/70
f 61/258/71 62/259/71 7/260/71 6/261/71
f 7/262/72 62/263/72 1/264/72