# Made in Blockbench 4.12.3
mtllib клаксон.mtl

o cone
v 0 0.5924883288136684 0.18684565233752726
v 0.12039365470188217 0.3127379446045355 -0.48909515315866603
v 0.2705220865321328 0.5008138665347681 -0.49730672524852765
v 0.2169418695587791 0.7353407051321268 -0.5075463881590407
v 3.398138500607966e-17 0.8397149674571389 -0.5121034668675312
v -0.21694186955877903 0.7353407051321269 -0.5075463881590407
v -0.2705220865321328 0.5008138665347682 -0.49730672524852765
v -0.12039365470188222 0.3127379446045356 -0.48909515315866603
v 0 0.34375 0.2519432002578602
v 0 0.78125 0.2519432002578603
v 0.04684261198144141 0.7394724675195198 0.3812108064191225
v 0.07579293830779524 0.6300974675195198 0.46110258067111776
v 0.07579293830779525 0.4949025324804803 0.46110258067111776
v 0.04684261198144141 0.3855275324804803 0.3812108064191225
v 0.1186096572005647 0.7394724675195199 0.32072505684685315
v 0.19191445674448732 0.6300974675195198 0.3632345820281714
v 0.19191445674448737 0.4949025324804803 0.3632345820281715
v 0.1186096572005647 0.3855275324804803 0.32072505684685315
v 0.13487792561603754 0.7394724675195199 0.22805551215140685
v 0.21823706797882875 0.6300974675195199 0.2132921089889619
v 0.21823706797882886 0.4949025324804803 0.2132921089889619
v 0.13487792561603754 0.3855275324804802 0.22805551215140674
v 0.08803531363459617 0.7394724675195198 0.1465632822030516
v 0.1424441296710336 0.6300974675195197 0.0814349111135011
v 0.14244412967103362 0.4949025324804803 0.0814349111135011
v 0.08803531363459617 0.3855275324804802 0.1465632822030516
v 1.677259540007577e-17 0.7394724675195199 0.11437948707987466
v 2.7138629436872736e-17 0.6300974675195199 0.02936043671723798
v 2.7138629436872736e-17 0.4949025324804802 0.02936043671723798
v 1.6772595400075773e-17 0.3855275324804802 0.11437948707987478
v -0.0880353136345961 0.7394724675195198 0.1465632822030516
v -0.14244412967103356 0.6300974675195199 0.0814349111135011
v -0.1424441296710336 0.4949025324804803 0.0814349111135011
v -0.08803531363459614 0.3855275324804802 0.1465632822030516
v -0.13487792561603754 0.7394724675195199 0.22805551215140685
v -0.21823706797882875 0.6300974675195199 0.2132921089889619
v -0.21823706797882886 0.4949025324804803 0.2132921089889619
v -0.13487792561603754 0.3855275324804802 0.22805551215140674
v -0.1186096572005647 0.7394724675195199 0.32072505684685315
v -0.19191445674448732 0.6300974675195198 0.3632345820281714
v -0.19191445674448737 0.4949025324804803 0.3632345820281715
v -0.1186096572005647 0.3855275324804803 0.32072505684685315
v -0.046842611981441504 0.7394724675195198 0.3812108064191224
v -0.07579293830779539 0.6300974675195198 0.46110258067111776
v -0.07579293830779542 0.4949025324804803 0.46110258067111765
v -0.046842611981441504 0.3855275324804803 0.3812108064191224
vt 0.6312042867769576 0.08635856578778689
vt 0.75 0.06680777145888084
vt 0.7499999999999999 0.4375
vt 0.34375 0.3363585657877869
vt 0.46254571322304233 0.31680777145888084
vt 0.4625457132230422 0.6875
vt 0.5 0.6488585657877869
vt 0.6187957132230424 0.6293077714588808
vt 0.6187957132230423 1
vt 0.47495428677695767 0.1801085657877869
vt 0.59375 0.16055777145888084
vt 0.5937499999999999 0.53125
vt 0.16245428677695767 0.2738585657877869
vt 0.28125 0.25430777145888084
vt 0.2812499999999999 0.625
vt 0.625 0.4926085657877869
vt 0.7437957132230424 0.47305777145888084
vt 0.7437957132230423 0.84375
vt 0.003102143388478834 0.3988585657877869
vt 0.12189785661152117 0.37930777145888084
vt 0.12189785661152107 0.75
vt 0.09059291137385206 0.9322781250000001
vt 0.05377877453360424 0.9031772242508714
vt 0.11401486346764932 0.864352901422845
vt 0.0905930621838947 0.9322774194290946
vt 0.07611791137385207 1
vt 0.0069118896173485656 0.9687554700115226
vt 0.04782218308640411 0.9129665832129059
vt 0.0625 0.15625
vt 0 0.15625
vt 0 0.09375
vt 0.0625 0.09375
vt 0.38663891656879956 0.8694750294648667
vt 0.35618696840515596 0.8072777049777855
vt 0.3930045545460107 0.7781791324522067
vt 0.4462124413646647 0.8223944191873909
vt 0.3930045545460107 0.7781791324522067
vt 0.3561868866923632 0.8072777695590325
vt 0.3327658042667585 0.7393550680776526
vt 0.05377877453360424 0.9031772242508714
vt 0.042748876702793065 0.857445380642096
vt 0.11401797846533306 0.864350893694956
vt 0.07160625 0.3246375
vt 0.005118749999999998 0.34375
vt 0 0.26780312500000003
vt 0.06844375 0.27770000000000006
vt 0.84375 0.71875
vt 0.78125 0.71875
vt 0.78125 0.65625
vt 0.84375 0.65625
vt 0.8645125 1
vt 0.79954375 0.976225
vt 0.806025 0.92963125
vt 0.875 0.924609375
vt 0.4040336028537727 0.7324472749703861
vt 0.3930045545460107 0.7781791324522067
vt 0.33276410179752536 0.7393539708308672
vt 0.042748876702793065 0.857445380642096
vt 0.06222610406378806 0.8146738658500132
vt 0.1140194063394802 0.8643510320466865
vt 0.06844259921597548 0.2776998335981643
vt 0 0.26780312500000003
vt 0.02628263622010333 0.19644750628371244
vt 0.08468638825222369 0.23359883809835735
vt 0.84375 0.34375
vt 0.78125 0.34375
vt 0.78125 0.28125
vt 0.84375 0.28125
vt 0.8749945086036223 0.9246097748130654
vt 0.806025 0.92963125
vt 0.792946021495459 0.8844882681799443
vt 0.8538333982060184 0.8515699039289266
vt 0.3845572345042733 0.6896775992883579
vt 0.4040336028537727 0.7324472749703861
vt 0.3327645410827027 0.7393539282599347
vt 0.06222610406378806 0.8146738658500132
vt 0.10387929330609649 0.7931863556295224
vt 0.11401862776103858 0.8643502852788818
vt 0.21875 0.7333376673785645
vt 0.15625 0.7477075937535479
vt 0.15625 0.671875
vt 0.21875 0.6864713605888229
vt 0.84375 0.53125
vt 0.78125 0.53125
vt 0.78125 0.46875
vt 0.84375 0.46875
vt 0.484375 0.9375
vt 0.4700050780592639 1
vt 0.4231370134681628 1
vt 0.40854277500525493 0.9375
vt 0.34290717805909804 0.6681892261315503
vt 0.3845572345042733 0.6896775992883579
vt 0.3327643597436899 0.7393541021890329
vt 0.12415027944160764 0.7931863556295224
vt 0.16580346868391607 0.8146738658500132
vt 0.11401094498666556 0.8643502852788818
vt 0.29813876683527496 1
vt 0.2835424062464521 0.9375
vt 0.359375 0.9375
vt 0.3450050736250167 1
vt 0.78125 0.625
vt 0.78125 0.5625
vt 0.84375 0.5625
vt 0.84375 0.625
vt 0.65625 0.921875
vt 0.71875 0.9364692384629079
vt 0.71875 0.983337303054009
vt 0.65625 0.9977072249947451
vt 0.280972788880453 0.6896775992883579
vt 0.3226228453256283 0.6681892261315503
vt 0.3327656636410365 0.7393541021890329
vt 0.16580346868391607 0.8146738658500132
vt 0.18528069604491107 0.857445380642096
vt 0.11401016640822394 0.8643510320466865
vt 0.3215636117477763 0.17109883809835735
vt 0.3799673637798967 0.13394750628371244
vt 0.40625 0.20530312500000003
vt 0.3378074007840245 0.2151998335981643
vt 0.78125 0.4375
vt 0.78125 0.375
vt 0.84375 0.375
vt 0.84375 0.4375
vt 0.1461666017939816 0.07031990392892662
vt 0.20705397850454094 0.1032382681799443
vt 0.193975 0.14838125000000002
vt 0.12500549139637776 0.1433597748130654
vt 0.2614964205309537 0.7324472749703861
vt 0.280972788880453 0.6896775992883579
vt 0.3327654823020237 0.7393539282599347
vt 0.18528069604491107 0.857445380642096
vt 0.1742507982140999 0.9031772242508714
vt 0.11401159428237108 0.864350893694956
vt 0.33780625 0.21520000000000006
vt 0.40625 0.20530312500000003
vt 0.40113125 0.28125
vt 0.33464375 0.2621375
vt 0.78125 0.8125
vt 0.78125 0.75
vt 0.84375 0.75
vt 0.84375 0.8125
vt 0.125 0.14335937499999996
vt 0.193975 0.14838125000000002
vt 0.20045625 0.194975
vt 0.1354875 0.21875
vt 0.2725254688387157 0.7781791324522067
vt 0.2614964205309537 0.7324472749703861
vt 0.332765921587201 0.7393539708308672
vt 0.1742507982140999 0.9031772242508714
vt 0.13743666137385208 0.9322781250000001
vt 0.11401470928005482 0.864352901422845
vt 0.1742507982140999 0.9031772242508714
vt 0.22746311038265143 0.9473869724477312
vt 0.16789354797543443 0.9944737151273346
vt 0.1374357135217661 0.9322788742597097
vt 0.78125 0.25
vt 0.78125 0.1875
vt 0.84375 0.1875
vt 0.84375 0.25
vt 0.2256625586353353 0.8437560053458656
vt 0.2665723551975638 0.7879665856856977
vt 0.3093431366923632 0.8072777695590325
vt 0.2948680607197472 0.875
vt 0.3093431366923632 0.8072777695590325
vt 0.2725254688387157 0.7781791324522067
vt 0.33276421911796783 0.7393550680776526
vt 0.13743666137385208 0.9322781250000001
vt 0.09059291137385206 0.9322781250000001
vt 0.11401478637385207 0.864353125
vt 0.13743666137385208 0.9322781250000001
vt 0.15191166137385206 1
vt 0.07611791137385207 1
vt 0.09059291137385206 0.9322781250000001
vt 0.3125 0.625
vt 0.3125 0.5625
vt 0.375 0.5625
vt 0.375 0.625
vt 0.29486813669236317 0.8749996445590326
vt 0.3093431366923632 0.8072777695590325
vt 0.3561868866923632 0.8072777695590325
vt 0.37066188669236316 0.8749996445590326
vt 0.3561868866923632 0.8072777695590325
vt 0.3093431366923632 0.8072777695590325
vt 0.33276501169236317 0.7393527695590326
vn 0.7347600854996696 -0.570487296249139 0.36697664990413964
vn 0.9162308402437905 0.22383129393463952 0.332295951286956
vn 0.4077610845812539 0.8608253456543098 0.3044841903617617
vn -0.40776108458125376 0.86082534565431 0.3044841903617617
vn -0.9162308402437903 0.2238312939346397 0.33229595128695594
vn -0.7347600854996699 -0.5704872962491387 0.3669766499041396
vn -1.0833007558950813e-16 -0.9239923253422534 0.3824110127972458
vn 0.19851210750388118 0.9513754782632193 0.23553692392870915
vn 0.5207349955992825 0.5891403894949216 0.6178581275859268
vn 0.644449523832351 1.387778780781446e-17 0.7646468539347143
vn 0.5207349955992823 -0.5891403894949214 0.6178581275859271
vn 0.19851210750388218 -0.951375478263219 0.2355369239287092
vn 0.30406734893035964 0.9511538685843401 0.053379449149526456
vn 0.7965361374904042 0.5881980142716325 0.13983303500523897
vn 0.9849381085670129 3.946495907847236e-16 0.17290726500767728
vn 0.7965361374904039 -0.5881980142716331 0.13983303500523886
vn 0.30406734893036036 -0.9511538685843399 0.05337944914952687
vn 0.2674169380181306 0.9512413705773486 -0.15371413781150692
vn 0.7009046863058292 0.5885696467188172 -0.4028875670405007
vn 0.8669771858833458 7.216449660063519e-16 -0.4983478294904019
vn 0.7009046863058291 -0.5885696467188172 -0.40288756704050094
vn 0.26741693801813105 -0.9512413705773484 -0.153714137811507
vn 0.1056391847807827 0.9514934574656984 -0.2889646397724523
vn 0.27731399902130066 0.5896436667145786 -0.758562648863099
vn 0.34335338342349864 1.249000902703301e-16 -0.9392062894229554
vn 0.2773139990213008 -0.5896436667145788 -0.7585626488630987
vn 0.10563918478078234 -0.9514934574656982 -0.2889646397724532
vn -0.10563918478078274 0.9514934574656982 -0.28896463977245224
vn -0.2773139990213002 0.5896436667145784 -0.7585626488630993
vn -0.3433533834234986 2.0816681711721685e-17 -0.9392062894229554
vn -0.27731399902130094 -0.5896436667145782 -0.7585626488630992
vn -0.10563918478078234 -0.9514934574656982 -0.28896463977245324
vn -0.2674169380181305 0.9512413705773485 -0.1537141378115071
vn -0.7009046863058291 0.5885696467188176 -0.4028875670405003
vn -0.8669771858833456 1.8388068845354155e-16 -0.498347829490402
vn -0.7009046863058288 -0.5885696467188175 -0.4028875670405009
vn -0.2674169380181311 -0.9512413705773484 -0.15371413781150706
vn -0.30406734893035964 0.9511538685843401 0.05337944914952644
vn -0.7965361374904042 0.5881980142716327 0.13983303500523894
vn -0.9849381085670129 8.049116928532385e-16 0.17290726500767728
vn -0.7965361374904038 -0.5881980142716331 0.13983303500523883
vn -0.30406734893036036 -0.9511538685843398 0.05337944914952686
vn -0.19851210750388107 0.9513754782632192 0.2355369239287092
vn -0.5207349955992827 0.5891403894949211 0.6178581275859271
vn -0.6444495238323511 2.1510571102112408e-16 0.7646468539347141
vn -0.5207349955992823 -0.5891403894949213 0.6178581275859272
vn -0.19851210750388215 -0.9513754782632191 0.23553692392870923
vn -4.132739580051286e-16 0.9515400631830858 0.30752480901145063
vn -5.914305572541081e-16 0.5898427819844959 0.8075181066333995
vn -7.300795748587813e-16 -6.245004513516506e-17 1
vn -9.56954743622437e-16 -0.589842781984496 0.8075181066333994
vn -3.1490099194462493e-16 -0.9515400631830857 0.30752480901145096
usemtl m_54f3414b-ec83-315d-61c4-785e12b6a413
f 2/1/1 3/2/1 1/3/1
f 3/4/2 4/5/2 1/6/2
f 4/7/3 5/8/3 1/9/3
f 5/10/4 6/11/4 1/12/4
f 6/13/5 7/14/5 1/15/5
f 7/16/6 8/17/6 1/18/6
f 8/19/7 2/20/7 1/21/7
f 11/22/8 15/23/8 10/24/8
f 11/25/9 12/26/9 16/27/9 15/28/9
f 12/29/10 13/30/10 17/31/10 16/32/10
f 13/33/11 14/34/11 18/35/11 17/36/11
f 18/37/12 14/38/12 9/39/12
f 15/40/13 19/41/13 10/42/13
f 15/43/14 16/44/14 20/45/14 19/46/14
f 16/47/15 17/48/15 21/49/15 20/50/15
f 17/51/16 18/52/16 22/53/16 21/54/16
f 22/55/17 18/56/17 9/57/17
f 19/58/18 23/59/18 10/60/18
f 19/61/19 20/62/19 24/63/19 23/64/19
f 20/65/20 21/66/20 25/67/20 24/68/20
f 21/69/21 22/70/21 26/71/21 25/72/21
f 26/73/22 22/74/22 9/75/22
f 23/76/23 27/77/23 10/78/23
f 23/79/24 24/80/24 28/81/24 27/82/24
f 24/83/25 25/84/25 29/85/25 28/86/25
f 25/87/26 26/88/26 30/89/26 29/90/26
f 30/91/27 26/92/27 9/93/27
f 27/94/28 31/95/28 10/96/28
f 27/97/29 28/98/29 32/99/29 31/100/29
f 28/101/30 29/102/30 33/103/30 32/104/30
f 29/105/31 30/106/31 34/107/31 33/108/31
f 34/109/32 30/110/32 9/111/32
f 31/112/33 35/113/33 10/114/33
f 31/115/34 32/116/34 36/117/34 35/118/34
f 32/119/35 33/120/35 37/121/35 36/122/35
f 33/123/36 34/124/36 38/125/36 37/126/36
f 38/127/37 34/128/37 9/129/37
f 35/130/38 39/131/38 10/132/38
f 35/133/39 36/134/39 40/135/39 39/136/39
f 36/137/40 37/138/40 41/139/40 40/140/40
f 37/141/41 38/142/41 42/143/41 41/144/41
f 42/145/42 38/146/42 9/147/42
f 39/148/43 43/149/43 10/150/43
f 39/151/44 40/152/44 44/153/44 43/154/44
f 40/155/45 41/156/45 45/157/45 44/158/45
f 41/159/46 42/160/46 46/161/46 45/162/46
f 46/163/47 42/164/47 9/165/47
f 43/166/48 11/167/48 10/168/48
f 43/169/49 44/170/49 12/171/49 11/172/49
f 44/173/50 45/174/50 13/175/50 12/176/50
f 45/177/51 46/178/51 14/179/51 13/180/51
f 14/181/52 46/182/52 9/183/52