# Blender 4.3.2
# www.blender.org
mtllib компютер.mtl
o Cube
v 0.639571 1.359661 -1.359661
v 0.639571 -1.359661 -1.359661
v 0.639571 1.359661 1.359661
v 0.639571 -1.359661 1.359661
v -1.321715 0.650507 -0.850955
v -1.609033 -0.055460 -0.850955
v -1.321715 0.650507 0.850955
v -1.609033 -0.055460 0.850955
v 0.708202 1.457071 -1.457071
v 0.708202 -1.457071 -1.457071
v 0.708202 1.457071 1.457071
v 0.708202 -1.457071 1.457071
v -0.708202 -1.457071 -1.457071
v -0.708202 -1.457071 1.457071
v -0.708202 1.457071 1.457071
v -0.708202 1.457071 -1.457071
v -0.708202 -1.294829 -1.294829
v -0.708202 -1.294829 1.294829
v -0.708202 1.294829 1.294829
v -0.708202 1.294829 -1.294829
v -1.321715 -1.022162 -1.022162
v -1.321715 -1.022162 1.022162
v -1.321715 1.022162 1.022162
v -1.321715 1.022162 -1.022162
v -1.604206 -0.055460 -0.850955
v -1.604206 -0.055460 0.850955
v -1.604206 0.650507 0.850955
v -1.604206 0.650507 -0.850955
vn -0.0000 1.0000 -0.0000
vn -0.0000 -0.0000 1.0000
vn -0.0000 -0.0000 -1.0000
vn -0.0000 -1.0000 -0.0000
vn 1.0000 -0.0000 -0.0000
vn 0.8175 -0.0000 0.5760
vn 0.8175 -0.0000 -0.5760
vn 0.8175 -0.5760 -0.0000
vn 0.8175 0.5760 -0.0000
vn -1.0000 -0.0000 -0.0000
vn -0.4061 -0.9138 -0.0000
vn -0.4061 -0.0000 0.9138
vn -0.4061 -0.0000 -0.9138
vn -0.4061 0.9138 -0.0000
vn -0.9586 -0.2849 -0.0000
vn -0.6980 0.0729 0.7124
vn -0.6980 0.0729 -0.7124
vt 0.625000 0.500000
vt 0.875000 0.500000
vt 0.875000 0.750000
vt 0.625000 0.750000
vt 0.375000 0.750000
vt 0.625000 1.000000
vt 0.375000 1.000000
vt 0.573002 0.198002
vt 0.426998 0.198002
vt 0.125000 0.500000
vt 0.375000 0.500000
vt 0.125000 0.750000
vt 0.383357 0.508357
vt 0.616643 0.508357
vt 0.616643 0.741643
vt 0.383357 0.741643
vt 0.375000 0.250000
vt 0.625000 0.250000
vt 0.388919 0.013919
vt 0.388919 0.236081
vt 0.375000 0.000000
vt 0.611081 0.013919
vt 0.625000 0.000000
vt 0.611081 0.236081
vt 0.412310 0.037310
vt 0.412310 0.212690
vt 0.587690 0.037310
vt 0.587690 0.212690
vt 0.426998 0.051998
vt 0.573002 0.051998
s 0
usemtl Material
f 9/1/1 16/2/1 15/3/1 11/4/1
f 12/5/2 11/4/2 15/6/2 14/7/2
f 5/8/3 6/9/3 25/9/3 28/8/3
f 13/10/4 10/11/4 12/5/4 14/12/4
f 2/13/5 1/14/5 3/15/5 4/16/5
f 13/17/3 16/18/3 9/1/3 10/11/3
f 1/14/6 2/13/6 10/11/6 9/1/6
f 4/16/7 3/15/7 11/4/7 12/5/7
f 3/15/8 1/14/8 9/1/8 11/4/8
f 2/13/9 4/16/9 12/5/9 10/11/9
f 18/19/10 17/20/10 13/17/10 14/21/10
f 19/22/10 18/19/10 14/21/10 15/23/10
f 17/20/10 20/24/10 16/18/10 13/17/10
f 20/24/10 19/22/10 15/23/10 16/18/10
f 22/25/11 21/26/11 17/20/11 18/19/11
f 23/27/12 22/25/12 18/19/12 19/22/12
f 21/26/13 24/28/13 20/24/13 17/20/13
f 24/28/14 23/27/14 19/22/14 20/24/14
f 8/29/15 6/9/15 21/26/15 22/25/15
f 7/30/16 8/29/16 22/25/16 23/27/16
f 6/9/17 5/8/17 24/28/17 21/26/17
f 5/8/10 7/30/10 23/27/10 24/28/10
f 26/29/10 27/30/10 28/8/10 25/9/10
f 6/9/1 8/29/1 26/29/1 25/9/1
f 7/30/1 5/8/1 28/8/1 27/30/1
f 8/29/2 7/30/2 27/30/2 26/29/2
