# Blender 4.3.2
# www.blender.org
mtllib сосулька.mtl
o Cube
v 0.643964 1.254817 -0.501128
v 0.500000 -0.500000 -0.500000
v 0.502670 1.248932 0.645613
v 0.500000 -0.500000 0.500000
v -0.502796 1.255481 -0.642421
v -0.500000 -0.500000 -0.500000
v -0.644090 1.249596 0.504320
v -0.500000 -0.500000 0.500000
v 0.633880 0.666012 0.662137
v -0.662139 0.666145 0.633878
v 0.662139 0.667189 -0.633878
v -0.633880 0.667322 -0.662137
v 0.309810 2.804521 0.613854
v -0.603285 2.805203 0.322000
v 0.601662 2.810570 -0.299222
v -0.311433 2.811253 -0.591075
v 0.437767 2.257216 0.640062
v -0.632408 2.257990 0.446050
v 0.631780 2.264076 -0.430092
v -0.438396 2.264849 -0.624104
v 0.305674 4.471339 0.487698
v -0.469072 4.471902 0.330396
v 0.462976 4.476327 -0.287032
v -0.311769 4.476889 -0.444334
v 0.282200 3.983319 0.587898
v -0.571809 3.983959 0.303387
v 0.566710 3.988994 -0.266093
v -0.287299 3.989634 -0.550604
v 0.312773 5.603108 0.400472
v -0.374957 5.603599 0.344918
v 0.368328 5.607454 -0.287244
v -0.319402 5.607944 -0.342798
v 0.311685 5.243450 0.453057
v -0.429805 5.243982 0.341546
v 0.423197 5.248171 -0.288418
v -0.318293 5.248703 -0.399929
v 0.266181 6.636662 0.339894
v -0.307512 6.637070 0.304530
v 0.301547 6.640279 -0.233788
v -0.272147 6.640687 -0.269151
v 0.303822 6.269067 0.380289
v -0.350349 6.269533 0.339965
v 0.344148 6.273192 -0.273869
v -0.310023 6.273657 -0.314193
v -0.143921 7.877921 0.212872
v -0.175425 7.878208 -0.098177
v 0.167122 7.880461 0.181371
v 0.135619 7.880748 -0.129678
v 0.177101 7.440250 0.309782
v -0.272058 7.440622 0.220274
v 0.266610 7.443550 -0.139369
v -0.182550 7.443923 -0.228877
v -0.174124 8.705737 0.151228
v -0.119441 8.705936 -0.123598
v 0.100696 8.707500 0.205911
v 0.155379 8.707700 -0.068914
v -0.609568 -0.609568 -0.000000
v 0.000000 -0.609568 -0.609568
v 0.637551 0.021670 -0.634019
v -0.637551 0.021540 0.634019
v 0.634019 0.021523 0.637551
v -0.634019 0.021687 -0.637551
v -0.019428 0.665857 0.891010
v 0.891013 0.666575 0.019428
v -0.000000 -0.609568 0.609568
v -0.891013 0.666758 -0.019428
v 0.019428 0.667476 -0.891010
v 0.609568 -0.609568 0.000000
v -0.097203 1.248161 0.789981
v 0.788335 1.251750 0.098735
v -0.788460 1.252663 -0.095543
v 0.097077 1.256253 -0.786789
v 0.568299 0.987895 0.653277
v -0.653091 0.988293 0.568501
v 0.653075 0.991426 -0.568102
v -0.568314 0.991824 -0.652878
v -0.133698 2.256317 0.743710
v 0.735431 2.260501 0.141362
v -0.736060 2.261565 -0.125404
v 0.133070 2.265749 -0.727752
v -0.639328 1.753563 0.474839
v -0.470250 1.760453 -0.634341
v 0.469873 1.752787 0.643915
v 0.638951 1.759676 -0.465264
v -0.201460 2.803728 0.639129
v 0.626941 2.807418 0.212038
v -0.628564 2.808356 -0.189260
v 0.199836 2.812046 -0.616350
v 0.373928 2.514953 0.626876
v -0.617707 2.515681 0.383943
v 0.616860 2.521408 -0.364739
v -0.374775 2.522136 -0.607671
v -0.198150 3.982575 0.605766
v 0.584582 3.986037 0.214249
v -0.589680 3.986917 -0.176954
v 0.193051 3.990378 -0.568471
v -0.594448 3.394586 0.298497
v -0.285169 3.400437 -0.577741
v 0.281808 3.393926 0.607778
v 0.591087 3.399778 -0.268460
v -0.111193 4.470685 0.554309
v 0.529590 4.473728 0.129827
v -0.535686 4.474502 -0.086463
v 0.105098 4.477544 -0.510945
v 0.293798 4.265450 0.538021
v -0.520579 4.266052 0.317114
v 0.514704 4.270782 -0.276339
v -0.299673 4.271384 -0.497246
v -0.079968 5.242831 0.536328
v 0.506470 5.245710 0.103227
v -0.513078 5.246443 -0.050100
v 0.073360 5.249323 -0.483200
v 0.310824 4.857411 0.465842
v -0.444903 4.857955 0.338116
v -0.317176 4.862781 -0.417596
v 0.438551 4.862236 -0.289870
v -0.041509 5.602539 0.501642
v 0.469500 5.605190 0.067030
v -0.476129 5.605863 -0.009356
v 0.034880 5.608514 -0.443968
v 0.312185 5.433229 0.426827
v -0.402425 5.433740 0.343295
v 0.395718 5.437762 -0.287768
v -0.318892 5.438273 -0.371300
v -0.030825 6.268528 0.482781
v 0.446642 6.271042 0.060771
v -0.452843 6.271683 0.005325
v 0.024624 6.274199 -0.416685
v -0.361515 5.936561 0.346085
v -0.318355 5.940807 -0.327357
v 0.311940 5.936082 0.389242
v 0.355100 5.940329 -0.284199
v -0.027296 6.636188 0.429777
v 0.391431 6.638395 0.059683
v -0.397397 6.638955 0.011059
v 0.021331 6.641161 -0.359035
v 0.284997 6.439968 0.360010
v -0.328935 6.440404 0.322166
v 0.322843 6.443838 -0.253910
v -0.291089 6.444275 -0.291754
v -0.064261 7.439817 0.349243
v 0.306073 7.441831 0.101989
v -0.311521 7.442343 -0.021084
v 0.058813 7.444355 -0.268338
v -0.253770 7.042318 -0.254202
v 0.289266 7.041925 -0.213001
v 0.248064 7.038444 0.330026
v -0.294973 7.038836 0.288824
v -0.217994 7.877587 0.063254
v 0.017507 7.879137 0.255443
v -0.025810 7.879531 -0.172249
v 0.209691 7.881081 0.019940
v 0.017174 7.645756 0.261851
v -0.223158 7.646087 0.061572
v 0.217450 7.648678 0.021525
v -0.022882 7.649007 -0.178754
v -0.177384 8.783347 0.007782
v -0.043196 8.784302 0.208640
v 0.023470 8.784544 -0.126410
v 0.157659 8.785497 0.074449
v 0.193236 8.338069 -0.102187
v 0.136499 8.337812 0.241632
v -0.207313 8.335537 0.184894
v -0.150576 8.335794 -0.158925
v -0.762764 1.757154 -0.111453
v -0.002428 0.010701 0.874879
v -0.874880 0.010814 -0.002428
v 0.000000 -0.839506 0.000000
v 0.874880 0.010791 0.002428
v 0.002428 0.010904 -0.874879
v -0.058292 0.987432 0.839897
v 0.839697 0.989585 0.058483
v -0.839713 0.990133 -0.058084
v 0.058276 0.992287 -0.839498
v -0.604107 3.397635 -0.197612
v -0.116430 1.751883 0.767348
v 0.116053 1.761356 -0.757773
v 0.762387 1.756086 0.121028
v -0.167439 2.514107 0.691337
v 0.681326 2.518044 0.176618
v -0.682173 2.519045 -0.157414
v 0.166592 2.522982 -0.672133
v -0.090989 4.856778 0.543675
v -0.214310 3.393159 0.617432
v 0.210949 3.401205 -0.587395
v 0.600746 3.396728 0.227649
v -0.154810 4.264751 0.580260
v 0.556947 4.268003 0.172261
v -0.562822 4.268829 -0.131486
v 0.148935 4.272082 -0.539485
v -0.466208 5.938774 0.001272
v 0.084637 4.863413 -0.495429
v 0.516386 4.859722 0.111935
v -0.522738 4.860469 -0.063689
v -0.060783 5.432634 0.519048
v 0.487941 5.435399 0.085192
v -0.494648 5.436103 -0.029665
v 0.054076 5.438868 -0.463521
v 0.025474 7.042775 -0.335419
v -0.032880 5.935524 0.493934
v 0.026465 5.941364 -0.432049
v 0.459793 5.938116 0.060614
v -0.029065 6.439459 0.456198
v 0.419032 6.441821 0.060146
v -0.425124 6.442421 0.008110
v 0.022973 6.444782 -0.387942
v 0.229470 8.346029 0.080393
v 0.370484 7.040111 0.066238
v -0.376191 7.040651 0.009586
v -0.031180 7.037986 0.411242
v -0.140544 7.645374 0.206772
v 0.162374 7.647155 0.179240
v -0.168082 7.647608 -0.096143
v 0.134836 7.649389 -0.123676
v -0.010892 8.947492 0.041029
v -0.046130 8.344288 0.277911
v 0.031957 8.344641 -0.195212
v -0.243643 8.342898 0.002306
vn -0.8789 0.0470 -0.4747
vn -0.9746 0.0394 0.2203
vn -0.9804 0.0408 0.1926
vn -0.8650 0.0484 -0.4994
vn 0.3072 -0.3479 0.8858
vn 0.3400 -0.0250 0.9401
vn -0.3632 -0.0231 0.9314
vn -0.3101 -0.3475 0.8849
vn -0.8858 -0.3479 0.3072
vn -0.9401 -0.0250 0.3400
vn -0.9314 -0.0230 -0.3632
vn -0.8850 -0.3474 -0.3101
vn -0.3061 -0.9015 -0.3061
vn 0.3061 -0.9015 -0.3061
vn 0.3061 -0.9015 0.3061
vn -0.3061 -0.9015 0.3061
vn 0.8858 -0.3479 -0.3072
vn 0.9401 -0.0249 -0.3400
vn 0.9314 -0.0231 0.3632
vn 0.8850 -0.3475 0.3100
vn -0.3072 -0.3478 -0.8858
vn -0.3400 -0.0249 -0.9401
vn 0.3632 -0.0230 -0.9314
vn 0.3100 -0.3474 -0.8850
vn 0.2572 0.1568 0.9536
vn -0.4319 0.1689 0.8859
vn -0.3884 0.1466 0.9097
vn 0.3058 0.1374 0.9421
vn 0.9529 0.1620 -0.2565
vn 0.8852 0.1710 0.4326
vn 0.9096 0.1467 0.3888
vn 0.9422 0.1374 -0.3056
vn -0.9529 0.1596 0.2578
vn -0.8852 0.1743 -0.4312
vn -0.9098 0.1465 -0.3883
vn -0.9420 0.1374 0.3061
vn -0.2571 0.1648 -0.9522
vn 0.4319 0.1764 -0.8845
vn 0.3886 0.1465 -0.9097
vn -0.3059 0.1374 -0.9421
vn -0.7754 0.0360 -0.6305
vn -0.9990 0.0292 0.0348
vn -0.9991 0.0308 0.0284
vn -0.7713 0.0338 -0.6355
vn -0.4750 0.0386 0.8791
vn 0.2200 0.0349 0.9749
vn 0.1923 0.0361 0.9807
vn -0.4997 0.0398 0.8653
vn 0.4750 0.0499 -0.8786
vn -0.2200 0.0470 -0.9744
vn -0.1923 0.0484 -0.9801
vn 0.4997 0.0510 -0.8647
vn 0.8789 0.0415 0.4752
vn 0.9746 0.0426 -0.2198
vn 0.9804 0.0437 -0.1920
vn 0.8650 0.0425 0.5000
vn 0.0841 0.1256 0.9885
vn -0.5852 0.1377 0.7991
vn -0.5298 0.1652 0.8319
vn 0.1474 0.1522 0.9773
vn 0.9876 0.1333 -0.0834
vn 0.7981 0.1407 0.5859
vn 0.8308 0.1674 0.5308
vn 0.9763 0.1595 -0.1465
vn -0.9879 0.1299 0.0850
vn -0.7984 0.1460 -0.5842
vn -0.8309 0.1737 -0.5286
vn -0.9764 0.1571 0.1485
vn -0.0843 0.1376 -0.9869
vn 0.5849 0.1490 -0.7973
vn 0.5297 0.1759 -0.8298
vn -0.1476 0.1644 -0.9753
vn -0.5163 0.0329 0.8558
vn 0.1736 0.0357 0.9842
vn 0.1989 0.0225 0.9798
vn -0.4943 0.0211 0.8690
vn -0.6307 0.0276 0.7755
vn 0.0346 0.0247 0.9991
vn 0.0281 0.0263 0.9993
vn -0.6358 0.0254 0.7715
vn 0.6306 0.0390 -0.7751
vn -0.0347 0.0369 -0.9987
vn -0.0282 0.0386 -0.9989
vn 0.6357 0.0367 -0.7711
vn 0.7753 0.0305 0.6309
vn 0.9989 0.0325 -0.0344
vn 0.9990 0.0341 -0.0280
vn 0.7712 0.0283 0.6359
vn 0.1228 0.1647 0.9787
vn -0.5515 0.1526 0.8201
vn -0.6030 0.1175 0.7890
vn 0.0639 0.1260 0.9900
vn 0.9775 0.1722 -0.1219
vn 0.8190 0.1553 0.5523
vn 0.7881 0.1207 0.6036
vn 0.9890 0.1339 -0.0632
vn -0.9777 0.1693 0.1240
vn -0.8193 0.1610 -0.5503
vn -0.7884 0.1258 -0.6021
vn -0.9894 0.1302 0.0648
vn -0.1231 0.1768 -0.9765
vn 0.5512 0.1637 -0.8181
vn 0.6027 0.1290 -0.7875
vn -0.0642 0.1380 -0.9884
vn -0.9081 0.0313 -0.4176
vn -0.9588 0.0286 0.2825
vn -0.9558 0.0361 0.2917
vn -0.9118 0.0403 -0.4087
vn 0.5162 0.0441 -0.8553
vn -0.1736 0.0480 -0.9836
vn -0.1989 0.0347 -0.9794
vn 0.4943 0.0325 -0.8687
vn 0.8556 0.0355 0.5165
vn 0.9839 0.0433 -0.1733
vn 0.9796 0.0302 -0.1987
vn 0.8689 0.0240 0.4944
vn -0.8556 0.0415 -0.5160
vn -0.9839 0.0404 0.1739
vn -0.9796 0.0270 0.1991
vn -0.8689 0.0296 -0.4941
vn 0.2553 0.1088 0.9607
vn -0.4393 0.1019 0.8926
vn -0.4700 0.0936 0.8777
vn 0.2224 0.0996 0.9698
vn 0.9600 0.1164 -0.2546
vn 0.8919 0.1045 0.4399
vn 0.8770 0.0966 0.4706
vn 0.9692 0.1074 -0.2218
vn -0.9600 0.1135 0.2560
vn -0.8919 0.1104 -0.4386
vn -0.8771 0.1020 -0.4694
vn -0.9692 0.1040 0.2231
vn -0.2553 0.1210 -0.9593
vn 0.4393 0.1130 -0.8912
vn 0.4700 0.1050 -0.8764
vn -0.2225 0.1117 -0.9685
vn 0.4139 0.0544 -0.9087
vn -0.2859 0.0540 -0.9567
vn -0.2238 0.1401 -0.9645
vn 0.4657 0.1467 -0.8727
vn -0.4178 0.0228 0.9083
vn 0.2824 0.0240 0.9590
vn 0.2915 0.0315 0.9561
vn -0.4089 0.0318 0.9120
vn 0.4178 0.0340 -0.9079
vn -0.2823 0.0363 -0.9586
vn -0.2914 0.0438 -0.9556
vn 0.4089 0.0430 -0.9116
vn 0.9081 0.0254 0.4179
vn 0.9588 0.0316 -0.2822
vn 0.9559 0.0392 -0.2912
vn 0.9118 0.0345 0.4091
vn 0.2904 0.1248 0.9487
vn -0.4045 0.1253 0.9059
vn -0.4034 0.1447 0.9035
vn 0.2896 0.1442 0.9462
vn 0.9480 0.1324 -0.2895
vn 0.9051 0.1280 0.4054
vn 0.9026 0.1474 0.4044
vn 0.9454 0.1518 -0.2886
vn -0.9479 0.1294 0.2912
vn -0.9051 0.1337 -0.4037
vn -0.9025 0.1531 -0.4025
vn -0.9453 0.1487 0.2905
vn -0.2903 0.1370 -0.9471
vn 0.4046 0.1365 -0.9043
vn 0.4035 0.1558 -0.9016
vn -0.2895 0.1563 -0.9443
vn 0.9216 -0.0397 0.3860
vn 0.9482 -0.0497 -0.3136
vn 0.9787 0.1378 -0.1519
vn 0.8640 0.1398 0.4837
vn 0.9090 0.0459 0.4142
vn 0.9571 0.0493 -0.2856
vn 0.9655 0.1350 -0.2229
vn 0.8736 0.1382 0.4666
vn -0.9090 0.0517 -0.4135
vn -0.9570 0.0463 0.2862
vn -0.9653 0.1330 0.2247
vn -0.8736 0.1447 -0.4647
vn -0.4138 0.0432 0.9093
vn 0.2859 0.0417 0.9573
vn 0.2238 0.1278 0.9662
vn -0.4657 0.1362 0.8744
vn -0.6616 -0.0293 0.7493
vn -0.9913 0.0212 0.1296
vn -0.6157 0.4386 0.6546
vn -0.0366 0.4026 0.9146
vn 0.7495 -0.0213 0.6616
vn 0.1292 0.0270 0.9912
vn 0.6517 0.4374 0.6197
vn 0.9129 0.4063 0.0390
vn -0.7491 -0.0297 -0.6618
vn -0.1297 0.0263 -0.9912
vn -0.6533 0.4454 -0.6122
vn -0.9121 0.4087 -0.0324
vn 0.6618 -0.0217 -0.7493
vn 0.9911 0.0322 -0.1293
vn 0.6163 0.4441 -0.6503
vn 0.0348 0.4124 -0.9103
vn 0.4249 0.6385 0.6417
vn 0.6380 0.6392 -0.4293
vn -0.4330 0.6324 -0.6424
vn -0.6461 0.6316 0.4286
vn -0.3858 -0.0476 0.9214
vn 0.3140 -0.0529 0.9479
vn 0.1510 0.1331 0.9795
vn -0.4846 0.1315 0.8648
vn 0.3864 -0.0438 -0.9213
vn -0.3132 -0.0580 -0.9479
vn -0.1527 0.1302 -0.9797
vn 0.4829 0.1367 -0.8649
vn -0.9210 -0.0517 -0.3861
vn -0.9476 -0.0612 0.3136
vn -0.9804 0.1256 0.1518
vn -0.8657 0.1284 -0.4838
vt 0.822343 0.552657
vt 0.849472 0.625000
vt 0.846482 0.625000
vt 0.820169 0.554831
vt 0.822343 0.697343
vt 0.820169 0.695169
vt 0.818135 0.693135
vt 0.843685 0.625000
vt 0.818135 0.556865
vt 0.375000 0.750000
vt 0.499201 0.750000
vt 0.500000 0.875000
vt 0.375000 0.875000
vt 0.625000 0.750000
vt 0.625000 0.875000
vt 0.625000 1.000000
vt 0.500000 1.000000
vt 0.375000 1.000000
vt 0.375000 0.000000
vt 0.500000 0.000000
vt 0.500000 0.125000
vt 0.375000 0.125000
vt 0.625000 0.000000
vt 0.625000 0.125000
vt 0.625000 0.250000
vt 0.500000 0.250000
vt 0.375000 0.250000
vt 0.125000 0.500000
vt 0.250000 0.500000
vt 0.250000 0.625000
vt 0.125000 0.625000
vt 0.375000 0.500000
vt 0.375000 0.625000
vt 0.250000 0.750000
vt 0.125000 0.750000
vt 0.499201 0.500000
vt 0.496803 0.625000
vt 0.625000 0.500000
vt 0.594624 0.625000
vt 0.500000 0.375000
vt 0.375000 0.375000
vt 0.625000 0.375000
vt 0.677657 0.697343
vt 0.750000 0.724472
vt 0.750000 0.732631
vt 0.668714 0.705486
vt 0.822343 0.697343
vt 0.830486 0.705486
vt 0.875000 0.750000
vt 0.750000 0.750000
vt 0.677657 0.552657
vt 0.650528 0.625000
vt 0.639172 0.625000
vt 0.668714 0.544514
vt 0.594624 0.625000
vt 0.849472 0.625000
vt 0.857631 0.625000
vt 0.830486 0.544514
vt 0.875000 0.500000
vt 0.875000 0.625000
vt 0.750000 0.525528
vt 0.750000 0.517369
vt 0.750000 0.500000
vt 0.810093 0.564907
vt 0.832627 0.625000
vt 0.829915 0.625000
vt 0.808120 0.566880
vt 0.810093 0.685093
vt 0.808120 0.683120
vt 0.806374 0.681374
vt 0.827514 0.625000
vt 0.806374 0.568626
vt 0.750000 0.724472
vt 0.750000 0.721482
vt 0.677657 0.697343
vt 0.679831 0.695169
vt 0.681865 0.693135
vt 0.750000 0.718686
vt 0.677657 0.552657
vt 0.750000 0.525528
vt 0.750000 0.528518
vt 0.679831 0.554831
vt 0.750000 0.531315
vt 0.681865 0.556865
vt 0.650528 0.625000
vt 0.653518 0.625000
vt 0.656315 0.625000
vt 0.689907 0.685093
vt 0.750000 0.707627
vt 0.750000 0.713157
vt 0.685886 0.689114
vt 0.810093 0.685093
vt 0.814114 0.689114
vt 0.818135 0.693135
vt 0.750000 0.718686
vt 0.681865 0.693135
vt 0.689907 0.564907
vt 0.667373 0.625000
vt 0.661844 0.625000
vt 0.685886 0.560886
vt 0.656315 0.625000
vt 0.832628 0.625000
vt 0.838156 0.625000
vt 0.810093 0.564907
vt 0.814114 0.560886
vt 0.843686 0.625000
vt 0.750000 0.542373
vt 0.750000 0.536844
vt 0.750000 0.531315
vt 0.799539 0.674539
vt 0.750000 0.693116
vt 0.750000 0.690900
vt 0.797928 0.672927
vt 0.700461 0.674539
vt 0.702073 0.672927
vt 0.703104 0.671896
vt 0.750000 0.689482
vt 0.796896 0.671896
vt 0.750000 0.707627
vt 0.750000 0.704915
vt 0.689907 0.685093
vt 0.691880 0.683120
vt 0.693626 0.681374
vt 0.750000 0.702514
vt 0.750000 0.542373
vt 0.750000 0.545085
vt 0.691880 0.566880
vt 0.750000 0.547486
vt 0.693626 0.568626
vt 0.667373 0.625000
vt 0.670085 0.625000
vt 0.672486 0.625000
vt 0.700461 0.674539
vt 0.750000 0.693117
vt 0.750000 0.697815
vt 0.697044 0.677956
vt 0.799539 0.674539
vt 0.802956 0.677956
vt 0.806374 0.681374
vt 0.750000 0.702514
vt 0.693627 0.681374
vt 0.700461 0.575461
vt 0.681884 0.625000
vt 0.677185 0.625000
vt 0.697044 0.572044
vt 0.672486 0.625000
vt 0.693627 0.568626
vt 0.818116 0.625000
vt 0.822815 0.625000
vt 0.799539 0.575461
vt 0.802956 0.572044
vt 0.806374 0.568627
vt 0.827514 0.625000
vt 0.750000 0.556884
vt 0.750000 0.552185
vt 0.750000 0.547486
vt 0.793158 0.581842
vt 0.809342 0.625000
vt 0.808001 0.625000
vt 0.792183 0.582818
vt 0.793158 0.668158
vt 0.792183 0.667183
vt 0.790963 0.665963
vt 0.806325 0.625000
vt 0.790963 0.584037
vt 0.700461 0.575461
vt 0.750000 0.556884
vt 0.750000 0.559100
vt 0.702073 0.577073
vt 0.799539 0.575461
vt 0.797927 0.577073
vt 0.796896 0.578104
vt 0.750000 0.560518
vt 0.703104 0.578104
vt 0.681884 0.625000
vt 0.684100 0.625000
vt 0.685518 0.625000
vt 0.815900 0.625000
vt 0.814482 0.625000
vt 0.706842 0.668158
vt 0.750000 0.684342
vt 0.750000 0.686912
vt 0.704973 0.670027
vt 0.795027 0.670027
vt 0.796896 0.671896
vt 0.703104 0.671896
vt 0.706842 0.581842
vt 0.690658 0.625000
vt 0.688088 0.625000
vt 0.704973 0.579973
vt 0.685518 0.625000
vt 0.809342 0.625000
vt 0.811912 0.625000
vt 0.793158 0.581842
vt 0.795027 0.579973
vt 0.796896 0.578104
vt 0.814482 0.625000
vt 0.750000 0.565658
vt 0.750000 0.563088
vt 0.714076 0.589076
vt 0.750000 0.575605
vt 0.750000 0.577445
vt 0.715414 0.590414
vt 0.785924 0.589076
vt 0.784586 0.590414
vt 0.782779 0.592222
vt 0.750000 0.579930
vt 0.717222 0.592222
vt 0.750000 0.684342
vt 0.750000 0.683001
vt 0.707818 0.667183
vt 0.709037 0.665963
vt 0.750000 0.681325
vt 0.706842 0.581842
vt 0.750000 0.565658
vt 0.750000 0.566999
vt 0.707818 0.582818
vt 0.750000 0.568676
vt 0.709037 0.584037
vt 0.690658 0.625000
vt 0.691999 0.625000
vt 0.693676 0.625000
vt 0.714076 0.660924
vt 0.750000 0.674395
vt 0.750000 0.677860
vt 0.711556 0.663444
vt 0.785924 0.660924
vt 0.788444 0.663444
vt 0.790963 0.665963
vt 0.750000 0.681324
vt 0.700605 0.625000
vt 0.697140 0.625000
vt 0.711556 0.586556
vt 0.693676 0.625000
vt 0.799395 0.625000
vt 0.802860 0.625000
vt 0.785924 0.589076
vt 0.788444 0.586557
vt 0.790963 0.584037
vt 0.806325 0.625000
vt 0.750000 0.575605
vt 0.750000 0.572140
vt 0.750000 0.568676
vt 0.724763 0.599764
vt 0.750000 0.590300
vt 0.750000 0.593920
vt 0.727413 0.602413
vt 0.775237 0.599763
vt 0.772587 0.602413
vt 0.767513 0.607487
vt 0.750000 0.603649
vt 0.732487 0.607487
vt 0.714076 0.660924
vt 0.700605 0.625000
vt 0.702444 0.625000
vt 0.715414 0.659586
vt 0.704930 0.625000
vt 0.717222 0.657779
vt 0.799395 0.625000
vt 0.797556 0.625000
vt 0.784586 0.659586
vt 0.782779 0.657779
vt 0.795071 0.625000
vt 0.750000 0.674395
vt 0.750000 0.672556
vt 0.750000 0.670071
vt 0.724763 0.650237
vt 0.750000 0.659700
vt 0.750000 0.664885
vt 0.720993 0.654008
vt 0.775237 0.650237
vt 0.779008 0.654008
vt 0.782779 0.657779
vt 0.750000 0.670071
vt 0.717221 0.657779
vt 0.724763 0.599763
vt 0.715300 0.625000
vt 0.710115 0.625000
vt 0.720993 0.595993
vt 0.704930 0.625000
vt 0.717221 0.592222
vt 0.784700 0.625000
vt 0.789885 0.625000
vt 0.775237 0.599764
vt 0.779008 0.595993
vt 0.782779 0.592222
vt 0.750000 0.590300
vt 0.750000 0.585115
vt 0.750000 0.579930
vt 0.750000 0.625000
vt 0.728649 0.625000
vt 0.771351 0.625000
vt 0.767513 0.642513
vt 0.750000 0.646351
vt 0.732487 0.642513
vt 0.724764 0.650237
vt 0.715300 0.625000
vt 0.718920 0.625000
vt 0.727413 0.647587
vt 0.784700 0.625000
vt 0.781081 0.625000
vt 0.772587 0.647587
vt 0.750000 0.656081
vt 0.750000 0.646351
s 0
usemtl Material
f 5/1/1 71/2/1 165/3/1 82/4/1
f 71/2/2 7/5/2 81/6/2 165/3/2
f 165/3/3 81/6/3 18/7/3 79/8/3
f 82/4/4 165/3/4 79/8/4 20/9/4
f 4/10/5 61/11/5 166/12/5 65/13/5
f 61/11/6 9/14/6 63/15/6 166/12/6
f 166/12/7 63/15/7 10/16/7 60/17/7
f 65/13/8 166/12/8 60/17/8 8/18/8
f 8/19/9 60/20/9 167/21/9 57/22/9
f 60/20/10 10/23/10 66/24/10 167/21/10
f 167/21/11 66/24/11 12/25/11 62/26/11
f 57/22/12 167/21/12 62/26/12 6/27/12
f 6/28/13 58/29/13 168/30/13 57/31/13
f 58/29/14 2/32/14 68/33/14 168/30/14
f 168/30/15 68/33/15 4/10/15 65/34/15
f 57/31/16 168/30/16 65/34/16 8/35/16
f 2/32/17 59/36/17 169/37/17 68/33/17
f 59/36/18 11/38/18 64/39/18 169/37/18
f 169/37/19 64/39/19 9/14/19 61/11/19
f 68/33/20 169/37/20 61/11/20 4/10/20
f 6/27/21 62/26/21 170/40/21 58/41/21
f 62/26/22 12/25/22 67/42/22 170/40/22
f 170/40/23 67/42/23 11/38/23 59/36/23
f 58/41/24 170/40/24 59/36/24 2/32/24
f 3/43/25 69/44/25 171/45/25 73/46/25
f 69/44/26 7/47/26 74/48/26 171/45/26
f 171/45/27 74/48/27 10/49/27 63/50/27
f 73/46/28 171/45/28 63/50/28 9/14/28
f 1/51/29 70/52/29 172/53/29 75/54/29
f 70/52/30 3/43/30 73/46/30 172/53/30
f 172/53/31 73/46/31 9/14/31 64/55/31
f 75/54/32 172/53/32 64/55/32 11/38/32
f 7/47/33 71/56/33 173/57/33 74/48/33
f 71/56/34 5/1/34 76/58/34 173/57/34
f 173/57/35 76/58/35 12/59/35 66/60/35
f 74/48/36 173/57/36 66/60/36 10/49/36
f 5/1/37 72/61/37 174/62/37 76/58/37
f 72/61/38 1/51/38 75/54/38 174/62/38
f 174/62/39 75/54/39 11/38/39 67/63/39
f 76/58/40 174/62/40 67/63/40 12/59/40
f 16/64/41 87/65/41 175/66/41 98/67/41
f 87/65/42 14/68/42 97/69/42 175/66/42
f 175/66/43 97/69/43 26/70/43 95/71/43
f 98/67/44 175/66/44 95/71/44 28/72/44
f 7/5/45 69/73/45 176/74/45 81/6/45
f 69/73/46 3/75/46 83/76/46 176/74/46
f 176/74/47 83/76/47 17/77/47 77/78/47
f 81/6/48 176/74/48 77/78/48 18/7/48
f 1/79/49 72/80/49 177/81/49 84/82/49
f 72/80/50 5/1/50 82/4/50 177/81/50
f 177/81/51 82/4/51 20/9/51 80/83/51
f 84/82/52 177/81/52 80/83/52 19/84/52
f 3/75/53 70/85/53 178/86/53 83/76/53
f 70/85/54 1/79/54 84/82/54 178/86/54
f 178/86/55 84/82/55 19/84/55 78/87/55
f 83/76/56 178/86/56 78/87/56 17/77/56
f 13/88/57 85/89/57 179/90/57 89/91/57
f 85/89/58 14/92/58 90/93/58 179/90/58
f 179/90/59 90/93/59 18/94/59 77/95/59
f 89/91/60 179/90/60 77/95/60 17/96/60
f 15/97/61 86/98/61 180/99/61 91/100/61
f 86/98/62 13/88/62 89/91/62 180/99/62
f 180/99/63 89/91/63 17/96/63 78/101/63
f 91/100/64 180/99/64 78/101/64 19/84/64
f 14/92/65 87/102/65 181/103/65 90/93/65
f 87/102/66 16/104/66 92/105/66 181/103/66
f 181/103/67 92/105/67 20/9/67 79/106/67
f 90/93/68 181/103/68 79/106/68 18/94/68
f 16/104/69 88/107/69 182/108/69 92/105/69
f 88/107/70 15/97/70 91/100/70 182/108/70
f 182/108/71 91/100/71 19/84/71 80/109/71
f 92/105/72 182/108/72 80/109/72 20/9/72
f 22/110/73 101/111/73 183/112/73 114/113/73
f 101/111/74 21/114/74 113/115/74 183/112/74
f 183/112/75 113/115/75 33/116/75 109/117/75
f 114/113/76 183/112/76 109/117/76 34/118/76
f 14/68/77 85/119/77 184/120/77 97/69/77
f 85/119/78 13/121/78 99/122/78 184/120/78
f 184/120/79 99/122/79 25/123/79 93/124/79
f 97/69/80 184/120/80 93/124/80 26/70/80
f 15/97/81 88/125/81 185/126/81 100/127/81
f 88/125/82 16/64/82 98/67/82 185/126/82
f 185/126/83 98/67/83 28/72/83 96/128/83
f 100/127/84 185/126/84 96/128/84 27/129/84
f 13/121/85 86/130/85 186/131/85 99/122/85
f 86/130/86 15/97/86 100/127/86 186/131/86
f 186/131/87 100/127/87 27/129/87 94/132/87
f 99/122/88 186/131/88 94/132/88 25/123/88
f 21/133/89 101/134/89 187/135/89 105/136/89
f 101/134/90 22/137/90 106/138/90 187/135/90
f 187/135/91 106/138/91 26/139/91 93/140/91
f 105/136/92 187/135/92 93/140/92 25/141/92
f 23/142/93 102/143/93 188/144/93 107/145/93
f 102/143/94 21/133/94 105/136/94 188/144/94
f 188/144/95 105/136/95 25/141/95 94/146/95
f 107/145/96 188/144/96 94/146/96 27/147/96
f 22/137/97 103/148/97 189/149/97 106/138/97
f 103/148/98 24/150/98 108/151/98 189/149/98
f 189/149/99 108/151/99 28/152/99 95/153/99
f 106/138/100 189/149/100 95/153/100 26/139/100
f 24/150/101 104/154/101 190/155/101 108/151/101
f 104/154/102 23/142/102 107/145/102 190/155/102
f 190/155/103 107/145/103 27/147/103 96/156/103
f 108/151/104 190/155/104 96/156/104 28/152/104
f 32/157/105 119/158/105 191/159/105 130/160/105
f 119/158/106 30/161/106 129/162/106 191/159/106
f 191/159/107 129/162/107 42/163/107 127/164/107
f 130/160/108 191/159/108 127/164/108 44/165/108
f 23/166/109 104/167/109 192/168/109 116/169/109
f 104/167/110 24/170/110 115/171/110 192/168/110
f 192/168/111 115/171/111 36/172/111 112/173/111
f 116/169/112 192/168/112 112/173/112 35/174/112
f 21/114/113 102/175/113 193/176/113 113/115/113
f 102/175/114 23/166/114 116/169/114 193/176/114
f 193/176/115 116/169/115 35/174/115 110/177/115
f 113/115/116 193/176/116 110/177/116 33/116/116
f 24/170/117 103/148/117 194/178/117 115/171/117
f 103/148/118 22/110/118 114/113/118 194/178/118
f 194/178/119 114/113/119 34/118/119 111/179/119
f 115/171/120 194/178/120 111/179/120 36/172/120
f 29/180/121 117/181/121 195/182/121 121/183/121
f 117/181/122 30/161/122 122/184/122 195/182/122
f 195/182/123 122/184/123 34/185/123 109/117/123
f 121/183/124 195/182/124 109/117/124 33/186/124
f 31/187/125 118/188/125 196/189/125 123/190/125
f 118/188/126 29/180/126 121/183/126 196/189/126
f 196/189/127 121/183/127 33/186/127 110/191/127
f 123/190/128 196/189/128 110/191/128 35/174/128
f 30/161/129 119/192/129 197/193/129 122/184/129
f 119/192/130 32/194/130 124/195/130 197/193/130
f 197/193/131 124/195/131 36/196/131 111/197/131
f 122/184/132 197/193/132 111/197/132 34/185/132
f 32/194/133 120/198/133 198/199/133 124/195/133
f 120/198/134 31/187/134 123/190/134 198/199/134
f 198/199/135 123/190/135 35/174/135 112/173/135
f 124/195/136 198/199/136 112/173/136 36/196/136
f 39/200/137 136/201/137 199/202/137 146/203/137
f 136/201/138 40/204/138 145/205/138 199/202/138
f 199/202/139 145/205/139 52/206/139 144/207/139
f 146/203/140 199/202/140 144/207/140 51/208/140
f 30/161/141 117/209/141 200/210/141 129/162/141
f 117/209/142 29/180/142 131/211/142 200/210/142
f 200/210/143 131/211/143 41/212/143 125/213/143
f 129/162/144 200/210/144 125/213/144 42/163/144
f 31/214/145 120/215/145 201/216/145 132/217/145
f 120/215/146 32/157/146 130/160/146 201/216/146
f 201/216/147 130/160/147 44/165/147 128/218/147
f 132/217/148 201/216/148 128/218/148 43/219/148
f 29/180/149 118/220/149 202/221/149 131/211/149
f 118/220/150 31/214/150 132/217/150 202/221/150
f 202/221/151 132/217/151 43/219/151 126/222/151
f 131/211/152 202/221/152 126/222/152 41/212/152
f 37/223/153 133/224/153 203/225/153 137/226/153
f 133/224/154 38/227/154 138/228/154 203/225/154
f 203/225/155 138/228/155 42/229/155 125/230/155
f 137/226/156 203/225/156 125/230/156 41/212/156
f 39/200/157 134/231/157 204/232/157 139/233/157
f 134/231/158 37/223/158 137/226/158 204/232/158
f 204/232/159 137/226/159 41/212/159 126/234/159
f 139/233/160 204/232/160 126/234/160 43/219/160
f 38/227/161 135/235/161 205/236/161 138/228/161
f 135/235/162 40/237/162 140/238/162 205/236/162
f 205/236/163 140/238/163 44/239/163 127/240/163
f 138/228/164 205/236/164 127/240/164 42/229/164
f 40/237/165 136/241/165 206/242/165 140/238/165
f 136/241/166 39/200/166 139/233/166 206/242/166
f 206/242/167 139/233/167 43/219/167 128/243/167
f 140/238/168 206/242/168 128/243/168 44/239/168
f 47/244/169 152/245/169 207/246/169 162/247/169
f 152/245/170 48/248/170 161/249/170 207/246/170
f 207/246/171 161/249/171 56/250/171 160/251/171
f 162/247/172 207/246/172 160/251/172 55/252/172
f 37/253/173 134/254/173 208/255/173 147/256/173
f 134/254/174 39/200/174 146/203/174 208/255/174
f 208/255/175 146/203/175 51/208/175 142/257/175
f 147/256/176 208/255/176 142/257/176 49/258/176
f 40/204/177 135/259/177 209/260/177 145/205/177
f 135/259/178 38/227/178 148/261/178 209/260/178
f 209/260/179 148/261/179 50/262/179 143/263/179
f 145/205/180 209/260/180 143/263/180 52/206/180
f 38/227/181 133/264/181 210/265/181 148/261/181
f 133/264/182 37/253/182 147/256/182 210/265/182
f 210/265/183 147/256/183 49/258/183 141/266/183
f 148/261/184 210/265/184 141/266/184 50/262/184
f 45/267/185 149/268/185 211/269/185 153/270/185
f 149/268/186 46/271/186 154/272/186 211/269/186
f 211/269/187 154/272/187 50/273/187 141/274/187
f 153/270/188 211/269/188 141/274/188 49/275/188
f 47/276/189 150/277/189 212/278/189 155/279/189
f 150/277/190 45/267/190 153/270/190 212/278/190
f 212/278/191 153/270/191 49/275/191 142/280/191
f 155/279/192 212/278/192 142/280/192 51/281/192
f 46/271/193 151/282/193 213/283/193 154/272/193
f 151/282/194 48/284/194 156/285/194 213/283/194
f 213/283/195 156/285/195 52/286/195 143/263/195
f 154/272/196 213/283/196 143/263/196 50/273/196
f 48/284/197 152/287/197 214/288/197 156/285/197
f 152/287/198 47/276/198 155/279/198 214/288/198
f 214/288/199 155/279/199 51/281/199 144/289/199
f 156/285/200 214/288/200 144/289/200 52/286/200
f 55/252/201 160/251/201 215/290/201 158/291/201
f 160/251/202 56/250/202 159/292/202 215/290/202
f 215/290/203 159/292/203 54/293/203 157/294/203
f 158/291/204 215/290/204 157/294/204 53/295/204
f 45/296/205 150/297/205 216/298/205 163/299/205
f 150/297/206 47/244/206 162/247/206 216/298/206
f 216/298/207 162/247/207 55/252/207 158/291/207
f 163/299/208 216/298/208 158/291/208 53/295/208
f 48/248/209 151/300/209 217/301/209 161/249/209
f 151/300/210 46/271/210 164/302/210 217/301/210
f 217/301/211 164/302/211 54/293/211 159/292/211
f 161/249/212 217/301/212 159/292/212 56/250/212
f 46/271/213 149/268/213 218/303/213 164/302/213
f 149/268/214 45/296/214 163/299/214 218/303/214
f 218/303/215 163/299/215 53/295/215 157/304/215
f 164/302/216 218/303/216 157/304/216 54/293/216
