# Made in Blockbench 4.12.3
mtllib стакан стеклянный.mtl

o cylinder
v 0 0 0
v 0.12944173824159222 0 0.3125
v 0.1812184335382291 1.125 0.4375
v 0.3125 0 0.12944173824159222
v 0.4375 1.125 0.18121843353822914
v 0.3125 0 -0.1294417382415922
v 0.4375 1.125 -0.18121843353822908
v 0.12944173824159225 0 -0.3125
v 0.18121843353822914 1.125 -0.4375
v -0.12944173824159216 0 -0.3125
v -0.18121843353822906 1.125 -0.4375
v -0.3124999999999999 0 -0.12944173824159239
v -0.4374999999999998 1.125 -0.18121843353822933
v -0.31249999999999994 0 0.1294417382415923
v -0.4375 1.125 0.18121843353822922
v -0.1294417382415924 0 0.3124999999999999
v -0.1812184335382294 1.125 0.43749999999999983
vt 0.3382483324630921 0.7608249388937788
vt 0.23918031808428092 1
vt 0 0.7608249388937787
vt 0 -0.125
vt 0.2588875 -0.125
vt 0.2588875 1
vt 0 1
vt 0.3125 0.7411125000000001
vt 0.3125 1
vt 0 0.87055625
vt 0 -0.125
vt 0.2588875 -0.125
vt 0.2588875 1
vt 0 1
vt 8.326672684688674e-17 0.661751667536908
vt 0.23917506110622128 0.7608196819157191
vt 0 1
vt 0 -0.125
vt 0.2588875 -0.125
vt 0.2588875 1
vt 0 1
vt 0 0.6875
vt 0.2588875 0.6875
vt 0.12944375 1
vt 0 -0.125
vt 0.2588875 -0.125
vt 0.2588875 1
vt 0 1
vt 0 0.9999999999999999
vt 0.09906801437881119 0.7608249388937787
vt 0.3382483324630921 1
vt 0 -0.125
vt 0.2588875 -0.125
vt 0.2588875 1
vt 0 1
vt 0 1
vt 0 0.7411125000000001
vt 0.3125 0.87055625
vt 0 -0.125
vt 0.2588875 -0.125
vt 0.2588875 1
vt 0 1
vt 0.2391750611062212 1
vt 0 0.9009319856211888
vt 0.23917506110622128 0.661751667536908
vt 0 -0.125
vt 0.2588875 -0.125
vt 0.2588875 1
vt 0 1
vt 0.2588875 1
vt 0 1
vt 0.12944375 0.6875
vt 0 -0.125
vt 0.2588875 -0.125
vt 0.2588875 1
vt 0 1
vn 0 -1 0
vn 0.7027819284987273 -0.11043152607484656 0.7027819284987273
vn 0 -1 0
vn 0.9938837346736189 -0.11043152607484655 0
vn 0 -1 0
vn 0.7027819284987274 -0.11043152607484655 -0.7027819284987273
vn 0 -1 0
vn 0 -0.11043152607484655 -0.9938837346736189
vn 0 -1 0
vn -0.7027819284987271 -0.11043152607484652 -0.7027819284987276
vn 0 -1 0
vn -0.9938837346736189 -0.1104315260748466 -2.1311375701236836e-16
vn 0 -1 0
vn -0.7027819284987274 -0.11043152607484658 0.7027819284987272
vn 0 -1 0
vn -4.262275140247367e-16 -0.11043152607484653 0.9938837346736189
usemtl none
f 4/1/1 2/2/1 1/3/1
f 2/4/2 4/5/2 5/6/2 3/7/2
f 6/8/3 4/9/3 1/10/3
f 4/11/4 6/12/4 7/13/4 5/14/4
f 8/15/5 6/16/5 1/17/5
f 6/18/6 8/19/6 9/20/6 7/21/6
f 10/22/7 8/23/7 1/24/7
f 8/25/8 10/26/8 11/27/8 9/28/8
f 12/29/9 10/30/9 1/31/9
f 10/32/10 12/33/10 13/34/10 11/35/10
f 14/36/11 12/37/11 1/38/11
f 12/39/12 14/40/12 15/41/12 13/42/12
f 16/43/13 14/44/13 1/45/13
f 14/46/14 16/47/14 17/48/14 15/49/14
f 2/50/15 16/51/15 1/52/15
f 16/53/16 2/54/16 3/55/16 17/56/16