# Blender 4.5.3 LTS
# www.blender.org
mtllib стол кривой.mtl
o Cube
v 2.125580 0.029690 1.391901
v 2.125580 -0.175741 1.391901
v 0.029651 0.029690 1.391901
v 0.029651 -0.175741 1.391901
v 2.125580 0.029690 -0.000467
v 2.125580 -0.175741 -0.000467
v 0.029651 -0.175741 -0.000467
v 0.029651 0.029690 -0.000467
v 1.077615 -0.175741 1.391901
v 1.077615 0.029690 1.391901
v 1.077615 0.029690 -0.000467
v 1.077615 -0.175741 -0.000467
v 1.601598 -0.175741 1.391901
v 1.601598 0.029690 -0.000467
v 1.601598 0.029690 1.391901
v 1.601598 -0.175741 -0.000467
v 2.125580 0.029690 0.695717
v 0.029651 -0.175741 0.695717
v 0.029651 0.029690 0.695717
v 2.125580 -0.175741 0.695717
v 1.077615 0.029690 0.695717
v 1.077615 -0.175741 0.695717
v 1.601598 0.029690 0.695717
v 1.601598 -0.175741 0.695717
v 2.125580 0.029690 1.043809
v 0.029651 -0.175741 1.043809
v 0.029651 0.029690 1.043809
v 1.077615 0.029690 1.043809
v 1.077615 -0.175741 1.043809
v 1.601598 0.029690 1.043809
v 1.601598 -0.175741 1.043809
v 2.125580 -0.175741 1.043809
v 1.601598 -0.379331 0.695717
v 1.293178 -0.342215 0.687029
v 1.293178 -0.342215 1.035121
v 1.601598 -0.379331 1.043809
v 1.339607 0.029690 1.391901
v 1.339607 -0.175741 -0.000467
v 1.339607 -0.175741 1.391901
v 1.339607 0.029690 -0.000467
v 1.339607 -0.175741 0.695717
v 1.339607 0.029690 0.695717
v 1.339607 -0.175741 1.043809
v 1.339607 0.029690 1.043809
v 1.339607 -0.379331 0.695717
v 1.339607 -0.379331 1.043809
v 1.601598 -1.452111 0.695717
v 1.601598 -1.452111 1.043809
v 1.339607 -1.452111 0.695717
v 1.339607 -1.452111 1.043809
v -2.066279 0.029690 1.391901
v -2.066279 -0.175741 1.391901
v -2.066279 0.029690 -0.000467
v -2.066279 -0.175741 -0.000467
v -1.018314 -0.175741 1.391901
v -1.018314 0.029690 1.391901
v -1.018314 0.029690 -0.000467
v -1.018314 -0.175741 -0.000467
v -1.542296 -0.175741 1.391901
v -1.542296 0.029690 -0.000467
v -1.542296 0.029690 1.391901
v -1.542296 -0.175741 -0.000467
v -2.066279 0.029690 0.695717
v -2.066279 -0.175741 0.695717
v -1.018314 0.029690 0.695717
v -1.018314 -0.175741 0.695717
v -1.542296 0.029690 0.695717
v -1.542296 -0.175741 0.695717
v -2.066279 0.029690 1.043809
v -1.018314 0.029690 1.043809
v -1.018314 -0.175741 1.043809
v -1.542296 0.029690 1.043809
v -1.542296 -0.175741 1.043809
v -2.066279 -0.175741 1.043809
v -1.542296 -0.379331 0.695717
v -1.233877 -0.342215 0.687029
v -1.233877 -0.342215 1.035121
v -1.542296 -0.379331 1.043809
v -1.280305 0.029690 1.391901
v -1.280305 -0.175741 -0.000467
v -1.280305 -0.175741 1.391901
v -1.280305 0.029690 -0.000467
v -1.280305 -0.175741 0.695717
v -1.280305 0.029690 0.695717
v -1.280305 -0.175741 1.043809
v -1.280305 0.029690 1.043809
v -1.280305 -0.379331 0.695717
v -1.280305 -0.379331 1.043809
v -1.542296 -1.452111 0.695717
v -1.542296 -1.452111 1.043809
v -1.280305 -1.452111 0.695717
v -1.280305 -1.452111 1.043809
v 2.125580 0.029690 -1.392834
v 2.125580 -0.175741 -1.392834
v 0.029651 0.029690 -1.392834
v 0.029651 -0.175741 -1.392834
v 1.077615 -0.175741 -1.392834
v 1.077615 0.029690 -1.392834
v 1.601598 -0.175741 -1.392834
v 1.601598 0.029690 -1.392834
v 2.125580 0.029690 -0.696650
v 0.029651 -0.175741 -0.696650
v 0.029651 0.029690 -0.696650
v 2.125580 -0.175741 -0.696650
v 1.077615 0.029690 -0.696650
v 1.077615 -0.175741 -0.696650
v 1.601598 0.029690 -0.696650
v 1.601598 -0.175741 -0.696650
v 2.125580 0.029690 -1.044742
v 0.029651 -0.175741 -1.044742
v 0.029651 0.029690 -1.044742
v 1.077615 0.029690 -1.044742
v 1.077615 -0.175741 -1.044742
v 1.601598 0.029690 -1.044742
v 1.601598 -0.175741 -1.044742
v 2.125580 -0.175741 -1.044742
v 1.601598 -0.379331 -0.696650
v 1.293178 -0.342215 -0.687962
v 1.293178 -0.342215 -1.036054
v 1.601598 -0.379331 -1.044742
v 1.339607 0.029690 -1.392834
v 1.339607 -0.175741 -1.392834
v 1.339607 -0.175741 -0.696650
v 1.339607 0.029690 -0.696650
v 1.339607 -0.175741 -1.044742
v 1.339607 0.029690 -1.044742
v 1.339607 -0.379331 -0.696650
v 1.339607 -0.379331 -1.044742
v 1.601598 -1.452111 -0.696650
v 1.601598 -1.452111 -1.044742
v 1.339607 -1.452111 -0.696650
v 1.339607 -1.452111 -1.044742
v -2.066279 0.029690 -1.392834
v -2.066279 -0.175741 -1.392834
v -1.018314 -0.175741 -1.392834
v -1.018314 0.029690 -1.392834
v -1.542296 -0.175741 -1.392834
v -1.542296 0.029690 -1.392834
v -2.066279 0.029690 -0.696650
v -2.066279 -0.175741 -0.696650
v -1.018314 0.029690 -0.696650
v -1.018314 -0.175741 -0.696650
v -1.542296 0.029690 -0.696650
v -1.542296 -0.175741 -0.696650
v -2.066279 0.029690 -1.044742
v -1.018314 0.029690 -1.044742
v -1.018314 -0.175741 -1.044742
v -1.542296 0.029690 -1.044742
v -1.542296 -0.175741 -1.044742
v -2.066279 -0.175741 -1.044742
v -1.542296 -0.379331 -0.696650
v -1.233877 -0.342215 -0.687962
v -1.233877 -0.342215 -1.036054
v -1.542296 -0.379331 -1.044742
v -1.280305 0.029690 -1.392834
v -1.280305 -0.175741 -1.392834
v -1.280305 -0.175741 -0.696650
v -1.280305 0.029690 -0.696650
v -1.280305 -0.175741 -1.044742
v -1.280305 0.029690 -1.044742
v -1.280305 -0.379331 -0.696650
v -1.280305 -0.379331 -1.044742
v -1.542296 -1.452111 -0.696650
v -1.542296 -1.452111 -1.044742
v -1.280305 -1.452111 -0.696650
v -1.280305 -1.452111 -1.044742
vn -0.0000 -1.0000 -0.0000
vn 1.0000 -0.0000 -0.0000
vn -0.0000 -0.0000 1.0000
vn -0.0000 1.0000 -0.0000
vn -0.0333 -0.0428 0.9985
vn -0.0000 -0.0000 -1.0000
vn -0.6112 -0.7915 -0.0000
vn 0.0333 0.0428 -0.9985
vn -0.6244 -0.7811 -0.0000
vn -1.0000 -0.0000 -0.0000
vn 0.0333 -0.0428 0.9985
vn 0.6112 -0.7915 -0.0000
vn -0.0333 0.0428 -0.9985
vn 0.6244 -0.7811 -0.0000
vn -0.0333 -0.0428 -0.9985
vn 0.0333 0.0428 0.9985
vn 0.0333 -0.0428 -0.9985
vn -0.0333 0.0428 0.9985
vt 0.343750 0.718750
vt 0.375000 0.718750
vt 0.375000 0.750000
vt 0.343750 0.750000
vt 0.625000 0.718750
vt 0.625000 0.750000
vt 0.375000 0.812500
vt 0.625000 0.812500
vt 0.625000 0.875000
vt 0.375000 0.875000
vt 0.687500 0.718750
vt 0.750000 0.718750
vt 0.750000 0.750000
vt 0.687500 0.750000
vt 0.671875 0.718750
vt 0.671875 0.750000
vt 0.375000 0.796875
vt 0.625000 0.796875
vt 0.250000 0.718750
vt 0.312500 0.718750
vt 0.312500 0.750000
vt 0.250000 0.750000
vt 0.625000 0.781250
vt 0.375000 0.781250
vt 0.656250 0.718750
vt 0.656250 0.750000
vt 0.328125 0.718750
vt 0.328125 0.750000
vt 0.328125 0.625000
vt 0.343750 0.625000
vt 0.343750 0.687500
vt 0.328125 0.687500
vt 0.625000 0.625000
vt 0.656250 0.625000
vt 0.656250 0.687500
vt 0.625000 0.687500
vt 0.250000 0.625000
vt 0.312500 0.625000
vt 0.312500 0.687500
vt 0.250000 0.687500
vt 0.671875 0.625000
vt 0.687500 0.625000
vt 0.687500 0.687500
vt 0.671875 0.687500
vt 0.750000 0.625000
vt 0.750000 0.687500
vt 0.375000 0.625000
vt 0.375000 0.687500
s 0
usemtl Material
f 31/1/1 32/2/1 2/3/1 13/4/1
f 32/2/2 25/5/2 1/6/2 2/3/2
f 9/7/3 10/8/3 3/9/3 4/10/3
f 28/11/4 27/12/4 3/13/4 10/14/4
f 44/15/4 28/11/4 10/14/4 37/16/4
f 39/17/3 37/18/3 10/8/3 9/7/3
f 26/19/1 29/20/1 9/21/1 4/22/1
f 2/3/3 1/6/3 15/23/3 13/24/3
f 25/5/4 30/25/4 15/26/4 1/6/4
f 43/27/1 31/1/1 13/4/1 39/28/1
f 38/29/1 16/30/1 24/31/1 41/32/1
f 5/33/4 14/34/4 23/35/4 17/36/4
f 7/37/1 12/38/1 22/39/1 18/40/1
f 40/41/4 11/42/4 21/43/4 42/44/4
f 11/42/4 8/45/4 19/46/4 21/43/4
f 6/47/2 5/33/2 17/36/2 20/48/2
f 16/30/1 6/47/1 20/48/1 24/31/1
f 43/27/5 29/20/5 35/20/5 46/27/5
f 17/36/4 23/35/4 30/25/4 25/5/4
f 18/40/1 22/39/1 29/20/1 26/19/1
f 42/44/4 21/43/4 28/11/4 44/15/4
f 21/43/4 19/46/4 27/12/4 28/11/4
f 20/48/2 17/36/2 25/5/2 32/2/2
f 24/31/1 20/48/1 32/2/1 31/1/1
f 45/32/6 33/31/6 47/31/6 49/32/6
f 24/31/2 31/1/2 36/1/2 33/31/2
f 41/32/6 24/31/6 33/31/6 45/32/6
f 29/20/7 22/39/7 34/39/7 35/20/7
f 22/39/8 41/32/8 45/32/8 34/39/8
f 34/39/9 45/32/9 46/27/9 35/20/9
f 23/35/4 42/44/4 44/15/4 30/25/4
f 31/1/3 43/27/3 46/27/3 36/1/3
f 14/34/4 40/41/4 42/44/4 23/35/4
f 12/38/1 38/29/1 41/32/1 22/39/1
f 29/20/1 43/27/1 39/28/1 9/21/1
f 13/24/3 15/23/3 37/18/3 39/17/3
f 30/25/4 44/15/4 37/16/4 15/26/4
f 49/32/1 47/31/1 48/1/1 50/27/1
f 46/27/10 45/32/10 49/32/10 50/27/10
f 36/1/3 46/27/3 50/27/3 48/1/3
f 33/31/2 36/1/2 48/1/2 47/31/2
f 73/1/1 59/4/1 52/3/1 74/2/1
f 74/2/10 52/3/10 51/6/10 69/5/10
f 55/7/3 4/10/3 3/9/3 56/8/3
f 70/11/4 56/14/4 3/13/4 27/12/4
f 86/15/4 79/16/4 56/14/4 70/11/4
f 81/17/3 55/7/3 56/8/3 79/18/3
f 26/19/1 4/22/1 55/21/1 71/20/1
f 52/3/3 59/24/3 61/23/3 51/6/3
f 69/5/4 51/6/4 61/26/4 72/25/4
f 85/27/1 81/28/1 59/4/1 73/1/1
f 80/29/1 83/32/1 68/31/1 62/30/1
f 53/33/4 63/36/4 67/35/4 60/34/4
f 7/37/1 18/40/1 66/39/1 58/38/1
f 82/41/4 84/44/4 65/43/4 57/42/4
f 57/42/4 65/43/4 19/46/4 8/45/4
f 54/47/10 64/48/10 63/36/10 53/33/10
f 62/30/1 68/31/1 64/48/1 54/47/1
f 85/27/11 88/27/11 77/20/11 71/20/11
f 63/36/4 69/5/4 72/25/4 67/35/4
f 18/40/1 26/19/1 71/20/1 66/39/1
f 84/44/4 86/15/4 70/11/4 65/43/4
f 65/43/4 70/11/4 27/12/4 19/46/4
f 64/48/10 74/2/10 69/5/10 63/36/10
f 68/31/1 73/1/1 74/2/1 64/48/1
f 87/32/6 91/32/6 89/31/6 75/31/6
f 68/31/10 75/31/10 78/1/10 73/1/10
f 83/32/6 87/32/6 75/31/6 68/31/6
f 71/20/12 77/20/12 76/39/12 66/39/12
f 66/39/13 76/39/13 87/32/13 83/32/13
f 76/39/14 77/20/14 88/27/14 87/32/14
f 67/35/4 72/25/4 86/15/4 84/44/4
f 73/1/3 78/1/3 88/27/3 85/27/3
f 60/34/4 67/35/4 84/44/4 82/41/4
f 58/38/1 66/39/1 83/32/1 80/29/1
f 71/20/1 55/21/1 81/28/1 85/27/1
f 59/24/3 81/17/3 79/18/3 61/23/3
f 72/25/4 61/26/4 79/16/4 86/15/4
f 91/32/1 92/27/1 90/1/1 89/31/1
f 88/27/2 92/27/2 91/32/2 87/32/2
f 78/1/3 90/1/3 92/27/3 88/27/3
f 75/31/10 89/31/10 90/1/10 78/1/10
f 115/1/1 99/4/1 94/3/1 116/2/1
f 116/2/2 94/3/2 93/6/2 109/5/2
f 97/7/6 96/10/6 95/9/6 98/8/6
f 112/11/4 98/14/4 95/13/4 111/12/4
f 126/15/4 121/16/4 98/14/4 112/11/4
f 122/17/6 97/7/6 98/8/6 121/18/6
f 110/19/1 96/22/1 97/21/1 113/20/1
f 94/3/6 99/24/6 100/23/6 93/6/6
f 109/5/4 93/6/4 100/26/4 114/25/4
f 125/27/1 122/28/1 99/4/1 115/1/1
f 38/29/1 123/32/1 108/31/1 16/30/1
f 5/33/4 101/36/4 107/35/4 14/34/4
f 7/37/1 102/40/1 106/39/1 12/38/1
f 40/41/4 124/44/4 105/43/4 11/42/4
f 11/42/4 105/43/4 103/46/4 8/45/4
f 6/47/2 104/48/2 101/36/2 5/33/2
f 16/30/1 108/31/1 104/48/1 6/47/1
f 125/27/15 128/27/15 119/20/15 113/20/15
f 101/36/4 109/5/4 114/25/4 107/35/4
f 102/40/1 110/19/1 113/20/1 106/39/1
f 124/44/4 126/15/4 112/11/4 105/43/4
f 105/43/4 112/11/4 111/12/4 103/46/4
f 104/48/2 116/2/2 109/5/2 101/36/2
f 108/31/1 115/1/1 116/2/1 104/48/1
f 127/32/3 131/32/3 129/31/3 117/31/3
f 108/31/2 117/31/2 120/1/2 115/1/2
f 123/32/3 127/32/3 117/31/3 108/31/3
f 113/20/7 119/20/7 118/39/7 106/39/7
f 106/39/16 118/39/16 127/32/16 123/32/16
f 118/39/9 119/20/9 128/27/9 127/32/9
f 107/35/4 114/25/4 126/15/4 124/44/4
f 115/1/6 120/1/6 128/27/6 125/27/6
f 14/34/4 107/35/4 124/44/4 40/41/4
f 12/38/1 106/39/1 123/32/1 38/29/1
f 113/20/1 97/21/1 122/28/1 125/27/1
f 99/24/6 122/17/6 121/18/6 100/23/6
f 114/25/4 100/26/4 121/16/4 126/15/4
f 131/32/1 132/27/1 130/1/1 129/31/1
f 128/27/10 132/27/10 131/32/10 127/32/10
f 120/1/6 130/1/6 132/27/6 128/27/6
f 117/31/2 129/31/2 130/1/2 120/1/2
f 149/1/1 150/2/1 134/3/1 137/4/1
f 150/2/10 145/5/10 133/6/10 134/3/10
f 135/7/6 136/8/6 95/9/6 96/10/6
f 146/11/4 111/12/4 95/13/4 136/14/4
f 160/15/4 146/11/4 136/14/4 155/16/4
f 156/17/6 155/18/6 136/8/6 135/7/6
f 110/19/1 147/20/1 135/21/1 96/22/1
f 134/3/6 133/6/6 138/23/6 137/24/6
f 145/5/4 148/25/4 138/26/4 133/6/4
f 159/27/1 149/1/1 137/4/1 156/28/1
f 80/29/1 62/30/1 144/31/1 157/32/1
f 53/33/4 60/34/4 143/35/4 139/36/4
f 7/37/1 58/38/1 142/39/1 102/40/1
f 82/41/4 57/42/4 141/43/4 158/44/4
f 57/42/4 8/45/4 103/46/4 141/43/4
f 54/47/10 53/33/10 139/36/10 140/48/10
f 62/30/1 54/47/1 140/48/1 144/31/1
f 159/27/17 147/20/17 153/20/17 162/27/17
f 139/36/4 143/35/4 148/25/4 145/5/4
f 102/40/1 142/39/1 147/20/1 110/19/1
f 158/44/4 141/43/4 146/11/4 160/15/4
f 141/43/4 103/46/4 111/12/4 146/11/4
f 140/48/10 139/36/10 145/5/10 150/2/10
f 144/31/1 140/48/1 150/2/1 149/1/1
f 161/32/3 151/31/3 163/31/3 165/32/3
f 144/31/10 149/1/10 154/1/10 151/31/10
f 157/32/3 144/31/3 151/31/3 161/32/3
f 147/20/12 142/39/12 152/39/12 153/20/12
f 142/39/18 157/32/18 161/32/18 152/39/18
f 152/39/14 161/32/14 162/27/14 153/20/14
f 143/35/4 158/44/4 160/15/4 148/25/4
f 149/1/6 159/27/6 162/27/6 154/1/6
f 60/34/4 82/41/4 158/44/4 143/35/4
f 58/38/1 80/29/1 157/32/1 142/39/1
f 147/20/1 159/27/1 156/28/1 135/21/1
f 137/24/6 138/23/6 155/18/6 156/17/6
f 148/25/4 160/15/4 155/16/4 138/26/4
f 165/32/1 163/31/1 164/1/1 166/27/1
f 162/27/2 161/32/2 165/32/2 166/27/2
f 154/1/6 162/27/6 166/27/6 164/1/6
f 151/31/10 154/1/10 164/1/10 163/31/10
