# Made in Blockbench 4.12.3
mtllib стакан бумажный.mtl

o cylinder
v -2.2875474408485352e-18 1.0625 2.2875474408485352e-18
v -2.2875474408485352e-18 1.25 2.2875474408485352e-18
v 0.1941626073623883 1.0625 0.46875
v 0.1941626073623883 1.25 0.46875
v 0.46875 1.0625 0.19416260736238833
v 0.46875 1.25 0.19416260736238833
v 0.46875 1.0625 -0.1941626073623883
v 0.46875 1.25 -0.1941626073623883
v 0.19416260736238836 1.0625 -0.46875
v 0.19416260736238836 1.25 -0.46875
v -0.19416260736238827 1.0625 -0.46875
v -0.19416260736238827 1.25 -0.46875
v -0.4687499999999997 1.0625 -0.19416260736238863
v -0.4687499999999997 1.25 -0.19416260736238863
v -0.46875 1.0625 0.1941626073623884
v -0.46875 1.25 0.1941626073623884
v -0.19416260736238863 1.0625 0.4687499999999997
v -0.19416260736238863 1.25 0.4687499999999997
v 0 0 0
v 0.12944173824159222 0 0.3125
v 0.1812184335382291 1.125 0.4375
v 0.3125 0 0.12944173824159222
v 0.4375 1.125 0.18121843353822914
v 0.3125 0 -0.1294417382415922
v 0.4375 1.125 -0.18121843353822908
v 0.12944173824159225 0 -0.3125
v 0.18121843353822914 1.125 -0.4375
v -0.12944173824159216 0 -0.3125
v -0.18121843353822906 1.125 -0.4375
v -0.3124999999999999 0 -0.12944173824159239
v -0.4374999999999998 1.125 -0.18121843353822933
v -0.31249999999999994 0 0.1294417382415923
v -0.4375 1.125 0.18121843353822922
v -0.1294417382415924 0 0.3124999999999999
v -0.1812184335382294 1.125 0.43749999999999983
v 0 1.25 -0.006511885450210873
v 0 1.75 -0.006511885450210873
v 0.019615800699597754 1.25 0.03125000000000003
v 0.019615800699597754 1.75 0.03125000000000003
v 0.04407630408258298 1.25 0.0028145300539066005
v 0.04407630408258298 1.75 0.0028145300539066005
v 0.035346451498632143 1.25 -0.03264392099099292
v 0.035346451498632143 1.75 -0.03264392099099292
v 5.536604710822332e-18 1.25 -0.04842441627730351
v 5.536604710822332e-18 1.75 -0.04842441627730351
v -0.03534645149863214 1.25 -0.03264392099099293
v -0.03534645149863214 1.75 -0.03264392099099293
v -0.04407630408258298 1.25 0.002814530053906592
v -0.04407630408258298 1.75 0.002814530053906592
v -0.019615800699597764 1.25 0.03125000000000002
v -0.019615800699597764 1.75 0.03125000000000002
v 0 1.7401334386218203 -0.00654349611350058
v 0 1.6858683831009047 0.3012089267028145
v 0.019615800699597754 1.7029452410620938 -0.013100778707197072
v 0.019615800699597754 1.6486801855411781 0.29465164410911804
v 0.04407630408258298 1.7309487123255523 -0.008163011169955187
v 0.04407630408258298 1.6766836568046364 0.2995894116463599
v 0.035346451498632143 1.7658684698243732 -0.0020057157631163253
v 0.035346451498632143 1.7116034143034573 0.30574670705319873
v 5.536604710822332e-18 1.7814092239287043 0.0007345384860330956
v 5.536604710822332e-18 1.7271441684077886 0.3084869613023482
v -0.03534645149863214 1.7658684698243732 -0.0020057157631163114
v -0.03534645149863214 1.7116034143034573 0.30574670705319873
v -0.04407630408258298 1.7309487123255523 -0.008163011169955187
v -0.04407630408258298 1.6766836568046366 0.2995894116463599
v -0.019615800699597764 1.7029452410620938 -0.013100778707197072
v -0.019615800699597764 1.6486801855411781 0.29465164410911804
v 0 1.71875 -0.006511885450210873
v 0 1.78125 -0.006511885450210873
v 0.013870465693089395 1.7720970869120796 0.020189799822022875
v 0.019615800699597754 1.75 0.03125000000000003
v 0.013870465693089397 1.7279029130879204 0.020189799822022875
v 0.03116665350643473 1.7720970869120796 0.00008288619691394598
v 0.04407630408258298 1.75 0.0028145300539066023
v 0.031166653506434737 1.7279029130879204 0.00008288619691394598
v 0.024993715545564198 1.7720970869120796 -0.024990024987305726
v 0.035346451498632143 1.75 -0.03264392099099292
v 0.024993715545564198 1.7279029130879204 -0.024990024987305726
v 3.914970735771855e-18 1.7720970869120796 -0.03614852021473829
v 5.536604710822332e-18 1.75 -0.04842441627730351
v 3.914970735771855e-18 1.7279029130879204 -0.03614852021473829
v -0.024993715545564187 1.7720970869120796 -0.024990024987305733
v -0.03534645149863214 1.75 -0.03264392099099293
v -0.024993715545564187 1.7279029130879204 -0.024990024987305733
v -0.03116665350643473 1.7720970869120796 0.00008288619691393904
v -0.04407630408258298 1.75 0.002814530053906592
v -0.031166653506434737 1.7279029130879204 0.00008288619691393904
v -0.0138704656930894 1.7720970869120796 0.020189799822022875
v -0.019615800699597764 1.75 0.03125000000000002
v -0.013870465693089404 1.7279029130879204 0.020189799822022875
vt 0.234375 0.931353125
vt 0.165728125 1
vt 0.1171875 0.8828125
vt 0.5 0.328125
vt 0.59375 0.328125
vt 0.59375 0.375
vt 0.5 0.375
vt 0.353228125 0.5625
vt 0.421875 0.631146875
vt 0.3046875 0.6796875
vt 0.234375 0.834271875
vt 0.234375 0.931353125
vt 0.1171875 0.8828125
vt 0.609375 0.46875
vt 0.703125 0.46875
vt 0.703125 0.515625
vt 0.609375 0.515625
vt 0.421875 0.631146875
vt 0.421875 0.728228125
vt 0.3046875 0.6796875
vt 0.165728125 0.765625
vt 0.234375 0.834271875
vt 0.1171875 0.8828125
vt 0.640625 0.78125
vt 0.734375 0.78125
vt 0.734375 0.828125
vt 0.640625 0.828125
vt 0.421875 0.728228125
vt 0.353228125 0.796875
vt 0.3046875 0.6796875
vt 0.06864687500000001 0.765625
vt 0.165728125 0.765625
vt 0.1171875 0.8828125
vt 0.609375 0.40625
vt 0.703125 0.40625
vt 0.703125 0.453125
vt 0.609375 0.453125
vt 0.353228125 0.796875
vt 0.256146875 0.796875
vt 0.3046875 0.6796875
vt 0 0.834271875
vt 0.06864687500000001 0.765625
vt 0.1171875 0.8828125
vt 0.625 0.578125
vt 0.71875 0.578125
vt 0.71875 0.625
vt 0.625 0.625
vt 0.256146875 0.796875
vt 0.1875 0.728228125
vt 0.3046875 0.6796875
vt 0 0.931353125
vt 0 0.834271875
vt 0.1171875 0.8828125
vt 0.609375 0.34375
vt 0.703125 0.34375
vt 0.703125 0.390625
vt 0.609375 0.390625
vt 0.1875 0.728228125
vt 0.1875 0.631146875
vt 0.3046875 0.6796875
vt 0.068646875 1
vt 0 0.931353125
vt 0.1171875 0.8828125
vt 0.640625 0.71875
vt 0.734375 0.71875
vt 0.734375 0.765625
vt 0.640625 0.765625
vt 0.1875 0.631146875
vt 0.256146875 0.5625
vt 0.3046875 0.6796875
vt 0.165728125 1
vt 0.068646875 1
vt 0.1171875 0.8828125
vt 0.625 0.640625
vt 0.71875 0.640625
vt 0.71875 0.6875
vt 0.625 0.6875
vt 0.256146875 0.5625
vt 0.353228125 0.5625
vt 0.3046875 0.6796875
vt 0.40625 0.9542359375
vt 0.3604859375 1
vt 0.328125 0.921875
vt 0.2219852633646394 0.2529573294169851
vt 0.28663953860019564 0.25
vt 0.3125 0.532094248526648
vt 0.2219852633646394 0.5362344525943166
vt 0.40625 0.8895140625
vt 0.40625 0.9542359375
vt 0.328125 0.921875
vt 0.4078676316823197 0.2842073294169851
vt 0.47252190691787593 0.28125
vt 0.4983823683176803 0.563344248526648
vt 0.4078676316823197 0.5674844525943166
vt 0.3604859375 0.84375
vt 0.40625 0.8895140625
vt 0.328125 0.921875
vt 0.515625 0.3935823294169851
vt 0.5802792752355562 0.390625
vt 0.6061397366353606 0.672719248526648
vt 0.515625 0.6768594525943166
vt 0.2957640625 0.84375
vt 0.3604859375 0.84375
vt 0.328125 0.921875
vt 0.0016176316823196951 0.4560823294169851
vt 0.06627190691787592 0.453125
vt 0.0921323683176803 0.735219248526648
vt 0.0016176316823196951 0.7393594525943166
vt 0.25 0.8895140625
vt 0.2957640625 0.84375
vt 0.328125 0.921875
vt 0.0032352633646393902 0.14358232941698512
vt 0.06788953860019561 0.140625
vt 0.09375 0.422719248526648
vt 0.0032352633646393902 0.42685945259431657
vt 0.25 0.9542359375
vt 0.25 0.8895140625
vt 0.328125 0.921875
vt 0.4391176316823197 0.7060823294169851
vt 0.5037719069178759 0.703125
vt 0.5296323683176803 0.985219248526648
vt 0.4391176316823197 0.9893594525943166
vt 0.2957640625 1
vt 0.25 0.9542359375
vt 0.328125 0.921875
vt 0.546875 0.7060823294169851
vt 0.6115292752355562 0.703125
vt 0.6373897366353606 0.985219248526648
vt 0.546875 0.9893594525943166
vt 0.3604859375 1
vt 0.2957640625 1
vt 0.328125 0.921875
vt 0.1109926316823197 0.2842073294169851
vt 0.17564690691787593 0.28125
vt 0.2015073683176803 0.563344248526648
vt 0.1109926316823197 0.5674844525943166
vt 0.71414375 0.934684375
vt 0.7080296875 0.94179375
vt 0.703125 0.932353125
vt 0.359375 0.421875
vt 0.375 0.421875
vt 0.375 0.546875
vt 0.359375 0.546875
vt 0.7080296875 0.88633125
vt 0.71414375 0.893440625
vt 0.703125 0.895771875
vt 0.7119609375 0.9258203125
vt 0.71414375 0.934684375
vt 0.703125 0.932353125
vt 0.140625 0.625
vt 0.15625 0.625
vt 0.15625 0.75
vt 0.140625 0.75
vt 0.71414375 0.893440625
vt 0.7119609375 0.9023046875
vt 0.703125 0.895771875
vt 0.703125 0.921875
vt 0.7119609375 0.9258203125
vt 0.703125 0.932353125
vt 0.65625 0.875
vt 0.671875 0.875
vt 0.671875 1
vt 0.65625 1
vt 0.7119609375 0.9023046875
vt 0.703125 0.90625
vt 0.703125 0.895771875
vt 0.6942890625 0.9258203125
vt 0.703125 0.921875
vt 0.703125 0.932353125
vt 0.359375 0.28125
vt 0.375 0.28125
vt 0.375 0.40625
vt 0.359375 0.40625
vt 0.703125 0.90625
vt 0.6942890625 0.9023046875
vt 0.703125 0.895771875
vt 0.69210625 0.934684375
vt 0.6942890625 0.9258203125
vt 0.703125 0.932353125
vt 0.328125 0.421875
vt 0.34375 0.421875
vt 0.34375 0.546875
vt 0.328125 0.546875
vt 0.6942890625 0.9023046875
vt 0.69210625 0.893440625
vt 0.703125 0.895771875
vt 0.6982203125 0.94179375
vt 0.69210625 0.934684375
vt 0.703125 0.932353125
vt 0.328125 0.28125
vt 0.34375 0.28125
vt 0.34375 0.40625
vt 0.328125 0.40625
vt 0.69210625 0.893440625
vt 0.6982203125 0.88633125
vt 0.703125 0.895771875
vt 0.7080296875 0.94179375
vt 0.6982203125 0.94179375
vt 0.703125 0.932353125
vt 0.109375 0.625
vt 0.125 0.625
vt 0.125 0.75
vt 0.109375 0.75
vt 0.6982203125 0.88633125
vt 0.7080296875 0.88633125
vt 0.703125 0.895771875
vt 0.69210625 0.987190625
vt 0.6982203125 0.98008125
vt 0.703125 0.989521875
vt 0.421875 0.8125
vt 0.421875 0.828125
vt 0.34375 0.828125
vt 0.34375 0.8125
vt 0.6924046875 0.296875
vt 0.69851875 0.303984375
vt 0.6875 0.306315625
vt 0.6942890625 0.99605625
vt 0.69210625 0.987190625
vt 0.703125 0.989521875
vt 0.328125 0.8125
vt 0.328125 0.828125
vt 0.25 0.828125
vt 0.25 0.8125
vt 0.69851875 0.303984375
vt 0.6963359375 0.3128500000000001
vt 0.6875 0.306315625
vt 0.703125 1
vt 0.6942890625 0.99605625
vt 0.703125 0.989521875
vt 0.703125 0.546875
vt 0.703125 0.5625
vt 0.625 0.5625
vt 0.625 0.546875
vt 0.6963359375 0.3128500000000001
vt 0.6875 0.31679375
vt 0.6875 0.306315625
vt 0.7119609375 0.99605625
vt 0.703125 1
vt 0.703125 0.989521875
vt 0.65625 0.328125
vt 0.640625 0.328125
vt 0.640625 0.25
vt 0.65625 0.25
vt 0.6875 0.31679375
vt 0.6786640625 0.3128500000000001
vt 0.6875 0.306315625
vt 0.71414375 0.987190625
vt 0.7119609375 0.99605625
vt 0.703125 0.989521875
vt 0.484375 0.6875
vt 0.46875 0.6875
vt 0.46875 0.609375
vt 0.484375 0.609375
vt 0.6786640625 0.3128500000000001
vt 0.67648125 0.303984375
vt 0.6875 0.306315625
vt 0.7080296875 0.98008125
vt 0.71414375 0.987190625
vt 0.703125 0.989521875
vt 0.625 0.328125
vt 0.609375 0.328125
vt 0.609375 0.25
vt 0.625 0.25
vt 0.67648125 0.303984375
vt 0.6825953125 0.296875
vt 0.6875 0.306315625
vt 0.6982203125 0.98008125
vt 0.7080296875 0.98008125
vt 0.703125 0.989521875
vt 0.453125 0.6875
vt 0.4375 0.6875
vt 0.4375 0.609375
vt 0.453125 0.609375
vt 0.6825953125 0.296875
vt 0.6924046875 0.296875
vt 0.6875 0.306315625
vt 0.1284671875 0.5946387407904508
vt 0.1329875398487038 0.5994905333670216
vt 0.12500049162672974 0.6016955525342821
vt 0.56990625 0.3125
vt 0.568746875 0.296875
vt 0.578125 0.296875
vt 0.5765375 0.3125
vt 0.709371875 0.859375
vt 0.71053125 0.84375
vt 0.7171625 0.84375
vt 0.71875 0.859375
vt 0.6798621146747238 0.8536338608141643
vt 0.6753421875 0.8584860494850316
vt 0.6718748732602938 0.8514295415505957
vt 0.1329875398487038 0.5994905333670216
vt 0.13194710227823603 0.6058608143957216
vt 0.12499948269789195 0.6016958310736578
vt 0.720184375 0.5
vt 0.71875 0.484375
vt 0.7278796875 0.484375
vt 0.7266390625 0.5
vt 0.71875 0.53125
vt 0.720184375 0.515625
vt 0.7266390625 0.515625
vt 0.7278796875 0.53125
vt 0.6788211188883482 0.8472636709821888
vt 0.6798621146747238 0.8536338608141643
vt 0.6718738643070519 0.8514292630996323
vt 0.13194710227823603 0.6058608143957216
vt 0.12607450373915788 0.609375
vt 0.12499879382566054 0.6016954181061196
vt 0.5015828125 0.3125
vt 0.5 0.296875
vt 0.509678125 0.296875
vt 0.5084265625 0.3125
vt 0.15625 0.609375
vt 0.1578328125 0.59375
vt 0.1646765625 0.59375
vt 0.165928125 0.609375
vt 0.6729482124280488 0.84375
vt 0.6788211188883482 0.8472636709821888
vt 0.6718731754710109 0.851429676127534
vt 0.12392549626084212 0.609375
vt 0.11805289772176397 0.6058608143957216
vt 0.12500120617433946 0.6016954181061196
vt 0.2259484375 1
vt 0.224696875 0.984375
vt 0.234375 0.984375
vt 0.2327921875 1
vt 0.412196875 0.796875
vt 0.4134484375 0.78125
vt 0.4202921875 0.78125
vt 0.421875 0.796875
vt 0.6649288811116518 0.8472636709821888
vt 0.6708017875719512 0.84375
vt 0.6718768245289891 0.851429676127534
vt 0.11805289772176399 0.6058608143957216
vt 0.11701246015129621 0.5994905333670216
vt 0.12500051730210804 0.6016958310736578
vt 0.5077359375 0.28125
vt 0.5064953125 0.265625
vt 0.515625 0.265625
vt 0.514190625 0.28125
vt 0.5377453125 0.28125
vt 0.5389859375 0.265625
vt 0.545440625 0.265625
vt 0.546875 0.28125
vt 0.6638878853252762 0.8536338608141643
vt 0.6649288811116518 0.8472636709821888
vt 0.6718761356929481 0.8514292630996323
vt 0.11701246015129621 0.5994905333670216
vt 0.1215328125 0.5946387407904508
vt 0.12499950837327026 0.6016955525342821
vt 0.7203375 0.5625
vt 0.71875 0.546875
vt 0.728128125 0.546875
vt 0.72696875 0.5625
vt 0.53125 0.3125
vt 0.5328375 0.296875
vt 0.53946875 0.296875
vt 0.540628125 0.3125
vt 0.6684078125 0.8584860494850316
vt 0.6638878853252762 0.8536338608141643
vt 0.6718751267397062 0.8514295415505957
vt 0.1215328125 0.5946387407904508
vt 0.1284671875 0.5946387407904508
vt 0.125 0.6016965532904508
vt 0.0043453125 0.78125
vt 0.0029078125 0.765625
vt 0.012717187500000001 0.765625
vt 0.0112796875 0.78125
vt 0.0029078125 1
vt 0.0043453125 0.984375
vt 0.0112796875 0.984375
vt 0.012717187500000001 1
vt 0.6753421875 0.8584860494850316
vt 0.6684078125 0.8584860494850316
vt 0.671875 0.8514297994850316
vn 0 -1 0
vn 0.7071067811865476 0 0.7071067811865476
vn 0 1 0
vn 0 -1 0
vn 1 0 0
vn 0 1 0
vn 0 -1 0
vn 0.7071067811865476 0 -0.7071067811865476
vn 0 1 0
vn 0 -1 0
vn 0 0 -1
vn 0 1 0
vn 0 -1 0
vn -0.7071067811865475 0 -0.7071067811865478
vn 0 1 0
vn 0 -1 0
vn -1 0 -7.147507955490477e-16
vn 0 1 0
vn 0 -1 0
vn -0.7071067811865476 0 0.7071067811865476
vn 0 1 0
vn 0 -1 0
vn -7.147507955490478e-16 0 1
vn 0 1 0
vn 0 -1 0
vn 0.7027819284987273 -0.11043152607484656 0.7027819284987273
vn 0 -1 0
vn 0.9938837346736189 -0.11043152607484655 0
vn 0 -1 0
vn 0.7027819284987274 -0.11043152607484655 -0.7027819284987273
vn 0 -1 0
vn 0 -0.11043152607484655 -0.9938837346736189
vn 0 -1 0
vn -0.7027819284987271 -0.11043152607484652 -0.7027819284987276
vn 0 -1 0
vn -0.9938837346736189 -0.1104315260748466 -2.1311375701236836e-16
vn 0 -1 0
vn -0.7027819284987274 -0.11043152607484658 0.7027819284987272
vn 0 -1 0
vn -4.262275140247367e-16 -0.11043152607484653 0.9938837346736189
vn 0 -1 0
vn 0.7581061203052417 0 0.6521312063961779
vn 0 1 0
vn 0 -1 0
vn 0.9710045915406615 0 -0.23906083578652812
vn 0 1 0
vn 0 -1 0
vn 0.40766870697199137 0 -0.9131299060680166
vn 0 1 0
vn 0 -1 0
vn -0.407668706971991 0 -0.9131299060680168
vn 0 1 0
vn 0 -1 0
vn -0.9710045915406615 0 -0.23906083578652826
vn 0 1 0
vn 0 -1 0
vn -0.7581061203052418 0 0.6521312063961777
vn 0 1 0
vn 0 -1 0
vn -1.7687001438716488e-16 0 1
vn 0 1 0
vn -2.7444279547858383e-16 0.17364817766693025 -0.9848077530122082
vn 0.7581061203052422 -0.6422238680401601 -0.11324139559043334
vn 7.318474546095592e-17 -0.17364817766692997 0.9848077530122082
vn -3.2933135457430016e-16 0.17364817766693 -0.9848077530122081
vn 0.9710045915406615 0.23542896452415085 0.041512478485863924
vn 1.463694909219114e-16 -0.17364817766692967 0.9848077530122082
vn -8.416245728009926e-16 0.17364817766693064 -0.9848077530122081
vn 0.4076687069719875 0.8992574110030939 0.15856334416188642
vn 1.152659741010055e-15 -0.17364817766693097 0.9848077530122081
vn 4.574046591309742e-16 0.1736481776669307 -0.9848077530122081
vn -0.4076687069719874 0.8992574110030939 0.15856334416188708
vn -1.1435116478274355e-15 -0.173648177666931 0.9848077530122081
vn 2.4242446933941546e-16 0.17364817766693041 -0.9848077530122081
vn -0.9710045915406615 0.23542896452415105 0.04151247848586379
vn -8.233283864357558e-16 -0.1736481776669305 0.984807753012208
vn 2.7444279547858383e-16 0.17364817766693022 -0.9848077530122081
vn -0.7581061203052424 -0.64222386804016 -0.11324139559043282
vn -1.056604762592548e-15 -0.17364817766692947 0.9848077530122082
vn 0 0.17364817766693036 -0.9848077530122082
vn 0 -0.9848077530122081 -0.17364817766693008
vn 0 -0.17364817766693 0.9848077530122081
vn 0.23609757674869733 0.9502688420880679 0.20309372715570417
vn 0.671634113366256 0.4638059715020473 0.5777470368264689
vn 0.671634113366256 -0.4638059715020474 0.5777470368264691
vn 0.2360975767486973 -0.9502688420880679 0.20309372715570423
vn 0.2951563657720919 0.9526815713760777 -0.07266734689403953
vn 0.8552019388333777 0.4736013330841714 -0.21055028168237577
vn 0.8552019388333778 -0.47360133308417107 -0.2105502816823758
vn 0.2951563657720919 -0.9526815713760777 -0.0726673468940396
vn 0.1306129567684261 0.9472857434493329 -0.2925576452288574
vn 0.3635646119449926 0.45240247645399895 -0.8143419258760879
vn 0.3635646119449925 -0.45240247645399884 -0.814341925876088
vn 0.13061295676842613 -0.9472857434493329 -0.29255764522885747
vn -0.1306129567684261 0.947285743449333 -0.2925576452288575
vn -0.36356461194499223 0.45240247645399906 -0.8143419258760881
vn -0.3635646119449923 -0.452402476453999 -0.8143419258760881
vn -0.1306129567684261 -0.947285743449333 -0.2925576452288575
vn -0.2951563657720919 0.9526815713760777 -0.07266734689403964
vn -0.8552019388333776 0.47360133308417124 -0.2105502816823759
vn -0.8552019388333777 -0.47360133308417135 -0.2105502816823761
vn -0.2951563657720919 -0.9526815713760777 -0.07266734689403974
vn -0.23609757674869739 0.9502688420880679 0.20309372715570412
vn -0.6716341133662561 0.46380597150204733 0.5777470368264688
vn -0.6716341133662562 -0.46380597150204717 0.5777470368264689
vn -0.23609757674869733 -0.9502688420880679 0.20309372715570412
vn 0 0.9459671428814429 0.32426249334253865
vn -1.6775821511152742e-16 0.44759094077083444 0.8942384188458242
vn 0 -0.4475909407708344 0.8942384188458241
vn 0 -0.9459671428814429 0.32426249334253865
usemtl m_3ed9200e-b2d9-29ef-270c-8c8b80c64fde
f 5/1/1 3/2/1 1/3/1
f 3/4/2 5/5/2 6/6/2 4/7/2
f 4/8/3 6/9/3 2/10/3
f 7/11/4 5/12/4 1/13/4
f 5/14/5 7/15/5 8/16/5 6/17/5
f 6/18/6 8/19/6 2/20/6
f 9/21/7 7/22/7 1/23/7
f 7/24/8 9/25/8 10/26/8 8/27/8
f 8/28/9 10/29/9 2/30/9
f 11/31/10 9/32/10 1/33/10
f 9/34/11 11/35/11 12/36/11 10/37/11
f 10/38/12 12/39/12 2/40/12
f 13/41/13 11/42/13 1/43/13
f 11/44/14 13/45/14 14/46/14 12/47/14
f 12/48/15 14/49/15 2/50/15
f 15/51/16 13/52/16 1/53/16
f 13/54/17 15/55/17 16/56/17 14/57/17
f 14/58/18 16/59/18 2/60/18
f 17/61/19 15/62/19 1/63/19
f 15/64/20 17/65/20 18/66/20 16/67/20
f 16/68/21 18/69/21 2/70/21
f 3/71/22 17/72/22 1/73/22
f 17/74/23 3/75/23 4/76/23 18/77/23
f 18/78/24 4/79/24 2/80/24
f 22/81/25 20/82/25 19/83/25
f 20/84/26 22/85/26 23/86/26 21/87/26
f 24/88/27 22/89/27 19/90/27
f 22/91/28 24/92/28 25/93/28 23/94/28
f 26/95/29 24/96/29 19/97/29
f 24/98/30 26/99/30 27/100/30 25/101/30
f 28/102/31 26/103/31 19/104/31
f 26/105/32 28/106/32 29/107/32 27/108/32
f 30/109/33 28/110/33 19/111/33
f 28/112/34 30/113/34 31/114/34 29/115/34
f 32/116/35 30/117/35 19/118/35
f 30/119/36 32/120/36 33/121/36 31/122/36
f 34/123/37 32/124/37 19/125/37
f 32/126/38 34/127/38 35/128/38 33/129/38
f 20/130/39 34/131/39 19/132/39
f 34/133/40 20/134/40 21/135/40 35/136/40
f 40/137/41 38/138/41 36/139/41
f 38/140/42 40/141/42 41/142/42 39/143/42
f 39/144/43 41/145/43 37/146/43
f 42/147/44 40/148/44 36/149/44
f 40/150/45 42/151/45 43/152/45 41/153/45
f 41/154/46 43/155/46 37/156/46
f 44/157/47 42/158/47 36/159/47
f 42/160/48 44/161/48 45/162/48 43/163/48
f 43/164/49 45/165/49 37/166/49
f 46/167/50 44/168/50 36/169/50
f 44/170/51 46/171/51 47/172/51 45/173/51
f 45/174/52 47/175/52 37/176/52
f 48/177/53 46/178/53 36/179/53
f 46/180/54 48/181/54 49/182/54 47/183/54
f 47/184/55 49/185/55 37/186/55
f 50/187/56 48/188/56 36/189/56
f 48/190/57 50/191/57 51/192/57 49/193/57
f 49/194/58 51/195/58 37/196/58
f 38/197/59 50/198/59 36/199/59
f 50/200/60 38/201/60 39/202/60 51/203/60
f 51/204/61 39/205/61 37/206/61
f 56/207/62 54/208/62 52/209/62
f 54/210/63 56/211/63 57/212/63 55/213/63
f 55/214/64 57/215/64 53/216/64
f 58/217/65 56/218/65 52/219/65
f 56/220/66 58/221/66 59/222/66 57/223/66
f 57/224/67 59/225/67 53/226/67
f 60/227/68 58/228/68 52/229/68
f 58/230/69 60/231/69 61/232/69 59/233/69
f 59/234/70 61/235/70 53/236/70
f 62/237/71 60/238/71 52/239/71
f 60/240/72 62/241/72 63/242/72 61/243/72
f 61/244/73 63/245/73 53/246/73
f 64/247/74 62/248/74 52/249/74
f 62/250/75 64/251/75 65/252/75 63/253/75
f 63/254/76 65/255/76 53/256/76
f 66/257/77 64/258/77 52/259/77
f 64/260/78 66/261/78 67/262/78 65/263/78
f 65/264/79 67/265/79 53/266/79
f 54/267/80 66/268/80 52/269/80
f 66/270/81 54/271/81 55/272/81 67/273/81
f 67/274/82 55/275/82 53/276/82
f 70/277/83 73/278/83 69/279/83
f 70/280/84 71/281/84 74/282/84 73/283/84
f 71/284/85 72/285/85 75/286/85 74/287/85
f 75/288/86 72/289/86 68/290/86
f 73/291/87 76/292/87 69/293/87
f 73/294/88 74/295/88 77/296/88 76/297/88
f 74/298/89 75/299/89 78/300/89 77/301/89
f 78/302/90 75/303/90 68/304/90
f 76/305/91 79/306/91 69/307/91
f 76/308/92 77/309/92 80/310/92 79/311/92
f 77/312/93 78/313/93 81/314/93 80/315/93
f 81/316/94 78/317/94 68/318/94
f 79/319/95 82/320/95 69/321/95
f 79/322/96 80/323/96 83/324/96 82/325/96
f 80/326/97 81/327/97 84/328/97 83/329/97
f 84/330/98 81/331/98 68/332/98
f 82/333/99 85/334/99 69/335/99
f 82/336/100 83/337/100 86/338/100 85/339/100
f 83/340/101 84/341/101 87/342/101 86/343/101
f 87/344/102 84/345/102 68/346/102
f 85/347/103 88/348/103 69/349/103
f 85/350/104 86/351/104 89/352/104 88/353/104
f 86/354/105 87/355/105 90/356/105 89/357/105
f 90/358/106 87/359/106 68/360/106
f 88/361/107 70/362/107 69/363/107
f 88/364/108 89/365/108 71/366/108 70/367/108
f 89/368/109 90/369/109 72/370/109 71/371/109
f 72/372/110 90/373/110 68/374/110