# Made in Blockbench 4.12.4
mtllib тапок.mtl

o torus
v 0.070522221559489 0.027116559525023905 0.34822345255891884
v -0.15624999999999994 0.02748535234803763 0.39180524139965633
v -0.258022221559489 0.027116559525023766 0.39509845255891884
v -0.12500000000000003 0.023612131197641648 0.33269636004825287
v 0.07052222155948898 0.024606440696407467 -0.3104409982742478
v -0.12500000000000003 0.02471210565886095 -0.37851519510324383
v -0.25802222155948906 0.024606440696407314 -0.3885659982742479
v -0.12500000000000006 -0.005614207923820669 -0.30973947807662217
v 0.07052222155948892 0.18645814581830872 -0.3369872787206982
v -0.1250000000000001 0.23836742221954899 -0.3539643525324931
v -0.32052222155948906 0.1864581458183086 -0.3369872787206982
v -0.12500000000000008 0.1938995709176053 -0.2866804384114599
v 0.0705222215594889 0.33700421913458145 -0.13276315123111312
v -0.12500000000000017 0.41570174786910613 -0.16020776688677768
v -0.3205222215594891 0.33700421913458134 -0.1327631512311131
v -0.1250000000000001 0.30680912590481 -0.10226234279427113
v 0.0705222215594889 0.34330247980730644 0.12854764524377407
v -0.12500000000000014 0.4112383807846072 0.09646870204568501
v -0.3205222215594891 0.3433024798073063 0.1285476452437741
v -0.1250000000000001 0.31153282140935373 0.09372075456189433
v 0.07052222155948895 0.20240590167034533 0.3246748848873518
v -0.12500000000000006 0.2270657800296894 0.2959632818101976
v -0.32052222155948906 0.20240590167034522 0.3090498848873518
v -0.12500000000000008 0.15898538780663277 0.2876911842945775
vt 0.1044015625 0.609375
vt 0.102484375 0.557653125
vt 0.15625 0.557653125
vt 0.1438421875 0.605709375
vt 0.102484375 0.557653125
vt 0.10216363167335932 0.5243032089714844
vt 0.14486001419181602 0.5093148936523048
vt 0.15495817170674034 0.5576531250000001
vt 0.4571233908737929 0.8994058913878917
vt 0.4626042180310654 0.9384106022534687
vt 0.4123957819689346 0.9387176626474547
vt 0.41539234757561544 0.890625
vt 0.4626042180310654 0.9384106022534687
vt 0.4551214055310654 0.9873027897534687
vt 0.41411671803106537 0.9873027897534687
vt 0.4143167180310654 0.9387059147534688
vt 0.4287046875 0.779596875
vt 0.4343359375 0.734375
vt 0.5 0.734375
vt 0.491778125 0.78125
vt 0.328125 0.8470340654748044
vt 0.33585592102870654 0.796875
vt 0.3975048599836065 0.811792619339246
vt 0.391171706175737 0.8641209614115615
vt 0.328125 0.5161765625
vt 0.316428125 0.565309375
vt 0.26236875 0.565309375
vt 0.2649296875 0.515625
vt 0.11150052683440065 0.726297379827229
vt 0.1283490518562642 0.7739115565419066
vt 0.065346875 0.78125
vt 0.05793639076469233 0.731971757886857
vt 0.22501235462959415 0.578125
vt 0.171875 0.578125
vt 0.1805749873205199 0.5145377174018227
vt 0.23286597508442114 0.513300630371714
vt 0.3911204849836065 0.8645441818392459
vt 0.3975048599836065 0.811792619339246
vt 0.4628517349836065 0.811792619339246
vt 0.45524392248360646 0.8635426193392459
vt 0.065346875 0.682271875
vt 0.057904687499999996 0.7317609375
vt 0.008895312499999999 0.7317609375
vt 6.938893903907228e-18 0.682271875
vt 0.057904687499999996 0.7317609375
vt 0.065346875 0.78125
vt 0 0.78125
vt 0.008895312499999999 0.7317609375
vt 0.2831660686300418 1
vt 0.265625 0.9506605940630545
vt 0.3335029003197384 0.9504859467061353
vt 0.3430834771676423 0.9987942687167791
vt 0.265625 0.9506605940630545
vt 0.2829697104728318 0.9012511894598563
vt 0.3402112120066079 0.9019117236235218
vt 0.3332783873891776 0.9504865243697007
vt 0.062809375 0.606028125
vt 0.0603734375 0.65625
vt 0 0.65625
vt 0.0011765624999999988 0.6054125
vt 0.3419189837519765 0.9998184583401771
vt 0.3332346495066079 0.9507929736235218
vt 0.388584772348866 0.942981577765342
vt 0.38382411135542505 0.9987671060805379
vt 0.3332346495066079 0.9507929736235218
vt 0.3402112120066079 0.9019117236235218
vt 0.3890283995066079 0.9175367236235218
vt 0.3885815245066079 0.9429820361235218
vt 0.4220582439720943 0.55935625
vt 0.4315863689720943 0.609375
vt 0.38737074397209426 0.609375
vt 0.3870191814720943 0.5607671875
vt 0.061378498183643104 0.5557675761593928
vt 0.062809375 0.606028125
vt 0.001120264845093262 0.6054119376657109
vt 0.004136525006884627 0.5551473695443647
vt 0.42867229713141586 0.5094372117734294
vt 0.4220582439720943 0.55935625
vt 0.38642306057226916 0.5607911918332238
vt 0.3809136310279057 0.5256390864238891
vn 0.32693992310714726 0.10788393929301282 -0.9388670525273077
vn 0.07092538169978065 0.3276285973773049 -0.9421406967174916
vn -0.523703099976857 -0.09780835538265131 0.8462674451330211
vn -0.021471108109493015 0.16181617218833605 0.9865873088251568
vn 0.24661004133708816 0.714893795637306 -0.6543014201963843
vn -0.2563601869569706 0.7780334121024168 -0.5735359310415152
vn -0.10136427679642859 -0.8484575298064949 0.5194661716649099
vn 0.12113599355723502 -0.7990056229568158 0.5889958281246924
vn 0.3713889574390954 0.9283370337696282 0.01614292489327859
vn -0.3759908548229741 0.926354337767554 -0.022327516402983052
vn -0.15620571340630435 -0.9874377678570025 0.02379978379750841
vn 0.156205713406305 -0.9874377678570023 0.023799783797508738
vn 0.142536512334646 0.7272575989877341 0.6714013161783877
vn -0.1704114894593595 0.7767500511626143 0.6063161570328791
vn 0.22958720468718646 -0.7904583381453671 -0.5678603094955559
vn -0.07565585421702128 0.4412509850489831 0.894188883802519
vn 0.004308039279327797 0.4418958731515915 0.8970560061050595
vn 0.21209943265917613 -0.1301157253020221 -0.968547225846414
vn -0.23137785885442902 -0.7647085482000923 -0.6014026294768318
vn -0.17115643908246644 -0.31082019031739117 -0.9349311646595544
usemtl m_60674dc7-2cd4-5e9c-449f-96cee11e0ca6
f 5/1/1 6/2/1 10/3/1 9/4/1
f 6/5/2 7/6/2 11/7/2 10/8/2
f 7/9/3 8/10/3 12/11/3 11/12/3
f 8/13/4 5/14/4 9/15/4 12/16/4
f 9/17/5 10/18/5 14/19/5 13/20/5
f 10/21/6 11/22/6 15/23/6 14/24/6
f 11/25/7 12/26/7 16/27/7 15/28/7
f 12/29/8 9/30/8 13/31/8 16/32/8
f 13/33/9 14/34/9 18/35/9 17/36/9
f 14/37/10 15/38/10 19/39/10 18/40/10
f 15/41/11 16/42/11 20/43/11 19/44/11
f 16/45/12 13/46/12 17/47/12 20/48/12
f 17/49/13 18/50/13 22/51/13 21/52/13
f 18/53/14 19/54/14 23/55/14 22/56/14
f 20/57/15 17/58/15 21/59/15 24/60/15
f 21/61/16 22/62/16 2/63/16 1/64/16
f 22/65/17 23/66/17 3/67/17 2/68/17
f 24/69/18 21/70/18 1/71/18 4/72/18
f 19/73/19 20/74/19 24/75/19 23/76/19
f 23/77/20 24/78/20 4/79/20 3/80/20
o cuboid
v 0.5 0.03125 0.28125
v 0.5 0.03125 -0.21875
v 0.5 -0.03125 0.28125
v 0.5 -0.03125 -0.21875
v -0.25 0.03125 0.40625
v -0.25 0.03125 -0.40625
v -0.25 -0.03125 0.40625
v -0.25 -0.03125 -0.40625
v -0.5 0.03125 -0.2146419622261182
v -0.5 -0.03125 -0.21472413610782198
v -0.5 0.03125 0.18081983541592317
v -0.5 -0.03125 0.1842871833254096
vt 0.546875 0.65625
vt 0.421875 0.65625
vt 0.421875 0.640625
vt 0.546875 0.640625
vt 0.609375 0.703125
vt 0.609375 0.71875
vt 0.421875 0.71875
vt 0.421875 0.703125
vt 0.609375 0.6875
vt 0.421875 0.6875
vt 0.421875 0.671875
vt 0.609375 0.671875
vt 0.53125 0.546875
vt 0.53125 0.5625
vt 0.453125 0.5625
vt 0.453125 0.546875
vt 0.25 0.953125
vt 0.0625 1
vt 0 0.9520984375
vt 0.15625 0.64163125
vt 0.21875 0.59375
vt 0.40625 0.640625
vt 0.4537 0.578125
vt 0.53125 0.578125
vt 0.53125 0.59375
vt 0.453125 0.59375
vt 0.556821875 0.625
vt 0.45795625 0.625
vt 0.4579359375 0.609375
vt 0.5576890624999999 0.609375
vt 0.25 0.953125
vt 0 0.9520984375
vt 0 0.8532328124999999
vt 0.25 0.828125
vt 0 0.8532328124999999
vt 0.0625 0.796875
vt 0.25 0.828125
vt 0.15625 0.741384375
vt 0.15625 0.64163125
vt 0.40625 0.640625
vt 0.40625 0.765625
vt 0.40625 0.765625
vt 0.21875 0.796875
vt 0.15625 0.741384375
vn 1 0 0
vn 0.1643989873053573 0 0.9863939238321437
vn 0.242535625036333 0 -0.970142500145332
vn -0.6083139764715403 0.0010435370315794712 -0.7936957962972
vn 0 1 0
vn 0 -1 0
vn -0.6639302775914898 0 0.7477944814568287
vn -1 0 0
vn 0 1 0
vn 0 1 0
vn 0 -1 0
vn 0 -1 0
usemtl m_60674dc7-2cd4-5e9c-449f-96cee11e0ca6
f 26/81/21 25/82/21 27/83/21 28/84/21
f 27/85/22 25/86/22 29/87/22 31/88/22
f 30/89/23 26/90/23 28/91/23 32/92/23
f 34/93/24 33/94/24 30/95/24 32/96/24
f 26/97/25 30/98/25 33/99/25
f 34/100/26 32/101/26 28/102/26
f 36/103/27 31/104/27 29/105/27 35/106/27
f 35/107/28 33/108/28 34/109/28 36/110/28
f 26/111/29 33/112/29 35/113/29 25/114/29
f 35/115/30 29/116/30 25/117/30
f 36/118/31 34/119/31 28/120/31 27/121/31
f 27/122/32 31/123/32 36/124/32