# Made in Blockbench 4.12.3
mtllib утя.mtl

o beveled_cuboid
v -0.0234375 0.4375 0.3828125
v -0.0234375 0.4375 -0.1328125
v -0.3515625 0.4375 0.3828125
v -0.3515625 0.4375 -0.1328125
v -0.0234375 0.0625 0.3828125
v -0.0234375 0.0625 -0.1328125
v -0.3515625 0.0625 0.3828125
v -0.3515625 0.0625 -0.1328125
v -0.40625 0.15625 0.3828125
v -0.40625 0.34375 0.3828125
v -0.40625 0.15625 -0.1328125
v -0.40625 0.34375 -0.1328125
v 0.03125 0.15625 0.3828125
v 0.03125 0.34375 0.3828125
v 0.03125 0.15625 -0.1328125
v 0.03125 0.34375 -0.1328125
v -0.0234375 0.15625 -0.21875
v -0.0234375 0.34375 -0.21875
v -0.3515625 0.15625 -0.21875
v -0.3515625 0.34375 -0.21875
v -0.0234375 0.15625 0.46875
v -0.0234375 0.34375 0.46875
v -0.3515625 0.15625 0.46875
v -0.3515625 0.34375 0.46875
v -0.0703125 0.65625 -0.109375
v -0.0703125 0.65625 -0.390625
v -0.3046875 0.65625 -0.109375
v -0.3046875 0.65625 -0.390625
v -0.0703125 0.34375 -0.109375
v -0.0703125 0.34375 -0.390625
v -0.3046875 0.34375 -0.109375
v -0.3046875 0.34375 -0.390625
v -0.34375 0.421875 -0.109375
v -0.34375 0.578125 -0.109375
v -0.34375 0.421875 -0.390625
v -0.34375 0.578125 -0.390625
v -0.03125 0.421875 -0.109375
v -0.03125 0.578125 -0.109375
v -0.03125 0.421875 -0.390625
v -0.03125 0.578125 -0.390625
v -0.0703125 0.421875 -0.4375
v -0.0703125 0.578125 -0.4375
v -0.3046875 0.421875 -0.4375
v -0.3046875 0.578125 -0.4375
v -0.0703125 0.421875 -0.0625
v -0.0703125 0.578125 -0.0625
v -0.3046875 0.421875 -0.0625
v -0.3046875 0.578125 -0.0625
v -0.09375 0.5 -0.234375
v -0.09375 0.5 -0.515625
v -0.28125 0.5 -0.234375
v -0.28125 0.5 -0.515625
v -0.09375 0.375 -0.234375
v -0.09375 0.375 -0.515625
v -0.28125 0.375 -0.234375
v -0.28125 0.375 -0.515625
v -0.3125 0.40625 -0.234375
v -0.3125 0.46875 -0.234375
v -0.3125 0.40625 -0.515625
v -0.3125 0.46875 -0.515625
v -0.0625 0.40625 -0.234375
v -0.0625 0.46875 -0.234375
v -0.0625 0.40625 -0.515625
v -0.0625 0.46875 -0.515625
v -0.09375 0.40625 -0.5625
v -0.09375 0.46875 -0.5625
v -0.28125 0.40625 -0.5625
v -0.28125 0.46875 -0.5625
v -0.09375 0.40625 -0.1875
v -0.09375 0.46875 -0.1875
v -0.28125 0.40625 -0.1875
v -0.28125 0.46875 -0.1875
vt 0.158203125 0.972865625
vt 0.029296875 0.972865625
vt 0.029296875 0.925990625
vt 0.158203125 0.925990625
vt 0.158203125 0.8009906250000001
vt 0.158203125 0.8478656250000001
vt 0.029296875 0.8478656250000001
vt 0.029296875 0.8009906250000001
vt 0.28125 0.875
vt 0.28125 1
vt 0.203125 1
vt 0.203125 0.875
vt 0.203125 0.734375
vt 0.28125 0.734375
vt 0.28125 0.859375
vt 0.203125 0.859375
vt 0.078125 0.59375
vt 0.078125 0.640625
vt 0 0.640625
vt 0 0.59375
vt 0.171875 0.640625
vt 0.09375 0.640625
vt 0.09375 0.59375
vt 0.171875 0.59375
vt 0.158203125 1
vt 0.029296875 1
vt 0.029296875 0.972865625
vt 0.158203125 0.972865625
vt 0.158203125 0.8478656250000001
vt 0.158203125 0.875
vt 0.029296875 0.875
vt 0.029296875 0.8478656250000001
vt 0.453125 0.96875
vt 0.453125 1
vt 0.375 1
vt 0.375 0.96875
vt 0.453125 0.953125
vt 0.375 0.953125
vt 0.375 0.921875
vt 0.453125 0.921875
vt 0.029296875 0.925990625
vt 0.029296875 0.89885625
vt 0.158203125 0.89885625
vt 0.158203125 0.925990625
vt 0.029296875 0.77385625
vt 0.158203125 0.77385625
vt 0.158203125 0.8009906250000001
vt 0.029296875 0.8009906250000001
vt 0.375 0.875
vt 0.453125 0.875
vt 0.453125 0.90625
vt 0.375 0.90625
vt 0.375 0.859375
vt 0.375 0.828125
vt 0.453125 0.828125
vt 0.453125 0.859375
vt 0.158203125 0.925990625
vt 0.18366875 0.925990625
vt 0.18366875 0.972865625
vt 0.158203125 0.972865625
vt 0.00383125 0.972865625
vt 0.00383125 0.925990625
vt 0.029296875 0.925990625
vt 0.029296875 0.972865625
vt 0.00383125 0.8478656250000001
vt 0.00383125 0.8009906250000001
vt 0.029296875 0.8009906250000001
vt 0.029296875 0.8478656250000001
vt 0.158203125 0.8009906250000001
vt 0.18366875 0.8009906250000001
vt 0.18366875 0.8478656250000001
vt 0.158203125 0.8478656250000001
vt 0.029296875 0.89885625
vt 0.029296875 0.92599
vt 0.0047809375 0.919100625
vt 0.16554375 0.77486875
vt 0.18366875 0.8009906250000001
vt 0.158203125 0.8009906250000001
vt 0.158203125 0.89885625
vt 0.1827190625 0.919100625
vt 0.158203125 0.92599
vt 0.02195625 0.77486875
vt 0.029296875 0.8009906250000001
vt 0.00383125 0.8009906250000001
vt 0.029296875 1
vt 0.00478078125 0.97975375
vt 0.029296875 0.97286484375
vt 0.16554375 0.8739890625
vt 0.158203125 0.8478656250000001
vt 0.18366875 0.8478656250000001
vt 0.158203125 1
vt 0.158203125 0.97286484375
vt 0.18271921875 0.97975375
vt 0.02195625 0.8739890625
vt 0.00383125 0.8478656250000001
vt 0.029296875 0.8478656250000001
vt 0.07421875 0.7281625
vt 0.00390625 0.7281625
vt 0.00390625 0.6891
vt 0.07421875 0.6891
vt 0.16796875 0.6891
vt 0.16796875 0.7281625
vt 0.09765625 0.7281625
vt 0.09765625 0.6891
vt 0.359375 0.921875
vt 0.359375 1
vt 0.296875 1
vt 0.296875 0.921875
vt 0.296875 0.828125
vt 0.359375 0.828125
vt 0.359375 0.90625
vt 0.296875 0.90625
vt 0.326171875 0.6569109375
vt 0.326171875 0.6959734375
vt 0.267578125 0.6959734375
vt 0.267578125 0.6569109375
vt 0.248046875 0.695971875
vt 0.189453125 0.695971875
vt 0.189453125 0.656909375
vt 0.248046875 0.656909375
vt 0.07421875 0.75
vt 0.00390625 0.75
vt 0.00390625 0.7281625
vt 0.07421875 0.7281625
vt 0.16796875 0.7281625
vt 0.16796875 0.75
vt 0.09765625 0.75
vt 0.09765625 0.7281625
vt 0.326171875 0.6959734375
vt 0.326171875 0.71875
vt 0.267578125 0.71875
vt 0.267578125 0.6959734375
vt 0.248046875 0.71875
vt 0.189453125 0.71875
vt 0.189453125 0.695971875
vt 0.248046875 0.695971875
vt 0.00390625 0.6891
vt 0.00390625 0.6672640624999999
vt 0.07421875 0.6672640624999999
vt 0.07421875 0.6891
vt 0.09765625 0.6672640624999999
vt 0.16796875 0.6672640624999999
vt 0.16796875 0.6891
vt 0.09765625 0.6891
vt 0.267578125 0.6341343749999999
vt 0.326171875 0.6341343749999999
vt 0.326171875 0.6569109375
vt 0.267578125 0.6569109375
vt 0.189453125 0.656909375
vt 0.189453125 0.6341328125
vt 0.248046875 0.6341328125
vt 0.248046875 0.656909375
vt 0.40625 0.611890625
vt 0.421503125 0.611890625
vt 0.421503125 0.650953125
vt 0.40625 0.650953125
vt 0.3128703125 0.588453125
vt 0.3128703125 0.549390625
vt 0.328125 0.549390625
vt 0.328125 0.588453125
vt 0.000371875 0.557203125
vt 0.000371875 0.518140625
vt 0.015625 0.518140625
vt 0.015625 0.557203125
vt 0.40625 0.721265625
vt 0.4215046875 0.721265625
vt 0.4215046875 0.760328125
vt 0.40625 0.760328125
vt 0.3218734375 0.5284671875
vt 0.328125 0.549390625
vt 0.3128703125 0.549390625
vt 0.4125015625 0.7003421875
vt 0.4215046875 0.721265625
vt 0.40625 0.721265625
vt 0.4125015625 0.5909671875
vt 0.421503125 0.611890625
vt 0.40625 0.611890625
vt 0.0093734375 0.4972171875
vt 0.015625 0.518140625
vt 0.000371875 0.518140625
vt 0.3218734375 0.609375
vt 0.3128703125 0.588453125
vt 0.328125 0.588453125
vt 0.4125015625 0.78125
vt 0.40625 0.760328125
vt 0.4215046875 0.760328125
vt 0.4125015625 0.671875
vt 0.40625 0.650953125
vt 0.421503125 0.650953125
vt 0.0093734375 0.578125
vt 0.000371875 0.557203125
vt 0.015625 0.557203125
vt 0.27734375 0.609375
vt 0.20703125 0.609375
vt 0.20703125 0.59375
vt 0.27734375 0.59375
vt 0.49609375 0.796875
vt 0.49609375 0.8125
vt 0.42578125 0.8125
vt 0.42578125 0.796875
vt 0.390625 0.6031031250000001
vt 0.390625 0.6734156250000001
vt 0.34375 0.6734156250000001
vt 0.34375 0.6031031250000001
vt 0.34375 0.7172093749999999
vt 0.390625 0.7172093749999999
vt 0.390625 0.787521875
vt 0.34375 0.787521875
vt 0.484375 0.703125
vt 0.484375 0.71875
vt 0.4375 0.71875
vt 0.4375 0.703125
vt 0.484375 0.6875
vt 0.4375 0.6875
vt 0.4375 0.671875
vt 0.484375 0.671875
vt 0.12109375 0.578125
vt 0.05078125 0.578125
vt 0.05078125 0.5670765625
vt 0.12109375 0.5670765625
vt 0.24609375 0.5670765625
vt 0.24609375 0.578125
vt 0.17578125 0.578125
vt 0.17578125 0.5670765625
vt 0.390625 0.5890187499999999
vt 0.390625 0.6031031250000001
vt 0.34375 0.6031031250000001
vt 0.34375 0.5890187499999999
vt 0.34375 0.6734156250000001
vt 0.390625 0.6734156250000001
vt 0.390625 0.6875
vt 0.34375 0.6875
vt 0.45703125 0.7766734375
vt 0.45703125 0.765625
vt 0.52734375 0.765625
vt 0.52734375 0.7766734375
vt 0.45703125 0.734375
vt 0.52734375 0.734375
vt 0.52734375 0.7454234375
vt 0.45703125 0.7454234375
vt 0.34375 0.787521875
vt 0.390625 0.787521875
vt 0.390625 0.80160625
vt 0.34375 0.80160625
vt 0.390625 0.703125
vt 0.390625 0.7172093749999999
vt 0.34375 0.7172093749999999
vt 0.34375 0.703125
vt 0.27734375 0.59375
vt 0.291428125 0.59375
vt 0.291428125 0.609375
vt 0.27734375 0.609375
vt 0.192946875 0.609375
vt 0.192946875 0.59375
vt 0.20703125 0.59375
vt 0.20703125 0.609375
vt 0.411696875 0.8125
vt 0.411696875 0.796875
vt 0.42578125 0.796875
vt 0.42578125 0.8125
vt 0.49609375 0.796875
vt 0.510178125 0.796875
vt 0.510178125 0.8125
vt 0.49609375 0.8125
vt 0.45703125 0.765625
vt 0.45703125 0.77667328125
vt 0.4440759375 0.77114765625
vt 0.52734375 0.734375
vt 0.5402990625 0.7398976562499999
vt 0.52734375 0.74542328125
vt 0.52734375 0.765625
vt 0.5402990625 0.77114765625
vt 0.52734375 0.77667328125
vt 0.45703125 0.734375
vt 0.45703125 0.74542328125
vt 0.4440759375 0.7398976562499999
vt 0.05078125 0.578125
vt 0.0378259375 0.5726023437500001
vt 0.05078125 0.56707671875
vt 0.24609375 0.578125
vt 0.24609375 0.56707671875
vt 0.2590490625 0.5726023437500001
vt 0.12109375 0.578125
vt 0.12109375 0.56707671875
vt 0.1340490625 0.5726023437500001
vt 0.17578125 0.578125
vt 0.1628259375 0.5726023437500001
vt 0.17578125 0.56707671875
vn 1 0 0
vn -1 0 0
vn 0 1 0
vn 0 -1 0
vn 0 0 1
vn 0 0 -1
vn 0.8637789008984335 0.5038710255240861 0
vn -0.8637789008984335 0.5038710255240861 0
vn 0 0.6757246285173463 0.7371541402007414
vn 0 0.6757246285173463 -0.7371541402007414
vn 0.8637789008984335 -0.5038710255240861 0
vn -0.8637789008984335 -0.5038710255240861 0
vn 0 -0.6757246285173463 0.7371541402007414
vn 0 -0.6757246285173463 -0.7371541402007414
vn 0.8436614877321076 0 -0.5368754921931593
vn 0.8436614877321076 0 0.5368754921931593
vn -0.8436614877321076 0 -0.5368754921931593
vn -0.8436614877321076 0 0.5368754921931593
vn 0.7569598800825506 -0.44155993004815447 0.48170174187071396
vn -0.7569598800825506 -0.44155993004815447 0.48170174187071396
vn 0.7569598800825506 -0.44155993004815447 -0.48170174187071396
vn -0.7569598800825506 -0.44155993004815447 -0.48170174187071396
vn 0.7569598800825506 0.44155993004815447 0.48170174187071396
vn -0.7569598800825506 0.44155993004815447 0.48170174187071396
vn 0.7569598800825506 0.44155993004815447 -0.48170174187071396
vn -0.7569598800825506 0.44155993004815447 -0.48170174187071396
vn 1 0 0
vn -1 0 0
vn 0 1 0
vn 0 -1 0
vn 0 0 1
vn 0 0 -1
vn 0.8944271909999161 0.44721359549995804 0
vn -0.8944271909999161 0.44721359549995804 0
vn 0 0.5144957554275266 0.8574929257125443
vn 0 0.5144957554275266 -0.8574929257125443
vn 0.8944271909999161 -0.44721359549995804 0
vn -0.8944271909999161 -0.44721359549995804 0
vn 0 -0.5144957554275266 0.8574929257125443
vn 0 -0.5144957554275266 -0.8574929257125443
vn 0.7682212795973759 0 -0.6401843996644799
vn 0.7682212795973759 0 0.6401843996644799
vn -0.7682212795973759 0 -0.6401843996644799
vn -0.7682212795973759 0 0.6401843996644799
vn 0.7171371656006362 -0.3585685828003181 0.5976143046671969
vn -0.7171371656006362 -0.3585685828003181 0.5976143046671969
vn 0.7171371656006362 -0.3585685828003181 -0.5976143046671969
vn -0.7171371656006362 -0.3585685828003181 -0.5976143046671969
vn 0.7171371656006362 0.3585685828003181 0.5976143046671969
vn -0.7171371656006362 0.3585685828003181 0.5976143046671969
vn 0.7171371656006362 0.3585685828003181 -0.5976143046671969
vn -0.7171371656006362 0.3585685828003181 -0.5976143046671969
vn 1 0 0
vn -1 0 0
vn 0 1 0
vn 0 -1 0
vn 0 0 1
vn 0 0 -1
vn 0.7071067811865476 0.7071067811865476 0
vn -0.7071067811865476 0.7071067811865476 0
vn 0 0.8320502943378438 0.5547001962252291
vn 0 0.8320502943378438 -0.5547001962252291
vn 0.7071067811865476 -0.7071067811865476 0
vn -0.7071067811865476 -0.7071067811865476 0
vn 0 -0.8320502943378438 0.5547001962252291
vn 0 -0.8320502943378438 -0.5547001962252291
vn 0.8320502943378437 0 -0.5547001962252291
vn 0.8320502943378437 0 0.5547001962252291
vn -0.8320502943378437 0 -0.5547001962252291
vn -0.8320502943378437 0 0.5547001962252291
vn 0.6396021490668313 -0.6396021490668313 0.42640143271122083
vn -0.6396021490668313 -0.6396021490668313 0.42640143271122083
vn 0.6396021490668313 -0.6396021490668313 -0.42640143271122083
vn -0.6396021490668313 -0.6396021490668313 -0.42640143271122083
vn 0.6396021490668313 0.6396021490668313 0.42640143271122083
vn -0.6396021490668313 0.6396021490668313 0.42640143271122083
vn 0.6396021490668313 0.6396021490668313 -0.42640143271122083
vn -0.6396021490668313 0.6396021490668313 -0.42640143271122083
usemtl m_736b5b5a-08f6-caac-f75d-8d194d82194a
f 16/1/1 14/2/1 13/3/1 15/4/1
f 9/5/2 10/6/2 12/7/2 11/8/2
f 1/9/3 2/10/3 4/11/3 3/12/3
f 8/13/4 6/14/4 5/15/4 7/16/4
f 21/17/5 22/18/5 24/19/5 23/20/5
f 20/21/6 18/22/6 17/23/6 19/24/6
f 2/25/7 1/26/7 14/27/7 16/28/7
f 10/29/8 3/30/8 4/31/8 12/32/8
f 22/33/9 1/34/9 3/35/9 24/36/9
f 4/37/10 2/38/10 18/39/10 20/40/10
f 13/41/11 5/42/11 6/43/11 15/44/11
f 8/45/12 7/46/12 9/47/12 11/48/12
f 7/49/13 5/50/13 21/51/13 23/52/13
f 17/53/14 6/54/14 8/55/14 19/56/14
f 15/57/15 17/58/15 18/59/15 16/60/15
f 22/61/16 21/62/16 13/63/16 14/64/16
f 20/65/17 19/66/17 11/67/17 12/68/17
f 9/69/18 23/70/18 24/71/18 10/72/18
f 5/73/19 13/74/19 21/75/19
f 7/76/20 23/77/20 9/78/20
f 6/79/21 17/80/21 15/81/21
f 8/82/22 11/83/22 19/84/22
f 1/85/23 22/86/23 14/87/23
f 3/88/24 10/89/24 24/90/24
f 2/91/25 16/92/25 18/93/25
f 4/94/26 20/95/26 12/96/26
f 40/97/27 38/98/27 37/99/27 39/100/27
f 33/101/28 34/102/28 36/103/28 35/104/28
f 25/105/29 26/106/29 28/107/29 27/108/29
f 32/109/30 30/110/30 29/111/30 31/112/30
f 45/113/31 46/114/31 48/115/31 47/116/31
f 44/117/32 42/118/32 41/119/32 43/120/32
f 26/121/33 25/122/33 38/123/33 40/124/33
f 34/125/34 27/126/34 28/127/34 36/128/34
f 46/129/35 25/130/35 27/131/35 48/132/35
f 28/133/36 26/134/36 42/135/36 44/136/36
f 37/137/37 29/138/37 30/139/37 39/140/37
f 32/141/38 31/142/38 33/143/38 35/144/38
f 31/145/39 29/146/39 45/147/39 47/148/39
f 41/149/40 30/150/40 32/151/40 43/152/40
f 39/153/41 41/154/41 42/155/41 40/156/41
f 46/157/42 45/158/42 37/159/42 38/160/42
f 44/161/43 43/162/43 35/163/43 36/164/43
f 33/165/44 47/166/44 48/167/44 34/168/44
f 29/169/45 37/170/45 45/171/45
f 31/172/46 47/173/46 33/174/46
f 30/175/47 41/176/47 39/177/47
f 32/178/48 35/179/48 43/180/48
f 25/181/49 46/182/49 38/183/49
f 27/184/50 34/185/50 48/186/50
f 26/187/51 40/188/51 42/189/51
f 28/190/52 44/191/52 36/192/52
f 64/193/53 62/194/53 61/195/53 63/196/53
f 57/197/54 58/198/54 60/199/54 59/200/54
f 49/201/55 50/202/55 52/203/55 51/204/55
f 56/205/56 54/206/56 53/207/56 55/208/56
f 69/209/57 70/210/57 72/211/57 71/212/57
f 68/213/58 66/214/58 65/215/58 67/216/58
f 50/217/59 49/218/59 62/219/59 64/220/59
f 58/221/60 51/222/60 52/223/60 60/224/60
f 70/225/61 49/226/61 51/227/61 72/228/61
f 52/229/62 50/230/62 66/231/62 68/232/62
f 61/233/63 53/234/63 54/235/63 63/236/63
f 56/237/64 55/238/64 57/239/64 59/240/64
f 55/241/65 53/242/65 69/243/65 71/244/65
f 65/245/66 54/246/66 56/247/66 67/248/66
f 63/249/67 65/250/67 66/251/67 64/252/67
f 70/253/68 69/254/68 61/255/68 62/256/68
f 68/257/69 67/258/69 59/259/69 60/260/69
f 57/261/70 71/262/70 72/263/70 58/264/70
f 53/265/71 61/266/71 69/267/71
f 55/268/72 71/269/72 57/270/72
f 54/271/73 65/272/73 63/273/73
f 56/274/74 59/275/74 67/276/74
f 49/277/75 70/278/75 62/279/75
f 51/280/76 58/281/76 72/282/76
f 50/283/77 64/284/77 66/285/77
f 52/286/78 68/287/78 60/288/78