# Made in Blockbench 4.12.3
mtllib часики.mtl

o cube
v 0.3125 0.625 0.5
v 0.3125 0.625 0.25
v 0.3125 0 0.5
v 0.3125 0 0.25
v -0.1875 0.625 0.25
v -0.1875 0.625 0.5
v -0.1875 0 0.25
v -0.1875 0 0.5
vt 0 1
vt 0.25 1
vt 0.25 0.6875
vt 0 0.6875
vt 0 0.65625
vt 0.125 0.65625
vt 0.125 0.34375
vt 0 0.34375
vt 0.28125 1
vt 0.53125 1
vt 0.53125 0.6875
vt 0.28125 0.6875
vt 0.15625 0.65625
vt 0.28125 0.65625
vt 0.28125 0.34375
vt 0.15625 0.34375
vt 0.8125 0.875
vt 0.5625 0.875
vt 0.5625 1
vt 0.8125 1
vt 0.8125 0.84375
vt 0.5625 0.84375
vt 0.5625 0.71875
vt 0.8125 0.71875
vn 0 0 -1
vn 1 0 0
vn 0 0 1
vn -1 0 0
vn 0 1 0
vn 0 -1 0
usemtl m_74bdde8c-5065-73d2-a18c-4bc64edf6eaf
f 4/4/1 7/3/1 5/2/1 2/1/1
f 3/8/2 4/7/2 2/6/2 1/5/2
f 8/12/3 3/11/3 1/10/3 6/9/3
f 7/16/4 8/15/4 6/14/4 5/13/4
f 6/20/5 1/19/5 2/18/5 5/17/5
f 7/24/6 4/23/6 3/22/6 8/21/6
o tube
v 0.1127404735808355 0.5623215415465983 0.2581786351310005
v 0.1127404735808355 0.5677739649672653 0.13329760743326824
v 0.10613935332728847 0.5377092731164579 0.2571040402842231
v 0.10613935332728847 0.5431616965371249 0.13222301258649094
v 0.19975952641916447 0.5121288857642343 0.2559871764524601
v 0.19975952641916447 0.5175813091849013 0.13110614875472787
v 0.18172493049960203 0.49411145478384805 0.25520051842706737
v 0.18172493049960203 0.49956387820451503 0.13031949072933519
v 0.25 0.42519265578236404 0.25219145867854037
v 0.25 0.430645079203031 0.12731043098080816
v 0.22536428382689055 0.4185978183326099 0.25190352185715575
v 0.22536428382689055 0.4240502417532769 0.12702249415942352
v 0.25 0.32480734421763596 0.2478085413214596
v 0.25 0.33025976763830295 0.12292751362372739
v 0.22536428382689055 0.3314021816673901 0.24809647814284425
v 0.22536428382689055 0.3368546050880571 0.12321545044511201
v 0.1997595264191645 0.2378711142357657 0.24401282354753992
v 0.1997595264191645 0.2433235376564327 0.11913179584980768
v 0.1817249304996021 0.255888545216152 0.2447994815729326
v 0.1817249304996021 0.261340968636819 0.11991845387520039
v 0.11274047358083555 0.1876784584534017 0.24182136486899952
v 0.11274047358083555 0.19313088187406868 0.11694033717126731
v 0.10613935332728852 0.21229072688354209 0.24289595971577685
v 0.10613935332728852 0.21774315030420907 0.11801493201804464
v 0.012259526419164578 0.18767845845340167 0.24182136486899952
v 0.012259526419164578 0.19313088187406866 0.11694033717126728
v 0.01886064667271159 0.21229072688354206 0.24289595971577685
v 0.01886064667271159 0.21774315030420904 0.11801493201804464
v -0.07475952641916447 0.23787111423576568 0.24401282354753992
v -0.07475952641916447 0.24332353765643266 0.11913179584980768
v -0.05672493049960205 0.25588854521615195 0.2447994815729326
v -0.05672493049960205 0.26134096863681894 0.11991845387520039
v -0.125 0.324807344217636 0.2478085413214596
v -0.125 0.330259767638303 0.12292751362372739
v -0.10036428382689055 0.3314021816673901 0.24809647814284425
v -0.10036428382689055 0.3368546050880571 0.12321545044511201
v -0.125 0.4251926557823639 0.25219145867854037
v -0.125 0.4306450792030309 0.12731043098080816
v -0.10036428382689055 0.4185978183326098 0.25190352185715575
v -0.10036428382689055 0.42405024175327677 0.12702249415942352
v -0.0747595264191645 0.5121288857642343 0.2559871764524601
v -0.0747595264191645 0.5175813091849013 0.13110614875472787
v -0.05672493049960209 0.494111454783848 0.25520051842706737
v -0.05672493049960209 0.499563878204515 0.13031949072933516
v 0.012259526419164515 0.5623215415465983 0.2581786351310005
v 0.012259526419164515 0.5677739649672653 0.13329760743326824
v 0.018860646672711534 0.5377092731164579 0.2571040402842231
v 0.018860646672711534 0.5431616965371249 0.13222301258649094
vt 0.79074375 0.28125
vt 0.84098125 0.28125
vt 0.84098125 0.34375
vt 0.79074375 0.34375
vt 0.80630625 0.59375
vt 0.76266875 0.59375
vt 0.76266875 0.53125
vt 0.80630625 0.53125
vt 0.42806875 0.6439312500000001
vt 0.4658625 0.6221125000000001
vt 0.47488125000000003 0.63113125
vt 0.43136874999999997 0.65625
vt 0.65011875 0.46875
vt 0.69363125 0.49386874999999997
vt 0.6846125000000001 0.5028874999999999
vt 0.64681875 0.48106874999999993
vt 0.0027687500000000004 0.25
vt 0.053006250000000005 0.25
vt 0.053006250000000005 0.3125
vt 0.0027687500000000004 0.3125
vt 0.89358125 0.6875
vt 0.84994375 0.6875
vt 0.84994375 0.625
vt 0.89358125 0.625
vt 0.4658625 0.6221125000000001
vt 0.48768125 0.58431875
vt 0.5 0.58761875
vt 0.47488125000000003 0.63113125
vt 0.69363125 0.49386874999999997
vt 0.71875 0.53738125
vt 0.7064312500000001 0.54068125
vt 0.6846125000000001 0.5028874999999999
vt 0.053006250000000005 0.25
vt 0.10324375 0.25
vt 0.10324375 0.3125
vt 0.053006250000000005 0.3125
vt 0.84994375 0.6875
vt 0.80630625 0.6875
vt 0.80630625 0.625
vt 0.84994375 0.625
vt 0.48768125 0.58431875
vt 0.48768125 0.54068125
vt 0.5 0.53738125
vt 0.5 0.58761875
vt 0.71875 0.53738125
vt 0.71875 0.58761875
vt 0.7064312500000001 0.58431875
vt 0.7064312500000001 0.54068125
vt 0.10324375 0.25
vt 0.15348125 0.25
vt 0.15348125 0.3125
vt 0.10324375 0.3125
vt 0.80630625 0.6875
vt 0.76266875 0.6875
vt 0.76266875 0.625
vt 0.80630625 0.625
vt 0.48768125 0.54068125
vt 0.4658625 0.5028874999999999
vt 0.47488125000000003 0.49386874999999997
vt 0.5 0.53738125
vt 0.71875 0.58761875
vt 0.69363125 0.63113125
vt 0.6846125000000001 0.6221125000000001
vt 0.7064312500000001 0.58431875
vt 0.19026875 0.1875
vt 0.24050625 0.1875
vt 0.24050625 0.25
vt 0.19026875 0.25
vt 0.70608125 0.25
vt 0.66244375 0.25
vt 0.66244375 0.1875
vt 0.70608125 0.1875
vt 0.4658625 0.5028874999999999
vt 0.42806875 0.48106874999999993
vt 0.43136874999999997 0.46875
vt 0.47488125000000003 0.49386874999999997
vt 0.69363125 0.63113125
vt 0.65011875 0.65625
vt 0.64681875 0.6439312500000001
vt 0.6846125000000001 0.6221125000000001
vt 0.24050625 0.1875
vt 0.29074374999999997 0.1875
vt 0.29074374999999997 0.25
vt 0.24050625 0.25
vt 0.66244375 0.25
vt 0.61880625 0.25
vt 0.61880625 0.1875
vt 0.66244375 0.1875
vt 0.42806875 0.48106874999999993
vt 0.38443125 0.48106874999999993
vt 0.38113125000000003 0.46875
vt 0.43136874999999997 0.46875
vt 0.65011875 0.65625
vt 0.59988125 0.65625
vt 0.60318125 0.6439312500000001
vt 0.64681875 0.6439312500000001
vt 0.29074374999999997 0.1875
vt 0.34098125 0.1875
vt 0.34098125 0.25
vt 0.29074374999999997 0.25
vt 0.61880625 0.25
vt 0.57516875 0.25
vt 0.57516875 0.1875
vt 0.61880625 0.1875
vt 0.38443125 0.48106874999999993
vt 0.3466375 0.5028874999999999
vt 0.33761874999999997 0.49386874999999997
vt 0.38113125000000003 0.46875
vt 0.59988125 0.65625
vt 0.55636875 0.63113125
vt 0.5653875 0.6221125000000001
vt 0.60318125 0.6439312500000001
vt 0.69026875 0.375
vt 0.74050625 0.375
vt 0.74050625 0.4375
vt 0.69026875 0.4375
vt 0.51858125 0.25
vt 0.47494375 0.25
vt 0.47494375 0.1875
vt 0.51858125 0.1875
vt 0.3466375 0.5028874999999999
vt 0.32481875 0.54068125
vt 0.3125 0.53738125
vt 0.33761874999999997 0.49386874999999997
vt 0.55636875 0.63113125
vt 0.53125 0.58761875
vt 0.54356875 0.58431875
vt 0.5653875 0.6221125000000001
vt 0.74050625 0.375
vt 0.79074375 0.375
vt 0.79074375 0.4375
vt 0.74050625 0.4375
vt 0.47494375 0.25
vt 0.43130625 0.25
vt 0.43130625 0.1875
vt 0.47494375 0.1875
vt 0.32481875 0.54068125
vt 0.32481875 0.58431875
vt 0.3125 0.58761875
vt 0.3125 0.53738125
vt 0.53125 0.58761875
vt 0.53125 0.53738125
vt 0.54356875 0.54068125
vt 0.54356875 0.58431875
vt 0.79074375 0.375
vt 0.84098125 0.375
vt 0.84098125 0.4375
vt 0.79074375 0.4375
vt 0.43130625 0.25
vt 0.38766875 0.25
vt 0.38766875 0.1875
vt 0.43130625 0.1875
vt 0.32481875 0.58431875
vt 0.3466375 0.6221125000000001
vt 0.33761874999999997 0.63113125
vt 0.3125 0.58761875
vt 0.53125 0.53738125
vt 0.55636875 0.49386874999999997
vt 0.5653875 0.5028874999999999
vt 0.54356875 0.54068125
vt 0.69026875 0.28125
vt 0.74050625 0.28125
vt 0.74050625 0.34375
vt 0.69026875 0.34375
vt 0.89358125 0.59375
vt 0.84994375 0.59375
vt 0.84994375 0.53125
vt 0.89358125 0.53125
vt 0.3466375 0.6221125000000001
vt 0.38443125 0.6439312500000001
vt 0.38113125000000003 0.65625
vt 0.33761874999999997 0.63113125
vt 0.55636875 0.49386874999999997
vt 0.59988125 0.46875
vt 0.60318125 0.48106874999999993
vt 0.5653875 0.5028874999999999
vt 0.74050625 0.28125
vt 0.79074375 0.28125
vt 0.79074375 0.34375
vt 0.74050625 0.34375
vt 0.84994375 0.59375
vt 0.80630625 0.59375
vt 0.80630625 0.53125
vt 0.84994375 0.53125
vt 0.38443125 0.6439312500000001
vt 0.42806875 0.6439312500000001
vt 0.43136874999999997 0.65625
vt 0.38113125000000003 0.65625
vt 0.59988125 0.46875
vt 0.65011875 0.46875
vt 0.64681875 0.48106874999999993
vt 0.60318125 0.48106874999999993
vn 0.5 0.8652011394955538 0.03777549755589485
vn -0.5000000000000001 -0.8652011394955537 -0.03777549755589485
vn 0 -0.04361938736533588 0.9990482215818578
vn 0 0.04361938736533588 -0.9990482215818578
vn 0.8660254037844386 0.499524110790929 0.021809693682667945
vn -0.8660254037844387 -0.4995241107909291 -0.021809693682667948
vn 0 -0.04361938736533588 0.9990482215818578
vn 0 0.04361938736533588 -0.9990482215818578
vn 1 0 0
vn -1 0 0
vn 0 -0.04361938736533588 0.9990482215818578
vn 0 0.04361938736533588 -0.9990482215818578
vn 0.8660254037844386 -0.499524110790929 -0.021809693682667945
vn -0.8660254037844386 0.499524110790929 0.021809693682667945
vn 0 -0.04361938736533588 0.9990482215818578
vn 0 0.04361938736533588 -0.9990482215818578
vn 0.5000000000000001 -0.8652011394955537 -0.03777549755589485
vn -0.5000000000000001 0.8652011394955537 0.03777549755589485
vn 0 -0.04361938736533588 0.9990482215818578
vn 0 0.04361938736533588 -0.9990482215818578
vn 2.7622724904225857e-16 -0.9990482215818578 -0.04361938736533588
vn -3.180108491464842e-16 0.9990482215818578 0.04361938736533588
vn 0 -0.04361938736533588 0.9990482215818578
vn 0 0.04361938736533588 -0.9990482215818578
vn -0.49999999999999967 -0.865201139495554 -0.03777549755589486
vn 0.4999999999999997 0.8652011394955541 0.03777549755589486
vn 0 -0.04361938736533588 0.9990482215818578
vn 0 0.04361938736533588 -0.9990482215818578
vn -0.8660254037844387 -0.49952411079092884 -0.021809693682667938
vn 0.8660254037844387 0.499524110790929 0.021809693682667945
vn 0 -0.04361938736533588 0.9990482215818578
vn 0 0.04361938736533588 -0.9990482215818578
vn -1 0 0
vn 1 0 0
vn 0 -0.04361938736533588 0.9990482215818578
vn 0 0.04361938736533588 -0.9990482215818578
vn -0.8660254037844389 0.4995241107909287 0.02180969368266793
vn 0.8660254037844388 -0.49952411079092857 -0.021809693682667927
vn 0 -0.04361938736533588 0.9990482215818578
vn 0 0.04361938736533588 -0.9990482215818578
vn -0.5000000000000003 0.8652011394955538 0.03777549755589485
vn 0.5000000000000001 -0.8652011394955537 -0.03777549755589485
vn 0 -0.04361938736533588 0.9990482215818578
vn 0 0.04361938736533588 -0.9990482215818578
vn 0 0.9990482215818578 0.04361938736533588
vn 0 -0.9990482215818578 -0.04361938736533588
vn 0 -0.04361938736533588 0.9990482215818578
vn 0 0.04361938736533588 -0.9990482215818578
usemtl m_74bdde8c-5065-73d2-a18c-4bc64edf6eaf
f 9/25/7 13/26/7 14/27/7 10/28/7
f 12/29/8 16/30/8 15/31/8 11/32/8
f 11/33/9 15/34/9 13/35/9 9/36/9
f 10/37/10 14/38/10 16/39/10 12/40/10
f 13/41/11 17/42/11 18/43/11 14/44/11
f 16/45/12 20/46/12 19/47/12 15/48/12
f 15/49/13 19/50/13 17/51/13 13/52/13
f 14/53/14 18/54/14 20/55/14 16/56/14
f 17/57/15 21/58/15 22/59/15 18/60/15
f 20/61/16 24/62/16 23/63/16 19/64/16
f 19/65/17 23/66/17 21/67/17 17/68/17
f 18/69/18 22/70/18 24/71/18 20/72/18
f 21/73/19 25/74/19 26/75/19 22/76/19
f 24/77/20 28/78/20 27/79/20 23/80/20
f 23/81/21 27/82/21 25/83/21 21/84/21
f 22/85/22 26/86/22 28/87/22 24/88/22
f 25/89/23 29/90/23 30/91/23 26/92/23
f 28/93/24 32/94/24 31/95/24 27/96/24
f 27/97/25 31/98/25 29/99/25 25/100/25
f 26/101/26 30/102/26 32/103/26 28/104/26
f 29/105/27 33/106/27 34/107/27 30/108/27
f 32/109/28 36/110/28 35/111/28 31/112/28
f 31/113/29 35/114/29 33/115/29 29/116/29
f 30/117/30 34/118/30 36/119/30 32/120/30
f 33/121/31 37/122/31 38/123/31 34/124/31
f 36/125/32 40/126/32 39/127/32 35/128/32
f 35/129/33 39/130/33 37/131/33 33/132/33
f 34/133/34 38/134/34 40/135/34 36/136/34
f 37/137/35 41/138/35 42/139/35 38/140/35
f 40/141/36 44/142/36 43/143/36 39/144/36
f 39/145/37 43/146/37 41/147/37 37/148/37
f 38/149/38 42/150/38 44/151/38 40/152/38
f 41/153/39 45/154/39 46/155/39 42/156/39
f 44/157/40 48/158/40 47/159/40 43/160/40
f 43/161/41 47/162/41 45/163/41 41/164/41
f 42/165/42 46/166/42 48/167/42 44/168/42
f 45/169/43 49/170/43 50/171/43 46/172/43
f 48/173/44 52/174/44 51/175/44 47/176/44
f 47/177/45 51/178/45 49/179/45 45/180/45
f 46/181/46 50/182/46 52/183/46 48/184/46
f 49/185/47 53/186/47 54/187/47 50/188/47
f 52/189/48 56/190/48 55/191/48 51/192/48
f 51/193/49 55/194/49 53/195/49 49/196/49
f 50/197/50 54/198/50 56/199/50 52/200/50
f 53/201/51 9/202/51 10/203/51 54/204/51
f 56/205/52 12/206/52 11/207/52 55/208/52
f 55/209/53 11/210/53 9/211/53 53/212/53
f 54/213/54 10/214/54 12/215/54 56/216/54
o cylinder
v -0.09375 0.33317278684803 0.2518262155654503
v 0.0625 0.375 0.25
v 0.0625 0.3722737882896665 0.18755948615113388
v 0.10436706131736292 0.5311012846221652 0.24318447072416627
v 0.10436706131736292 0.5283750729118317 0.18074395687530015
v 0.17688293868263705 0.4892740714701953 0.24501068628961659
v 0.17688293868263705 0.4865478597598618 0.18257017244075047
v 0.21875 0.41682721315197 0.24817378443454968
v 0.21875 0.41410100144163653 0.18573327058568356
v 0.21875 0.33317278684803 0.2518262155654503
v 0.21875 0.3304465751376965 0.18938570171658423
v 0.1768829386826371 0.26072592852980475 0.2549893137103834
v 0.1768829386826371 0.25799971681947126 0.1925487998615173
v 0.10436706131736295 0.21889871537783476 0.25681552927583373
v 0.10436706131736295 0.21617250366750126 0.1943750154269676
v 0.02063293868263715 0.21889871537783473 0.25681552927583373
v 0.02063293868263715 0.21617250366750124 0.1943750154269676
v -0.05188293868263706 0.2607259285298047 0.2549893137103834
v -0.05188293868263706 0.2579997168194712 0.1925487998615173
v -0.09375 0.3304465751376965 0.18938570171658423
v -0.09375 0.4168272131519699 0.24817378443454968
v -0.09375 0.4141010014416364 0.18573327058568356
v -0.05188293868263712 0.4892740714701952 0.24501068628961659
v -0.05188293868263712 0.4865478597598617 0.1825701724407505
v 0.02063293868263709 0.5311012846221652 0.24318447072416627
v 0.02063293868263709 0.5283750729118317 0.18074395687530015
vt 0.447815625 0.41656562500000005
vt 0.411559375 0.4375
vt 0.390625 0.359375
vt 0.099059375 0.1875
vt 0.14092812500000002 0.1875
vt 0.14092812500000002 0.21875
vt 0.099059375 0.21875
vt 0.599059375 0.28125
vt 0.635315625 0.30218437499999995
vt 0.578125 0.359375
vt 0.46875 0.38030937499999995
vt 0.447815625 0.41656562500000005
vt 0.390625 0.359375
vt 0.765321875 0.46875
vt 0.807190625 0.46875
vt 0.807190625 0.5
vt 0.765321875 0.5
vt 0.635315625 0.30218437499999995
vt 0.65625 0.33844062500000005
vt 0.578125 0.359375
vt 0.46875 0.33844062500000005
vt 0.46875 0.38030937499999995
vt 0.390625 0.359375
vt 0.807190625 0.46875
vt 0.849059375 0.46875
vt 0.849059375 0.5
vt 0.807190625 0.5
vt 0.65625 0.33844062500000005
vt 0.65625 0.38030937499999995
vt 0.578125 0.359375
vt 0.447815625 0.30218437499999995
vt 0.46875 0.33844062500000005
vt 0.390625 0.359375
vt 0.849059375 0.46875
vt 0.8909281250000001 0.46875
vt 0.8909281250000001 0.5
vt 0.849059375 0.5
vt 0.65625 0.38030937499999995
vt 0.635315625 0.41656562500000005
vt 0.578125 0.359375
vt 0.411559375 0.28125
vt 0.447815625 0.30218437499999995
vt 0.390625 0.359375
vt 0.765321875 0.15625
vt 0.807190625 0.15625
vt 0.807190625 0.1875
vt 0.765321875 0.1875
vt 0.635315625 0.41656562500000005
vt 0.599059375 0.4375
vt 0.578125 0.359375
vt 0.369690625 0.28125
vt 0.411559375 0.28125
vt 0.390625 0.359375
vt 0.807190625 0.15625
vt 0.849059375 0.15625
vt 0.849059375 0.1875
vt 0.807190625 0.1875
vt 0.599059375 0.4375
vt 0.557190625 0.4375
vt 0.578125 0.359375
vt 0.333434375 0.30218437499999995
vt 0.369690625 0.28125
vt 0.390625 0.359375
vt 0.849059375 0.15625
vt 0.8909281250000001 0.15625
vt 0.8909281250000001 0.1875
vt 0.849059375 0.1875
vt 0.557190625 0.4375
vt 0.520934375 0.41656562500000005
vt 0.578125 0.359375
vt 0.3125 0.33844062500000005
vt 0.333434375 0.30218437499999995
vt 0.390625 0.359375
vt 0.765321875 0.21875
vt 0.807190625 0.21875
vt 0.807190625 0.25
vt 0.765321875 0.25
vt 0.520934375 0.41656562500000005
vt 0.5 0.38030937499999995
vt 0.578125 0.359375
vt 0.3125 0.38030937499999995
vt 0.3125 0.33844062500000005
vt 0.390625 0.359375
vt 0.807190625 0.21875
vt 0.849059375 0.21875
vt 0.849059375 0.25
vt 0.807190625 0.25
vt 0.5 0.38030937499999995
vt 0.5 0.33844062500000005
vt 0.578125 0.359375
vt 0.333434375 0.41656562500000005
vt 0.3125 0.38030937499999995
vt 0.390625 0.359375
vt 0.849059375 0.21875
vt 0.8909281250000001 0.21875
vt 0.8909281250000001 0.25
vt 0.849059375 0.25
vt 0.5 0.33844062500000005
vt 0.520934375 0.30218437499999995
vt 0.578125 0.359375
vt 0.369690625 0.4375
vt 0.333434375 0.41656562500000005
vt 0.390625 0.359375
vt 0.015321874999999999 0.1875
vt 0.057190624999999995 0.1875
vt 0.057190624999999995 0.21875
vt 0.015321874999999999 0.21875
vt 0.520934375 0.30218437499999995
vt 0.557190625 0.28125
vt 0.578125 0.359375
vt 0.411559375 0.4375
vt 0.369690625 0.4375
vt 0.390625 0.359375
vt 0.057190624999999995 0.1875
vt 0.099059375 0.1875
vt 0.099059375 0.21875
vt 0.057190624999999995 0.21875
vt 0.557190625 0.28125
vt 0.599059375 0.28125
vt 0.578125 0.359375
vn 0 0.04361938736533589 0.9990482215818579
vn 0.4999999999999997 0.8652011394955538 -0.037775497555894856
vn 0 -0.04361938736533589 -0.9990482215818579
vn 0 0.04361938736533589 0.9990482215818579
vn 0.8660254037844387 0.49952411079092895 -0.021809693682667945
vn 0 -0.04361938736533589 -0.9990482215818579
vn 0 0.04361938736533589 0.9990482215818579
vn 1 0 0
vn 0 -0.04361938736533589 -0.9990482215818579
vn 0 0.04361938736533589 0.9990482215818579
vn 0.8660254037844388 -0.4995241107909288 0.021809693682667938
vn 0 -0.04361938736533589 -0.9990482215818579
vn 0 0.04361938736533589 0.9990482215818579
vn 0.49999999999999983 -0.8652011394955537 0.03777549755589485
vn 0 -0.04361938736533589 -0.9990482215818579
vn 0 0.04361938736533589 0.9990482215818579
vn 3.314726988507103e-16 -0.9990482215818579 0.04361938736533589
vn 0 -0.04361938736533589 -0.9990482215818579
vn 0 0.04361938736533589 0.9990482215818579
vn -0.49999999999999933 -0.8652011394955541 0.03777549755589487
vn 0 -0.04361938736533589 -0.9990482215818579
vn 0 0.04361938736533589 0.9990482215818579
vn -0.8660254037844387 -0.4995241107909288 0.021809693682667938
vn 0 -0.04361938736533589 -0.9990482215818579
vn 0 0.04361938736533589 0.9990482215818579
vn -1 0 0
vn 0 -0.04361938736533589 -0.9990482215818579
vn 0 0.04361938736533589 0.9990482215818579
vn -0.8660254037844392 0.4995241107909284 -0.02180969368266792
vn 0 -0.04361938736533589 -0.9990482215818579
vn 0 0.04361938736533589 0.9990482215818579
vn -0.4999999999999999 0.8652011394955537 -0.03777549755589485
vn 0 -0.04361938736533589 -0.9990482215818579
vn 0 0.04361938736533589 0.9990482215818579
vn 0 0.9990482215818579 -0.04361938736533589
vn 0 -0.04361938736533589 -0.9990482215818579
usemtl m_74bdde8c-5065-73d2-a18c-4bc64edf6eaf
f 62/217/55 60/218/55 58/219/55
f 60/220/56 62/221/56 63/222/56 61/223/56
f 61/224/57 63/225/57 59/226/57
f 64/227/58 62/228/58 58/229/58
f 62/230/59 64/231/59 65/232/59 63/233/59
f 63/234/60 65/235/60 59/236/60
f 66/237/61 64/238/61 58/239/61
f 64/240/62 66/241/62 67/242/62 65/243/62
f 65/244/63 67/245/63 59/246/63
f 68/247/64 66/248/64 58/249/64
f 66/250/65 68/251/65 69/252/65 67/253/65
f 67/254/66 69/255/66 59/256/66
f 70/257/67 68/258/67 58/259/67
f 68/260/68 70/261/68 71/262/68 69/263/68
f 69/264/69 71/265/69 59/266/69
f 72/267/70 70/268/70 58/269/70
f 70/270/71 72/271/71 73/272/71 71/273/71
f 71/274/72 73/275/72 59/276/72
f 74/277/73 72/278/73 58/279/73
f 72/280/74 74/281/74 75/282/74 73/283/74
f 73/284/75 75/285/75 59/286/75
f 57/287/76 74/288/76 58/289/76
f 74/290/77 57/291/77 76/292/77 75/293/77
f 75/294/78 76/295/78 59/296/78
f 77/297/79 57/298/79 58/299/79
f 57/300/80 77/301/80 78/302/80 76/303/80
f 76/304/81 78/305/81 59/306/81
f 79/307/82 77/308/82 58/309/82
f 77/310/83 79/311/83 80/312/83 78/313/83
f 78/314/84 80/315/84 59/316/84
f 81/317/85 79/318/85 58/319/85
f 79/320/86 81/321/86 82/322/86 80/323/86
f 80/324/87 82/325/87 59/326/87
f 60/327/88 81/328/88 58/329/88
f 81/330/89 60/331/89 61/332/89 82/333/89
f 82/334/90 61/335/90 59/336/90