# Blender 4.4.0
# www.blender.org
mtllib челик.mtl
o Cube
v 1.034147 10.730031 -1.080262
v 2.031819 10.315543 -1.109317
v 1.034051 10.599902 0.776089
v 2.031723 10.185414 0.747034
v -0.002952 10.733011 -1.080158
v -0.000834 12.936415 0.881890
v -0.003047 10.602882 0.776194
v 1.349995 12.539307 0.863930
v 0.400961 9.175363 -0.871287
v 0.000000 9.135388 -0.871287
v 0.000000 9.135388 0.989620
v 0.403242 9.170127 1.004193
v 1.279879 12.293821 -0.973704
v -0.000738 12.240824 -0.974461
v 0.001717 13.912962 -0.857246
v 3.841051 14.913904 -0.609064
v 3.098146 14.495068 1.055009
v 0.001621 14.608553 0.999106
v 0.007540 15.507182 -0.743604
v 2.019292 15.795359 -0.743168
v 1.944686 15.535240 1.072571
v -0.013431 15.388789 1.118075
v 2.031274 10.185316 0.747798
v 2.031819 10.315543 -1.109317
v 0.400961 9.175363 -0.871287
v 0.403242 9.170127 1.004193
v 1.880542 5.884326 0.464276
v 1.712910 5.932160 -0.745802
v 0.684183 5.175449 -0.588118
v 0.851816 5.127615 0.621960
v 1.974485 4.871244 0.337009
v 1.858022 4.903927 -0.673919
v 0.840169 4.601785 -0.528998
v 0.956632 4.569102 0.481930
v 1.907287 1.639011 0.230248
v 1.823359 1.720270 -0.374672
v 1.169107 1.526061 -0.281520
v 1.230966 1.576048 0.328772
v 1.927053 0.816207 0.222765
v 1.853778 0.890907 -0.389483
v 1.174733 0.855006 -0.291896
v 1.243987 0.851316 0.299163
v 1.906313 0.462159 0.236599
v 1.864508 0.519331 -0.429063
v 1.183240 0.514305 -0.340416
v 1.224128 0.504166 0.310204
v 2.112081 1.203166 1.371161
v 1.428672 1.203971 1.452667
v 2.109741 0.880671 1.902874
v 1.426347 0.925971 1.976088
v 2.087873 0.528201 1.916838
v 1.404478 0.573503 1.990052
v 4.001325 15.789681 -0.292430
v 3.757497 15.410780 0.793325
v 2.423508 15.642677 -0.074972
v 2.337444 15.431590 1.058371
v 5.167229 14.779723 -0.383054
v 4.977041 14.540792 1.225893
v 5.243441 15.595593 -0.081345
v 5.053254 15.356661 1.527602
v 6.421803 14.265888 -0.194985
v 6.328932 14.179558 0.985970
v 6.498015 15.081758 0.106723
v 6.404068 14.992382 1.287113
v 8.163885 13.024840 0.696855
v 8.111631 13.272214 1.495939
v 8.422044 13.801752 0.459225
v 8.432986 14.132815 1.548292
v 9.053696 12.229795 1.511984
v 8.908764 12.596512 2.780484
v 9.413911 13.012535 1.315625
v 9.269224 13.369328 2.592592
v -0.743230 15.552822 -0.661855
v 0.566228 15.937693 -0.627526
v 0.485351 15.899611 0.981945
v 0.009064 16.503254 1.140231
v -0.449262 16.251564 -0.794028
v 0.627893 16.541206 -0.813592
v 0.458086 16.760672 0.930955
v -0.143370 16.304274 0.906077
v 0.056807 18.018314 -1.361607
v 1.338213 17.896639 -1.018533
v 0.987962 18.179089 0.743672
v -0.374688 18.345221 0.416627
v -0.049080 18.588585 -1.494978
v 0.971126 18.468521 -1.215222
v 0.714453 18.811876 0.506622
v -0.343204 18.968414 0.254197
v 0.213904 16.667328 1.177383
v 0.301874 16.544092 1.416537
v 0.241497 16.862745 1.397133
v -0.212955 16.387276 1.609902
v -0.461503 18.442986 1.134819
v -0.204040 18.096870 -0.935600
v 0.758753 18.251541 1.186855
v -0.583404 19.040325 0.699498
v -0.311844 18.667610 -1.067350
v 0.483381 18.883507 0.946612
v -1.212912 10.735992 -1.080054
v -2.038939 10.321505 -1.109109
v -1.228311 10.611577 0.777100
v -2.039035 10.191376 0.747243
v -1.578330 12.615306 0.911323
v -0.400961 9.175363 -0.871287
v -0.400961 9.175363 0.989620
v -1.463648 12.282850 -0.949666
v -3.399491 14.524152 -0.856916
v -3.321838 15.030413 0.943259
v -1.962798 15.778805 -0.709423
v -1.985336 15.675073 1.140507
v -2.035381 10.252499 0.921695
v -2.035381 10.252499 -0.939212
v -0.400961 9.175363 -0.871287
v -0.400961 9.175363 0.989620
v -1.786757 5.890450 0.537626
v -1.786757 5.890450 -0.684944
v -0.712983 5.182798 -0.640319
v -0.712983 5.182798 0.582252
v -1.851127 4.869754 0.464177
v -1.874138 4.861558 -0.553668
v -0.833418 4.606658 -0.537970
v -0.810407 4.614854 0.479876
v -1.646936 1.642813 0.477730
v -1.655300 1.698416 -0.137668
v -0.986349 1.534572 -0.127578
v -0.959236 1.605289 0.487821
v -1.631665 0.837138 0.499036
v -1.645002 0.876895 -0.116362
v -0.956520 0.858661 -0.106272
v -0.943184 0.818904 0.509127
v -1.641090 0.483873 0.503702
v -1.654427 0.523629 -0.150545
v -0.965945 0.505395 -0.140455
v -0.952609 0.465639 0.513793
v -1.674470 1.211416 1.665760
v -0.986770 1.173893 1.675851
v -1.653303 0.871087 2.189532
v -0.964821 0.852853 2.199623
v -1.662728 0.517822 2.194198
v -0.974246 0.499588 2.204289
v -3.650110 15.380372 -1.062098
v -3.854684 15.614813 0.071631
v -2.367246 15.703142 -0.123400
v -2.480206 15.762554 1.034623
v -4.672817 14.224346 -1.008510
v -5.135949 14.810276 0.448942
v -4.871805 15.049356 -1.214042
v -5.334938 15.635284 0.243409
v -5.892859 13.604069 -1.018694
v -6.275397 14.097998 -0.008826
v -6.091848 14.429079 -1.224227
v -6.474386 14.923007 -0.214359
v -7.916919 12.608573 -0.964280
v -8.067401 12.780354 -0.128574
v -8.115928 13.433604 -1.169701
v -8.266410 13.605386 -0.333995
v -9.103059 11.862050 -0.416789
v -9.250739 12.167061 0.869667
v -9.301510 12.684069 -0.634465
v -9.449189 12.989079 0.651990
v 0.150671 15.560009 -0.646729
v -0.663704 16.001629 -0.637640
v -0.741051 15.872759 0.917898
v -0.233359 16.324602 1.125859
v 0.298676 16.278236 -0.741712
v -0.701535 16.492691 -0.917657
v -0.860220 16.698397 0.824466
v -0.067231 16.326166 0.914961
v -1.247928 17.677488 -1.403787
v -1.457022 17.982758 0.400194
v -0.242657 18.359787 0.439106
v 0.072415 18.605980 -1.464156
v -0.928772 18.285522 -1.536201
v -1.282035 18.632433 0.192071
v -0.683111 16.512503 1.324657
v -0.783429 16.809673 1.288045
v -0.125716 16.405064 1.617605
v -0.333059 18.457867 1.152331
v 0.096492 18.133757 -0.870902
v -1.379919 18.078793 0.882211
v -0.250563 19.074333 0.756299
v 0.116977 18.720173 -0.974092
v -1.207752 18.733440 0.681459
vn -0.0000 -0.0452 0.9990
vn -0.0173 -0.0764 0.9969
vn 0.0284 0.1398 0.9898
vn -0.0303 -0.1196 -0.9924
vn 0.3845 0.9209 0.0646
vn -1.0000 -0.0020 -0.0001
vn 0.0925 -0.9957 -0.0015
vn -0.5410 0.8137 -0.2128
vn -1.0000 0.0012 -0.0002
vn 0.9874 -0.1575 -0.0138
vn -0.0012 0.0690 -0.9976
vn -0.0016 -0.0758 0.9971
vn -1.0000 0.0015 -0.0006
vn 0.7177 -0.6885 0.1038
vn 0.0289 0.0944 -0.9951
vn 0.1110 0.1533 0.9819
vn 0.1770 0.9703 0.1647
vn -1.0000 -0.0034 -0.0051
vn 0.0381 0.0197 -0.9991
vn -0.0934 -0.0762 -0.9927
vn 1.0000 -0.0000 -0.0021
vn 0.1003 -0.9925 -0.0696
vn 0.2927 -0.0000 0.9562
vn -0.0953 -0.0989 -0.9905
vn 0.9969 -0.0544 -0.0575
vn 0.1996 -0.0709 0.9773
vn -0.9944 -0.0911 0.0532
vn -0.1136 -0.0918 -0.9893
vn 0.9854 0.1187 -0.1217
vn 0.2141 -0.1374 0.9671
vn -0.9662 -0.2308 0.1152
vn -0.1438 0.0132 -0.9895
vn 0.9920 -0.0195 -0.1244
vn 0.1498 -0.0363 0.9881
vn -0.9892 -0.0966 0.1098
vn -0.9925 0.0629 0.1045
vn 0.9918 0.0318 -0.1240
vn -0.9884 0.0586 0.1403
vn -0.9939 -0.0164 0.1091
vn -0.0329 -0.9983 -0.0490
vn -0.9960 0.0116 0.0885
vn -0.1382 0.1179 -0.9834
vn 0.9958 -0.0105 -0.0908
vn 0.1086 0.0326 0.9935
vn 0.0850 0.8658 0.4931
vn 0.0014 0.9419 0.3358
vn 0.9885 -0.0501 -0.1424
vn 0.9924 -0.0640 -0.1051
vn -0.0588 -0.9972 0.0465
vn 0.0007 0.9664 0.2570
vn 0.1475 0.7550 -0.6389
vn 0.1980 0.3120 -0.9292
vn 0.1595 0.1260 0.9791
vn 0.2648 0.3126 -0.9122
vn -0.0026 -0.9803 -0.1977
vn 0.0114 0.9742 0.2252
vn -0.2728 0.0937 0.9575
vn -0.2585 -0.1406 0.9557
vn -0.3176 -0.9376 -0.1415
vn 0.0714 -0.3521 0.9332
vn 0.3187 0.9370 0.1428
vn 0.7275 0.6688 -0.1533
vn 0.4837 0.8720 -0.0752
vn 0.3053 -0.0258 -0.9519
vn -0.5290 -0.8481 0.0302
vn 0.9061 -0.3685 0.2078
vn 0.4053 -0.3907 -0.8265
vn -0.7369 -0.6640 0.1269
vn -0.6632 0.3325 0.6706
vn -0.9101 0.3796 0.1663
vn 0.1714 0.9808 0.0932
vn -0.8016 -0.5283 0.2800
vn -0.0565 0.3276 -0.9431
vn -0.9973 0.0601 -0.0426
vn 0.0786 -0.2568 -0.9633
vn 0.2439 -0.4935 0.8348
vn 0.9971 -0.0113 0.0751
vn 0.8493 -0.2510 0.4645
vn 0.1504 -0.2923 -0.9444
vn -0.0961 0.9701 -0.2231
vn 0.9062 -0.3785 0.1886
vn 0.1737 0.9692 -0.1744
vn 0.8713 0.4865 0.0644
vn 0.4703 -0.8825 0.0044
vn 0.2398 -0.1766 -0.9546
vn 0.6452 0.1676 0.7454
vn -0.0437 0.4703 0.8814
vn 0.0618 0.1901 0.9798
vn -0.9681 -0.2339 -0.0897
vn -0.9864 -0.1370 -0.0911
vn 0.1623 0.9840 -0.0731
vn -0.8427 -0.2665 -0.4677
vn 0.8077 0.4798 0.3427
vn 0.1609 -0.9669 0.1979
vn 0.7264 -0.1086 0.6786
vn 0.0168 -0.0539 0.9984
vn -0.0062 -0.0391 0.9992
vn -0.0310 0.1272 0.9914
vn 0.0293 -0.1160 -0.9928
vn -0.4552 0.8884 0.0590
vn -0.0992 -0.9951 -0.0000
vn 0.5351 0.7937 -0.2893
vn -0.9860 -0.1649 -0.0253
vn -0.0080 0.0764 -0.9970
vn -0.0314 -0.1887 0.9815
vn -0.7759 -0.6166 0.1334
vn 0.0022 0.0546 -0.9985
vn -0.0894 0.2629 0.9607
vn 0.0215 0.9996 0.0157
vn 0.0079 0.0873 -0.9962
vn 0.0033 -0.0580 -0.9983
vn 0.8250 0.5651 -0.0000
vn 0.4999 -0.8655 -0.0303
vn -0.5134 -0.7988 -0.3137
vn -0.0353 -0.1395 -0.9896
vn -0.9984 -0.0569 -0.0000
vn -0.1025 -0.0930 0.9904
vn 0.9970 -0.0779 -0.0000
vn -0.0173 -0.1315 -0.9912
vn -0.9972 0.0741 0.0100
vn -0.0748 -0.1022 0.9920
vn 0.9823 -0.1871 -0.0094
vn 0.0111 -0.0281 -0.9995
vn -0.9977 -0.0649 0.0173
vn -0.0144 0.0033 0.9999
vn 0.9983 -0.0515 -0.0282
vn 0.9996 -0.0265 0.0133
vn -0.9997 -0.0153 0.0164
vn 0.9987 0.0458 0.0234
vn 0.9990 0.0304 -0.0336
vn -0.0255 -0.9979 -0.0601
vn 0.9994 -0.0257 -0.0226
vn 0.0171 0.0958 -0.9952
vn -0.9994 0.0257 0.0226
vn -0.0143 0.0136 0.9998
vn 0.0265 0.8458 0.5329
vn 0.0462 0.9386 0.3419
vn -0.9988 -0.0427 -0.0230
vn -0.9996 0.0265 -0.0133
vn -0.0268 -0.9994 0.0197
vn -0.0766 0.9876 -0.1372
vn 0.0683 0.4832 -0.8728
vn 0.1662 -0.1919 -0.9673
vn -0.4585 0.4301 0.7777
vn 0.1166 -0.2135 -0.9700
vn 0.0902 -0.9410 0.3262
vn -0.1103 0.9390 -0.3257
vn -0.1142 0.5651 0.8171
vn -0.2039 0.1900 0.9604
vn 0.3595 -0.8033 0.4748
vn -0.4329 0.1182 0.8936
vn -0.3595 0.8033 -0.4748
vn -0.6006 0.7579 -0.2547
vn -0.4661 0.7807 -0.4162
vn 0.0830 -0.2219 -0.9715
vn 0.4661 -0.7807 0.4162
vn -0.9675 -0.2474 -0.0524
vn -0.2366 -0.2949 -0.9258
vn 0.6009 -0.7577 0.2547
vn 0.5018 0.3268 0.8009
vn 0.9194 -0.2869 0.2690
vn -0.1592 0.9853 0.0626
vn 0.9929 0.0667 0.0988
vn 0.0577 0.2835 -0.9572
vn 0.9730 0.1568 0.1696
vn -0.0187 -0.2946 -0.9554
vn 0.0602 -0.6538 0.7543
vn -0.9883 -0.1370 -0.0675
vn -0.9087 -0.3515 0.2250
vn 0.1068 -0.3264 -0.9392
vn -0.0376 0.9767 -0.2115
vn -0.9025 -0.4295 -0.0317
vn -0.2940 0.9211 -0.2552
vn -0.9286 0.3093 -0.2050
vn -0.4636 0.8850 -0.0433
vn 0.1115 -0.2216 -0.9687
vn -0.2496 -0.9606 0.1226
vn -0.3071 0.4542 0.8363
vn -0.3251 0.1655 0.9311
vn 0.9783 0.0023 0.2073
vn 0.9895 0.1134 0.0899
vn -0.3238 0.9356 -0.1407
vn 0.9962 -0.0438 -0.0753
vn -0.9548 0.2828 0.0914
vn 0.0219 -0.9842 0.1755
vn -0.9481 -0.1530 0.2788
vt 0.625000 1.000000
vt 0.625000 0.750000
vt 0.375000 0.750000
vt 0.433387 1.000000
vt 0.375000 0.953889
vt 0.375000 0.296111
vt 0.433387 0.250000
vt 0.625000 0.250000
vt 0.625000 0.500000
vt 0.375000 0.500000
vt 0.433387 0.000000
vt 0.625000 0.000000
vt 0.171111 0.500000
vt 0.171111 0.750000
vt 0.125000 0.750000
vt 0.125000 0.500000
vt 0.875000 0.750000
vt 0.875000 0.500000
s 0
usemtl Material
f 7/1/1 3/2/1 8/2/1 6/1/1
f 6/1/2 8/2/2 17/2/2 18/1/2
f 4/3/3 3/2/3 7/1/3 11/4/3 12/5/3
f 9/6/4 10/7/4 5/8/4 1/9/4 2/10/4
f 2/10/5 1/9/5 3/2/5 4/3/5
f 11/11/6 7/12/6 5/8/6 10/7/6
f 9/13/7 12/14/7 11/15/7 10/16/7
f 4/3/8 12/5/8 26/5/8 23/3/8
f 5/8/9 7/12/9 6/12/9 14/8/9
f 3/2/10 1/9/10 13/9/10 8/2/10
f 1/9/11 5/8/11 14/8/11 13/9/11
f 18/1/12 17/2/12 21/2/12 22/1/12
f 14/8/13 6/12/13 18/12/13 15/8/13
f 8/2/14 13/9/14 16/9/14 17/2/14
f 13/9/15 14/8/15 15/8/15 16/9/15
f 22/1/16 21/2/16 75/2/16 76/1/16
f 20/9/17 21/2/17 56/2/17 55/9/17
f 15/8/18 18/12/18 22/12/18 19/8/18
f 16/9/19 15/8/19 19/8/19 20/9/19
f 25/6/20 24/10/20 28/10/20 29/6/20
f 12/14/21 9/13/21 25/13/21 26/14/21
f 2/10/22 4/3/22 23/3/22 24/10/22
f 9/6/23 2/10/23 24/10/23 25/6/23
f 29/6/24 28/10/24 32/10/24 33/6/24
f 24/10/25 23/3/25 27/3/25 28/10/25
f 23/3/26 26/5/26 30/5/26 27/3/26
f 26/14/27 25/13/27 29/13/27 30/14/27
f 33/6/28 32/10/28 36/10/28 37/6/28
f 28/10/29 27/3/29 31/3/29 32/10/29
f 27/3/30 30/5/30 34/5/30 31/3/30
f 30/14/31 29/13/31 33/13/31 34/14/31
f 37/6/32 36/10/32 40/10/32 41/6/32
f 32/10/33 31/3/33 35/3/33 36/10/33
f 31/3/34 34/5/34 38/5/34 35/3/34
f 34/14/35 33/13/35 37/13/35 38/14/35
f 42/14/36 46/14/36 52/14/36 50/14/36
f 36/10/37 35/3/37 39/3/37 40/10/37
f 38/14/38 42/14/38 50/14/38 48/14/38
f 38/14/39 37/13/39 41/13/39 42/14/39
f 45/13/40 44/10/40 43/3/40 46/14/40
f 42/14/41 41/13/41 45/13/41 46/14/41
f 41/6/42 40/10/42 44/10/42 45/6/42
f 40/10/43 39/3/43 43/3/43 44/10/43
f 49/3/44 50/5/44 52/5/44 51/3/44
f 47/3/45 48/5/45 50/5/45 49/3/45
f 35/3/46 38/5/46 48/5/46 47/3/46
f 39/3/47 35/3/47 47/3/47 49/3/47
f 43/3/48 39/3/48 49/3/48 51/3/48
f 46/14/49 43/3/49 51/3/49 52/14/49
f 54/2/50 53/9/50 55/9/50 56/2/50
f 16/9/51 20/9/51 55/9/51 53/9/51
f 16/9/52 53/9/52 59/9/52 57/9/52
f 21/2/53 17/2/53 54/2/53 56/2/53
f 57/9/54 59/9/54 63/9/54 61/9/54
f 17/2/55 16/9/55 57/9/55 58/2/55
f 53/9/56 54/2/56 60/2/56 59/9/56
f 54/2/57 17/2/57 58/2/57 60/2/57
f 64/2/58 62/2/58 66/2/58 68/2/58
f 58/2/59 57/9/59 61/9/59 62/2/59
f 60/2/60 58/2/60 62/2/60 64/2/60
f 59/9/61 60/2/61 64/2/61 63/9/61
f 67/9/62 68/2/62 72/2/62 71/9/62
f 63/9/63 64/2/63 68/2/63 67/9/63
f 61/9/64 63/9/64 67/9/64 65/9/64
f 62/2/65 61/9/65 65/9/65 66/2/65
f 70/2/66 69/9/66 71/9/66 72/2/66
f 65/9/67 67/9/67 71/9/67 69/9/67
f 66/2/68 65/9/68 69/9/68 70/2/68
f 68/2/69 66/2/69 70/2/69 72/2/69
f 73/8/70 76/12/70 80/12/70 77/8/70
f 21/2/71 20/9/71 74/9/71 75/2/71
f 19/8/72 22/12/72 76/12/72 73/8/72
f 20/9/73 19/8/73 73/8/73 74/9/73
f 77/8/74 80/12/74 84/12/74 81/8/74
f 74/9/75 73/8/75 77/8/75 78/9/75
f 76/1/76 75/2/76 89/2/76 90/1/76
f 75/2/77 74/9/77 78/9/77 79/2/77
f 79/2/78 83/2/78 95/2/78 91/2/78
f 78/9/79 77/8/79 81/8/79 82/9/79
f 88/17/80 85/18/80 97/18/80 96/17/80
f 79/2/81 78/9/81 82/9/81 83/2/81
f 86/9/82 85/18/82 88/17/82 87/2/82
f 83/2/83 82/9/83 86/9/83 87/2/83
f 80/12/84 76/12/84 90/12/84 92/12/84
f 82/9/85 81/8/85 85/8/85 86/9/85
f 90/1/86 89/2/86 91/2/86 92/1/86
f 93/1/87 95/2/87 98/2/87 96/1/87
f 92/1/88 91/2/88 95/2/88 93/1/88
f 94/8/89 93/12/89 96/12/89 97/8/89
f 84/12/90 80/12/90 92/12/90 93/12/90
f 87/2/91 88/17/91 96/17/91 98/2/91
f 85/8/92 81/8/92 94/8/92 97/8/92
f 83/2/93 87/2/93 98/2/93 95/2/93
f 81/8/94 84/12/94 93/12/94 94/8/94
f 75/2/95 79/2/95 91/2/95 89/2/95
f 7/1/96 6/1/96 103/2/96 101/2/96
f 6/1/97 18/1/97 108/2/97 103/2/97
f 102/3/98 105/5/98 11/4/98 7/1/98 101/2/98
f 104/6/99 100/10/99 99/9/99 5/8/99 10/7/99
f 100/10/100 102/3/100 101/2/100 99/9/100
f 104/13/101 10/16/101 11/15/101 105/14/101
f 102/3/102 111/3/102 114/5/102 105/5/102
f 101/2/103 103/2/103 106/9/103 99/9/103
f 99/9/104 106/9/104 14/8/104 5/8/104
f 18/1/105 22/1/105 110/2/105 108/2/105
f 103/2/106 108/2/106 107/9/106 106/9/106
f 106/9/107 107/9/107 15/8/107 14/8/107
f 22/1/108 164/1/108 163/2/108 110/2/108
f 109/9/109 143/9/109 144/2/109 110/2/109
f 107/9/110 109/9/110 19/8/110 15/8/110
f 113/6/111 117/6/111 116/10/111 112/10/111
f 105/14/112 114/14/112 113/13/112 104/13/112
f 100/10/113 112/10/113 111/3/113 102/3/113
f 104/6/114 113/6/114 112/10/114 100/10/114
f 117/6/115 121/6/115 120/10/115 116/10/115
f 112/10/116 116/10/116 115/3/116 111/3/116
f 111/3/117 115/3/117 118/5/117 114/5/117
f 114/14/118 118/14/118 117/13/118 113/13/118
f 121/6/119 125/6/119 124/10/119 120/10/119
f 116/10/120 120/10/120 119/3/120 115/3/120
f 115/3/121 119/3/121 122/5/121 118/5/121
f 118/14/122 122/14/122 121/13/122 117/13/122
f 125/6/123 129/6/123 128/10/123 124/10/123
f 120/10/124 124/10/124 123/3/124 119/3/124
f 119/3/125 123/3/125 126/5/125 122/5/125
f 122/14/126 126/14/126 125/13/126 121/13/126
f 130/14/127 138/14/127 140/14/127 134/14/127
f 124/10/128 128/10/128 127/3/128 123/3/128
f 126/14/129 136/14/129 138/14/129 130/14/129
f 126/14/130 130/14/130 129/13/130 125/13/130
f 133/13/131 134/14/131 131/3/131 132/10/131
f 130/14/132 134/14/132 133/13/132 129/13/132
f 129/6/133 133/6/133 132/10/133 128/10/133
f 128/10/134 132/10/134 131/3/134 127/3/134
f 137/3/135 139/3/135 140/5/135 138/5/135
f 135/3/136 137/3/136 138/5/136 136/5/136
f 123/3/137 135/3/137 136/5/137 126/5/137
f 127/3/138 137/3/138 135/3/138 123/3/138
f 131/3/139 139/3/139 137/3/139 127/3/139
f 134/14/140 140/14/140 139/3/140 131/3/140
f 142/2/141 144/2/141 143/9/141 141/9/141
f 107/9/142 141/9/142 143/9/142 109/9/142
f 107/9/143 145/9/143 147/9/143 141/9/143
f 110/2/144 144/2/144 142/2/144 108/2/144
f 145/9/145 149/9/145 151/9/145 147/9/145
f 108/2/146 146/2/146 145/9/146 107/9/146
f 141/9/147 147/9/147 148/2/147 142/2/147
f 142/2/148 148/2/148 146/2/148 108/2/148
f 152/2/149 156/2/149 154/2/149 150/2/149
f 146/2/150 150/2/150 149/9/150 145/9/150
f 148/2/151 152/2/151 150/2/151 146/2/151
f 147/9/152 151/9/152 152/2/152 148/2/152
f 155/9/153 159/9/153 160/2/153 156/2/153
f 151/9/154 155/9/154 156/2/154 152/2/154
f 149/9/155 153/9/155 155/9/155 151/9/155
f 150/2/156 154/2/156 153/9/156 149/9/156
f 158/2/157 160/2/157 159/9/157 157/9/157
f 153/9/158 157/9/158 159/9/158 155/9/158
f 154/2/159 158/2/159 157/9/159 153/9/159
f 156/2/160 160/2/160 158/2/160 154/2/160
f 161/8/161 165/8/161 168/12/161 164/12/161
f 110/2/162 163/2/162 162/9/162 109/9/162
f 19/8/163 161/8/163 164/12/163 22/12/163
f 109/9/164 162/9/164 161/8/164 19/8/164
f 165/8/165 81/8/165 171/12/165 168/12/165
f 162/9/166 166/9/166 165/8/166 161/8/166
f 164/1/167 90/1/167 175/2/167 163/2/167
f 163/2/168 167/2/168 166/9/168 162/9/168
f 167/2/169 176/2/169 180/2/169 170/2/169
f 166/9/170 169/9/170 81/8/170 165/8/170
f 88/17/171 181/17/171 182/18/171 172/18/171
f 167/2/172 170/2/172 169/9/172 166/9/172
f 173/9/173 174/2/173 88/17/173 172/18/173
f 170/2/174 174/2/174 173/9/174 169/9/174
f 168/12/175 177/12/175 90/12/175 164/12/175
f 169/9/176 173/9/176 172/8/176 81/8/176
f 90/1/177 177/1/177 176/2/177 175/2/177
f 178/1/178 181/1/178 183/2/178 180/2/178
f 177/1/179 178/1/179 180/2/179 176/2/179
f 179/8/180 182/8/180 181/12/180 178/12/180
f 171/12/181 178/12/181 177/12/181 168/12/181
f 174/2/182 183/2/182 181/17/182 88/17/182
f 172/8/183 182/8/183 179/8/183 81/8/183
f 170/2/184 180/2/184 183/2/184 174/2/184
f 81/8/185 179/8/185 178/12/185 171/12/185
f 163/2/186 175/2/186 176/2/186 167/2/186
